<mxfile host="app.diagrams.net" modified="2023-05-08T19:51:37.899Z" agent="Mozilla/5.0 (X11; Ubuntu; Linux x86_64; rv:109.0) Gecko/20100101 Firefox/112.0" etag="anrYIMyMS08fgiZApt1W" version="21.2.9" type="device">
  <diagram name="Page-1" id="dXKCmT0IgGFioBTh1-hK">
    <mxGraphModel dx="3430" dy="1985" grid="0" gridSize="10" guides="1" tooltips="1" connect="1" arrows="1" fold="1" page="0" pageScale="1" pageWidth="850" pageHeight="1100" background="#4D4D4D" math="0" shadow="0">
      <root>
        <mxCell id="0" />
        <mxCell id="1" parent="0" />
        <mxCell id="-n0s7fdAZKVhsjs20yD8-109" value="" style="rounded=0;whiteSpace=wrap;html=1;fillColor=#b0e3e6;strokeColor=#0e8088;" parent="1" vertex="1">
          <mxGeometry x="438" y="640" width="1013" height="704" as="geometry" />
        </mxCell>
        <mxCell id="-n0s7fdAZKVhsjs20yD8-59" value="" style="rounded=0;whiteSpace=wrap;html=1;" parent="1" vertex="1">
          <mxGeometry x="438" y="-272" width="1013" height="916.5" as="geometry" />
        </mxCell>
        <mxCell id="-n0s7fdAZKVhsjs20yD8-103" value="" style="rounded=0;whiteSpace=wrap;html=1;fillColor=#f5f5f5;strokeColor=#666666;fontColor=#333333;" parent="1" vertex="1">
          <mxGeometry x="92" y="-272" width="344" height="954" as="geometry" />
        </mxCell>
        <mxCell id="-n0s7fdAZKVhsjs20yD8-101" value="" style="rounded=0;whiteSpace=wrap;html=1;fillColor=#d5e8d4;strokeColor=#82b366;" parent="1" vertex="1">
          <mxGeometry x="-794" y="-272" width="886" height="907" as="geometry" />
        </mxCell>
        <mxCell id="-n0s7fdAZKVhsjs20yD8-82" value="" style="rounded=0;whiteSpace=wrap;html=1;strokeColor=#23445d;fillColor=#bac8d3;" parent="1" vertex="1">
          <mxGeometry x="902" y="892" width="500" height="421.09" as="geometry" />
        </mxCell>
        <mxCell id="-n0s7fdAZKVhsjs20yD8-44" value="" style="rounded=1;whiteSpace=wrap;html=1;fillColor=#f9f7ed;strokeColor=#000000;" parent="1" vertex="1">
          <mxGeometry x="756" y="376" width="427" height="163" as="geometry" />
        </mxCell>
        <mxCell id="-n0s7fdAZKVhsjs20yD8-43" value="" style="rounded=1;whiteSpace=wrap;html=1;fillColor=#f9f7ed;strokeColor=#000000;" parent="1" vertex="1">
          <mxGeometry x="757.06" y="-116" width="427" height="166" as="geometry" />
        </mxCell>
        <mxCell id="-n0s7fdAZKVhsjs20yD8-30" value="" style="rounded=0;whiteSpace=wrap;html=1;fillColor=#dae8fc;strokeColor=#6c8ebf;" parent="1" vertex="1">
          <mxGeometry x="-722.5" y="88.00000000000001" width="311" height="92" as="geometry" />
        </mxCell>
        <mxCell id="-n0s7fdAZKVhsjs20yD8-26" value="" style="rounded=0;whiteSpace=wrap;html=1;" parent="1" vertex="1">
          <mxGeometry x="-302.4" y="172.5" width="327" height="308.5" as="geometry" />
        </mxCell>
        <mxCell id="-n0s7fdAZKVhsjs20yD8-15" value="" style="rounded=0;whiteSpace=wrap;html=1;fillColor=#dae8fc;strokeColor=#6c8ebf;" parent="1" vertex="1">
          <mxGeometry x="-741.5" y="269" width="359" height="167" as="geometry" />
        </mxCell>
        <mxCell id="-n0s7fdAZKVhsjs20yD8-14" value="" style="rounded=0;whiteSpace=wrap;html=1;" parent="1" vertex="1">
          <mxGeometry x="-309.9" y="-103" width="342" height="166" as="geometry" />
        </mxCell>
        <mxCell id="-n0s7fdAZKVhsjs20yD8-2" value="" style="rounded=0;whiteSpace=wrap;html=1;" parent="1" vertex="1">
          <mxGeometry x="181" y="-119" width="161" height="613" as="geometry" />
        </mxCell>
        <mxCell id="-n0s7fdAZKVhsjs20yD8-4" value="" style="shape=cylinder3;whiteSpace=wrap;html=1;boundedLbl=1;backgroundOutline=1;size=15;" parent="1" vertex="1">
          <mxGeometry x="213.5" y="151.5" width="96" height="64" as="geometry" />
        </mxCell>
        <mxCell id="-n0s7fdAZKVhsjs20yD8-7" value="" style="shape=image;verticalLabelPosition=bottom;labelBackgroundColor=default;verticalAlign=top;aspect=fixed;imageAspect=0;image=https://cdn-icons-png.flaticon.com/512/1909/1909779.png;" parent="1" vertex="1">
          <mxGeometry x="-38.989999999999995" y="-86" width="44" height="44" as="geometry" />
        </mxCell>
        <mxCell id="-n0s7fdAZKVhsjs20yD8-8" value="" style="shape=image;verticalLabelPosition=bottom;labelBackgroundColor=default;verticalAlign=top;aspect=fixed;imageAspect=0;image=https://cdn-icons-png.flaticon.com/512/103/103093.png;" parent="1" vertex="1">
          <mxGeometry x="-258.9" y="-84" width="80" height="80" as="geometry" />
        </mxCell>
        <mxCell id="-n0s7fdAZKVhsjs20yD8-9" value="" style="shape=image;verticalLabelPosition=bottom;labelBackgroundColor=default;verticalAlign=top;aspect=fixed;imageAspect=0;image=https://cdn-icons-png.flaticon.com/512/2344/2344728.png;" parent="1" vertex="1">
          <mxGeometry x="-521.5" y="300.5" width="66" height="66" as="geometry" />
        </mxCell>
        <mxCell id="-n0s7fdAZKVhsjs20yD8-10" value="" style="shape=image;verticalLabelPosition=bottom;labelBackgroundColor=default;verticalAlign=top;aspect=fixed;imageAspect=0;image=https://www.selenium.dev/images/selenium_4_logo.png;" parent="1" vertex="1">
          <mxGeometry x="-713.5" y="394" width="104.96" height="22" as="geometry" />
        </mxCell>
        <mxCell id="-n0s7fdAZKVhsjs20yD8-11" value="" style="shape=image;verticalLabelPosition=bottom;labelBackgroundColor=default;verticalAlign=top;aspect=fixed;imageAspect=0;image=https://scrapingant.com/blog/img/blog/beautifulsoup-logo.png;" parent="1" vertex="1">
          <mxGeometry x="-599.5" y="381" width="123.04" height="53" as="geometry" />
        </mxCell>
        <mxCell id="-n0s7fdAZKVhsjs20yD8-12" value="" style="shape=image;verticalLabelPosition=bottom;labelBackgroundColor=default;verticalAlign=top;aspect=fixed;imageAspect=0;image=https://upload.wikimedia.org/wikiversity/en/8/8c/FastAPI_logo.png;" parent="1" vertex="1">
          <mxGeometry x="-288.9" y="-4" width="140" height="50.61" as="geometry" />
        </mxCell>
        <mxCell id="-n0s7fdAZKVhsjs20yD8-13" value="" style="shape=image;verticalLabelPosition=bottom;labelBackgroundColor=default;verticalAlign=top;aspect=fixed;imageAspect=0;image=https://upload.wikimedia.org/wikipedia/commons/thumb/f/ff/Apache-nifi-logo.svg/2560px-Apache-nifi-logo.svg.png;" parent="1" vertex="1">
          <mxGeometry x="-119.9" y="-15" width="122.91" height="52" as="geometry" />
        </mxCell>
        <mxCell id="-n0s7fdAZKVhsjs20yD8-23" value="" style="shape=image;verticalLabelPosition=bottom;labelBackgroundColor=default;verticalAlign=top;aspect=fixed;imageAspect=0;image=https://1000logos.net/wp-content/uploads/2020/08/MySQL-Logo.png;" parent="1" vertex="1">
          <mxGeometry x="-201.4" y="275" width="131.19" height="82" as="geometry" />
        </mxCell>
        <mxCell id="-n0s7fdAZKVhsjs20yD8-24" value="" style="shape=image;verticalLabelPosition=bottom;labelBackgroundColor=default;verticalAlign=top;aspect=fixed;imageAspect=0;image=https://1000logos.net/wp-content/uploads/2020/08/PostgreSQL-Logo.png;" parent="1" vertex="1">
          <mxGeometry x="-255.9" y="169" width="234" height="146.25" as="geometry" />
        </mxCell>
        <mxCell id="-n0s7fdAZKVhsjs20yD8-25" value="" style="shape=image;verticalLabelPosition=bottom;labelBackgroundColor=default;verticalAlign=top;aspect=fixed;imageAspect=0;image=https://upload.wikimedia.org/wikipedia/commons/thumb/9/93/MongoDB_Logo.svg/2560px-MongoDB_Logo.svg.png;" parent="1" vertex="1">
          <mxGeometry x="-253.3" y="375" width="235" height="63.27" as="geometry" />
        </mxCell>
        <mxCell id="-n0s7fdAZKVhsjs20yD8-31" value="" style="shape=image;verticalLabelPosition=bottom;labelBackgroundColor=default;verticalAlign=top;aspect=fixed;imageAspect=0;image=https://cdn-icons-png.flaticon.com/512/1909/1909779.png;" parent="1" vertex="1">
          <mxGeometry x="-481.5" y="111.00000000000001" width="44" height="44" as="geometry" />
        </mxCell>
        <mxCell id="-n0s7fdAZKVhsjs20yD8-32" value="" style="shape=image;verticalLabelPosition=bottom;labelBackgroundColor=default;verticalAlign=top;aspect=fixed;imageAspect=0;image=https://upload.wikimedia.org/wikipedia/commons/thumb/c/c3/Python-logo-notext.svg/1869px-Python-logo-notext.svg.png;" parent="1" vertex="1">
          <mxGeometry x="-532.5" y="111.00000000000001" width="40" height="43.79" as="geometry" />
        </mxCell>
        <mxCell id="-n0s7fdAZKVhsjs20yD8-33" value="&lt;font style=&quot;font-size: 17px;&quot;&gt;&lt;b&gt;Data Modeling&lt;br&gt;&lt;/b&gt;&lt;/font&gt;" style="text;html=1;strokeColor=none;fillColor=none;align=center;verticalAlign=middle;whiteSpace=wrap;rounded=0;" parent="1" vertex="1">
          <mxGeometry x="-719.5" y="118.00000000000001" width="176" height="30" as="geometry" />
        </mxCell>
        <mxCell id="-n0s7fdAZKVhsjs20yD8-35" value="" style="shape=image;verticalLabelPosition=bottom;labelBackgroundColor=default;verticalAlign=top;aspect=fixed;imageAspect=0;image=https://cdn2.iconfinder.com/data/icons/flat-file-types-1-1/300/icon_file-CSV_plano-512.png;" parent="1" vertex="1">
          <mxGeometry x="-626.75" y="-116" width="119.5" height="119.5" as="geometry" />
        </mxCell>
        <mxCell id="-n0s7fdAZKVhsjs20yD8-37" value="" style="shape=image;verticalLabelPosition=bottom;labelBackgroundColor=default;verticalAlign=top;aspect=fixed;imageAspect=0;image=https://upload.wikimedia.org/wikipedia/commons/thumb/5/53/Apache_kafka_wordtype.svg/2560px-Apache_kafka_wordtype.svg.png;" parent="1" vertex="1">
          <mxGeometry x="188" y="402" width="141" height="70.5" as="geometry" />
        </mxCell>
        <mxCell id="-n0s7fdAZKVhsjs20yD8-40" value="" style="shape=cylinder3;whiteSpace=wrap;html=1;boundedLbl=1;backgroundOutline=1;size=15;" parent="1" vertex="1">
          <mxGeometry x="213.5" y="267" width="96" height="64" as="geometry" />
        </mxCell>
        <mxCell id="-n0s7fdAZKVhsjs20yD8-41" value="" style="shape=cylinder3;whiteSpace=wrap;html=1;boundedLbl=1;backgroundOutline=1;size=15;" parent="1" vertex="1">
          <mxGeometry x="213.5" y="34" width="96" height="64" as="geometry" />
        </mxCell>
        <mxCell id="-n0s7fdAZKVhsjs20yD8-42" value="" style="shape=cylinder3;whiteSpace=wrap;html=1;boundedLbl=1;backgroundOutline=1;size=15;" parent="1" vertex="1">
          <mxGeometry x="213.5" y="-72" width="96" height="64" as="geometry" />
        </mxCell>
        <mxCell id="-n0s7fdAZKVhsjs20yD8-48" value="" style="shape=image;verticalLabelPosition=bottom;labelBackgroundColor=default;verticalAlign=top;aspect=fixed;imageAspect=0;image=https://upload.wikimedia.org/wikipedia/commons/thumb/f/f3/Apache_Spark_logo.svg/2560px-Apache_Spark_logo.svg.png;" parent="1" vertex="1">
          <mxGeometry x="876.5" y="398" width="174" height="90.35" as="geometry" />
        </mxCell>
        <mxCell id="-n0s7fdAZKVhsjs20yD8-49" value="" style="shape=image;verticalLabelPosition=bottom;labelBackgroundColor=default;verticalAlign=top;aspect=fixed;imageAspect=0;image=https://itfromzero.com/wp-content/uploads/2017/09/crontab.png;" parent="1" vertex="1">
          <mxGeometry x="536" y="447" width="111.06" height="58.3" as="geometry" />
        </mxCell>
        <mxCell id="-n0s7fdAZKVhsjs20yD8-50" value="" style="shape=image;verticalLabelPosition=bottom;labelBackgroundColor=default;verticalAlign=top;aspect=fixed;imageAspect=0;image=https://upload.wikimedia.org/wikipedia/commons/thumb/3/39/Scala-full-color.svg/1200px-Scala-full-color.svg.png;" parent="1" vertex="1">
          <mxGeometry x="1082" y="498.54999999999995" width="85" height="38.9" as="geometry" />
        </mxCell>
        <mxCell id="-n0s7fdAZKVhsjs20yD8-52" value="" style="shape=image;verticalLabelPosition=bottom;labelBackgroundColor=default;verticalAlign=top;aspect=fixed;imageAspect=0;image=https://upload.wikimedia.org/wikipedia/commons/thumb/3/39/Scala-full-color.svg/1200px-Scala-full-color.svg.png;" parent="1" vertex="1">
          <mxGeometry x="1080.06" y="11.100000000000023" width="85" height="38.9" as="geometry" />
        </mxCell>
        <mxCell id="-n0s7fdAZKVhsjs20yD8-54" value="" style="shape=image;verticalLabelPosition=bottom;labelBackgroundColor=default;verticalAlign=top;aspect=fixed;imageAspect=0;image=data:image/png,iVBORw0KGgoAAAANSUhEUgAAAn0AAAFCCAYAAACEt2soAAAgAElEQVR4XuydBXRVR/PAJyEhgeASLKEUq0OdKu7uEiwQXIuVQnGH4u4QnODF3er+VaGGBHd3st9e2tDk5cnuvTv33vfe5Jz/+X+n7M7O/GZ2d97elQCgPyJABIgAESACRIAIEAGfJxDg8xaSgUSACBABIkAEiAARIAJASR8FAREgAkSACBABIkAE/IAAJX1+4GQykQgQASJABIgAESAClPRRDBABIkAEiAARIAJEwA8IUNLnB04mE4kAESACRACXwIVpndn9Iz/Cw0tnIOHeHQgMCobATOGQOu8zkK37PJprcfGTdEECFIiCoKgYESACRIAIEAFHAvHNCjD24K5nMAEBkHdpPM25nklRCUQCFICIcEk0ESACRIAI+CaBswOqs7t/fidtXKosuSHP1K9o7pUmRxVUEKDAU0GRZBABIkAEiIDfEDgeFcGMGpt32Qmaf41CpPrSBCjopJFRBSJABIgAEfBXAvHRBRnje/ZU/FHip4IiyZAhQEmfDC0qSwSIABEgAn5LQMUKnyM8Svz8NpwsMZySPkuwU6NEgAgQASLgTQROv/cWu3/uOIrKlPihYCWhTghQ0kdhQQSIABEgAkTADYErsQPYte3z0RgFpk0HEXMP0XyMRpgEJxKgIKNYIAJEgAgQASLghgDGZ13H5kKfeg3CB66jOZkiEZUABRgqXhJOBIgAESAC3kzgZOfX2cOLp0wxgT7zmoLZrxuhpM+v3U/GEwEiQASIgDsCZqzyPW4/VRDkXXyU5mUKSTQCFFxoaEkwESACRIAIeDOB+Ob8tY37Aq9tKDQytMCLED50E83NCpmSqP8IUGBRNBABIkAEiAARcELA1FW+JO3TZ14KRywClPRhkSW5RIAIEAEi4LUETrR5gSXcuGyJ/oFhGSFizi80P1tC37cbpaDybf+SdUSACBABIqCDgFWrfImq0mqfDqdRFY8EKOnziIgKEAEiQASIgL8RsDrp03hT4udvUYdvLyV9+IypBSJABIgAEfAiAidaPcMSbl23XONU/DNvHvrMa7kffEkBSvp8yZtkCxEgAkSACBgmYIdVPvrMa9iNJMAJAUr6KCyIABEgAkSACCQhYKekLyAoCCIX0d19FKBqCFDSp4YjSSECRIAIEAEfIHB+eAN2+5dPbWVJutKNIUur0TRf28or3qkMBZF3+o20JgJEgAgQAQQCJ1oWZgl3biFINiaSDnUY40e1/yFASR9FAhEgAkSACBCBfwnEN3mCsYSHtuOROn8RyDlsC83ZtvOMdylEAeRd/iJtiQARIAJEAJGAnfbzOZpJq32IjvcT0ZT0+YmjyUwiQASIABHwTMDOSZ+mPSV+nn1IJVwToKSPooMIEAEiQASIwL8E7J70hb1dG7J2nExzN0WsLgIUOLqwUSUiQASIABHwNQJnh9djd3/53PZm0Wqf7V1kWwUp6bOta0gxIkAEiAARMJNAfMunGLtz08wmdbWVKmN2yDPje5q/ddHz70oUNP7tf7KeCBABIkAEvOTTblJH0Wofha0eApT06aFGdYgAESACRMDnCNh9P19S4AGpQyFy4Z80h/tcFOIaRAGDy5ekEwEiQASIgJcQ8KakT0Oa9u1akK3jFJrHvSS+7KAmBYsdvEA6EAEiQASIgKUELs7qwW7uX6lMh+DwSHhw6SywB/eUyXQmiD7zouL1OeGU9PmcS8kgIkAEiAARkCUQ35S/xPFQ3UscickY9uphUI58kHvCJzSXyzrcT8tToPip48lsIkAEiAAR+I+A6uQsMek7P64Vu/3tNlTU/rbad2FCm0dMWUKCS66B/IRzBJ1wTsGHkj7UrkjCiQARIAJEwBsIYCV9mu0nmuVnCYifeQMCU0HkkmM+O5+f6VuB3T9zBNidW7pCKVWmcMgz/Tuf5SMDhSDI0KKyRIAIEAEi4JMEMJM+DZhq+Y5OCHujCmTtMssn5vTL8/uy67sWKY+zNMWqQvauM32CkV44fm28XmhUjwgQASJABHyLgMqkLHWu/JBz3IFk8+sJfvFzAubFzwEBkHdpvFfO6Rdndmd3f/8KHpw5xoOKoQZWSP4ikGPYFq/kpAKM3xquAh7JIAJEgAgQAe8ncGFia3brq63KDHG1x+54VCTPaPCSmqDwJyD3xE+9Yl4/1e5F9uDaBWXMZQSlK9ccsrQY7hWcZOwSKeuXRouAoTJEgAgQASLgHwROdX2TPTgfr8xYV0nfxamd2M3P1itrx5kgux7qODukDrv3xzeg8oS0EZB25WTEJpG6lPSJUKIyRIAIEAEi4LMEVH7a1SC5SyiwV/sCUgVB5OKjls/t54bWZ3d++8y2MZP25bKQredCyzmZDcjvDDYbMLVHBIgAESAC9iagMukTOUmrsj1nZNOVa8o/X440dX6/MLMbu/vjPnh45by9nf2vdqnSZ4E8s340lZEdwPidwXaATjoQASJABIiAfQioTMKCczwBuSa431d3qssb7MGFE6gAzPh8ebzJEwwS1F1ojQrEiXAzGJltk6f2KOnzRIj+nQgQASJABHyagMqkL/SFdyG8z3KPc6vKNp05JzAsI0TM+cWjHjKOPTe0Hv9k+7lMFVuXpaTP1u4h5YgAESACRIAIqCVwsm0R9vD6JWVCRROJcyMbsTs/HVTWrjNBorq4UuJMt7fYfe394Pva+8F4p45RIbgRbpSPVXobaVfprwAjilBdIkAEiAARIAJmE1C94iaTSMQ3e5KxB/fRTA4MSQMRC/6QmudPtn6OPbx5FU0n2wgOCOT3Gh6XYmMb3Q0o4ncGG2BFVYkAESACRMDHCFiZ9GkoVbfv6J6wYtUga9cZTuf6K7H92a3vd8ODCyfBm/fm6QnJoCy5IPfUr/0uB/I7g/UEB9UhAkSACBAB3ySgOumSWenTiJ7s+Ap7ePksKtykOp3pW5HdO/ozanveIDzNqxUge/d5fpcD+Z3B3hCMpCMRIAJEgAiYQ0Bl0heYNgNEzP1Vel5VqYM51Ly/Fdnk3Pst/scC6eD0FcPJDiJABIgAEfBvAhemdGC3Pv9YGYQM5VtApuih0vPq5Vk92PX9K5XpQYLcE7DLBdZW+Ek6OK1QktokAkSACBABIqCawOneZdn9+EPKxBpZPTrRsjBLuHNLmS4kyDUBI37ydq6U9Hm7B0l/IkAEiAAR0EUgvll+fnpWu45EzZ/RZII+86rxgzspgWnSQcS8Q36b+/it4fihRS0QASJABIiAnQmoTrKMJn2nuvKXOs7jvtRhZ3+YoZtRH5mhI2YblPRh0iXZRIAIEAEiYFsCKpO+VBmzQZ4ZPxieU1XqZFvwFikWnPc5yDVqu2EfWaS+kmb92nglBEkIESACRIAIeCUBlQlW6LNvQXi/OMNz6sVpndnNT9d5JU87Kx0QGgaR8w8b9o+dbRTRze8BiECiMkSACBABIuBbBM4Oa8Du/vqpMqNUfjZUmYwqM9DLBan0jzejoKTPm71HuhMBIkAEiIAuAvGNIxn/01XXWSXVSQUlfspcA6p9o04z8yVR0mc+c2qRCBABIkAELCagOqlSnVic6VWK3Tv5h8WUvL/5dG9Whyydp1Ou868rCYT3xzRZQASIABEgApIE7J70aeao1lESEUrxwNC0EJzveWB3bsK9o7+gtJEoNDg8L+Sa+BnlOUkoEwzUkCPhRIAIEAEiYEcCqhMq1St9GrMLM7qyWwfX2BGflE7BOZ6EXBMOJss3TrQoxBLu3paSI1M4MF0miJj9M+U4DtAIiEwUUVkiQASIABHwegJXFn7Iru2IVWZH2hdKQLY+S1Hm0/jogozdu6NMV3RBAYEQlPNJSPPc25C55QinTM705p+u4/E+XQekSgWRi4+h+AOdH3IDBAUZMIknAkSACBABexE4M7AGu/fHt8qUwljlS6qc6lVJZYb/KygghF+HskDsOpRL8/qwG7sXq1YhmTxsf6Aqjyyckj5kwCSeCBABIkAE7EXgZPuX2MOr55UphZ1kxEcX4qt9eJ9C5UAEQEBIGgjOHgk5x+yWziGwE1hsX8ixsl9paYfZzwTSiAgQASJABIiAOAG7X9fizBLsZMkTvdBn3oTw/qsM5QzYNlDC58mLAIYc6Fk8lSACRIAIEAEiYC8CKpOPgKBgiFx0BH0uvTSrB7uxf6U5IAMDITAkLUTMO6TMLtWJtiOI0Of4iygfGn8RxRzA1rWizKHWmUAtEwEiQASIABEQI3C2f2V2968fxQoLlAp96jUIH7jOlLk0vmk+xh4+ENBKvkiqTOGQ5rVKkKXFcOW2HOeHUQDxMEpwznyQa/wnyvWWp2j/GgTJ/j4iDYkAESACRMAggYuT2rCbX24xKCVldbM/KapcpQwp/CrkGLQeNQ841fVN9uB8vHLuSQWa7QNUY5CFozobWXcSTwSIABEgAkTAJYGL2j13n20ArNUxrWGzE44zvUrzlzp+l/Z6AL9KJURblRywxrR5/8KE1uzW11uldRWuwD+t5zXh07qwPl5Q0DTnewELUpEIEAEiQAS8nMCZ3mXZ/TNHgN2/a4olZid9mlGiq30BfF9e5ILfLZvnRfXU6ygr2OvV1S71LAsGuwAgPYgAESACRMC7CZzpW4FhP+nlipAVicfFCfxT9dfJP1UHBARAUPgTEPL065Cl7XjL53ZK+OzZpywPDHtiIa2IABEgAkTAzgROdnmDPbxwkqvILFXTiqRPM/hU93fZA76imbZYFcjWdZat5vLjUZHcKXh+SVeivi0SW0sDT2fjtgoUnTZQNSJABIgAEfADAvH8vVaG+F6rLMJUWcIhz9TvaB5NAu540ycZPLwvi1K4fHBEYcg1Zg8xFyaWvCCB0wmOqhEBIkAEiAAugQvjW7E7h76EhBuXcRvSKd2qVT6d6qJXO9muKHt47SJaO0HZIiD35C8obzFAmOAZgEdViQARIAJEQC2BC2Oj2a3vdqkViiSNkr7/wJ7s8jr/3H4KiTQXyy+MzrvkOOUsBgkTQIMAqToRIAJEgAgYI3B+THN2+6f9AEgXDxvTznVtSvr+YXNhehd265O1WJgfySXWavBS0qeGI0khAkSACBABCQKnuxZj989rBzG89S+AJyLxNIdy99FJXe+JYQpY7/EVaUoEiAAR8GoCZwZWZ/f++M6rbUhUPnXeZyHnqB1+P4dSwudd4ez3Aetd7iJtiQARIALeReA4fy/W2z7bihBOXzEGMjcb7NdzKHbCl/aN6pCty3S/ZiwSizJlCKYMLSpLBIgAESACHgmc7PAKe3jlrMdy3lzA3/eYxTfOyxhLQHNh8BPPQK6ROylHUUyYgCoGSuKIABEgAv5G4NKCvuzm/jhg9+74jen+nPSd7Pgqe3j5DJqvA4JTQ2Ts35SfIBAmqAhQSSQRIAJEwB8IxDcvwMx649ZOPMNeqwRZu83xy/nz7JC67O6hL9DcERAcyhO+P/2SLRrUJIIJrBmUqQ0iQASIgI8QONHmeZZw44qPWCNuRnDO/JBr/AG/njMvze7JbuxbIQ5NR0l/XkHVgUu6il8HsDQtqkAEiAAR8FMC2Jv27YY1ICgYUj/1OuT4cCXNk/86BzsGKOHD7wUUzPiMqQUiQASIgNcS8LdPuGnfrQPZ2k+iudEhYinh89ounExxCmzf8CNZQQSIABFQSuBEzLMs4fY1pTLtKCwwbQYIfaE4ZOs6k+ZDFw6K59fuMMTXUkKeeg1yDFxH/E3oIATZBMjUBBEgAkTAmwgcbxzJgDFvUllK18CwjBAx5xea/wSonWj1DEu4dV2gpL4iwbkLQK6x+8kX+vBJ1yLQ0sioAhEgAkTANwmcn9iG3f5qiw8aFwCpMmaFPDN+oDlPwrun2hdhD65ekqghWZTvm8y76Aj5RBKbkeIE2wg9qksEiAAR8BECl2b34CczV/qINf+Ykbrgy5BzyMc0z+nw6oUJbditrxF/AKRKBXkXHyPf6PCNkSoE3Ag9qksEiAAR8BEC2Bv1zcAUkCoIgsLzQq5x/n21ilHWlxcNYNe3zTcqxm19OqmLitelcEr6rOFOrRIBIkAEbEPAmxO+AL5ilKZYVcjWaRrNZ4oi6ngU39MJeHs6KeFT5CgdYqiT6IBGVYgAESACvkLg3MDq7M4f33mdOWHFqkDWrrNoDlPsOewfABkqxkCmZoPJb4r9JiqOwIuSonJEgAgQAR8kgD3Jq0IWnD0Cck36guYsVUCdyMGOhdQFXoScQzeRDxF96Ek0wfdEiP6dCBABIuCjBOx+eCMwdRqIWPgHzVMmxN+J1s+xhJtX0VpKlSkb5JlOp6fRAAsKps4kCIqKEQEiQAR8jQD2yo4sr4CAAAjO+yzkHLmd5iZZeAbKn+nxLrt3+ogBCe6rBoSkhcgFv5NP0QiLCyYniLOikkSACBABnyJgl6QvpPCrkGPQepqPLIiuC+Ni2K1vt6O2TAc3UPFKCadOJoWLChMBIkAEfIeAlUlfQOpQiFz4J81BFocTZgxoK7eRS+PJxxb7OGnz5AwbOYNUIQJEgAiYSQBzwvdkR6pMOfger29pDvIECvHfsf1PK3yIztMpmjqcTnBUjQgQASLg7QSwJ31RPmlfLQfZui+g+UgUmIJy8c0LMHb/rgJJzkWEFHwJcgzZSD5FI6xPMDlEHzeqRQSIgCICc+fOZ5cuXgTGGGTPlg1atmpJ45Iitp7E2CXpS9QzKDwSck/8nPzvyXEK/j2+cSTvcnQBswKUXiWCOpdXuYuU1UvgnbeKOx3dPvkM77kmV206syFdujDYtmMren8sXbIsu3fvnlOMmCwcGyz+TkmWkJDg1p1pQ9PCjj3bDDNx5gdZW53J6NSlIzRs2MCQflGNGrPjx+J1hbWsDc4awX55QZdh/1YKfaYYhPdfY4ivkfZ9ve7ZIbXZ3UNfoZlJn3bR0BoSTB3KED6q7A0EKleqxq5ddX7/VI0a1aFX754o/UAm6UvkmDNXTli9Jg5FH60NdzqpSCLcxcOkiZPZ6lVrHq3oif5VrFQB+vX/UDePwYOHsZ3bdyRrTttcfvDT/VIyVSSOzmzWEyOJclT5y26rfY6cUmXMDnlmfC/lL9H48vdyuL4PgLzL6BCH3WKMOpLdPEL6KCfgbmItWLAALFyEs5dI74QeEhoCu/fsVN43K1eswq5du+6Sr6okQmVy07pNK2ge3Uw3i1o1arPz5y8kUylTpoywaYv4XqNZs+awxbGLU5ilgpfeGMmcNTNs3LhBN5ekxuBO/Gq7c3DOApBrvFzCrlYD35J2fmRjdvun/WhG0WofGlrdgpUMGrpbp4pEAJlA1crV2ZUrV1y2EhgYCAc+2ae8HyxatJjNnjlHt3WVK1eCvv36KNXLU4LRtWtnqNegntI2NQDvvl1C994ho4lVubIV2O1bt5P5IV++fLBk2SJhO7t06sq+++57WyV9tWrXgB49ewjb4C4Qz/StyO4d/Vl3rFpRMVX6zJBn1k9K7LdCfzu1ebxxXgbM/VYLvfoGBIdAZOxf5Ce9ABHqkTMQoJJI+xDwlOhomhpNLJxZ27vXB+zTTz8zBEKlXiKJV/Hi78KIUcOVjgki/N1BMsrAWfs8sQWe4ArbWadWPXb27FnlSd+ypSvY9GnTdcWIUS6OjXrTal8y3bUXPPIUglxj9gj7UxdwH650ceZ77OaB1WgW0mofGlpdgqmj6MJGlbyBgMhhAaykr0H9RuzkiZPJMDlbVezzfl928JNPnOJUNbHPmD6LLV2y1KPL8ubNC8tWLFE2JrhLNLV9dWXKloZBgwemaG/woCFs9649oB30MMpAxV48Z3a89eYbMGbcGEOsoqNbsj9//zOZX0JC+Kf9veo/7Xty/rnhDdidXz71VMzW/x6YJj1EzPvNkE9sbSCicthJPyV+iM6TFE0dRBIYFfcOApMmTGKr+KEBkb927dtCk6aNlfYFZ4lCsTeKwbjxH6Vop1XLNuzQoUPKV5ISBZYqUYbdv3/fIwo9BxxcCS1Tqhy7e9f5HWCvvvYKTJw0wSPvCmUrse27jJ1oVpH0qZDhjFMVfsDoqsMBoxw5c8Catas8svHoTB0F4lsUYuxu8k/hOsRYXyUwFaSOKAw5R5mfPFtvvH4NMBO/0JfKQnivhZbEtX4ivlmTnOCbfvV7q0q8W4o9fPgwGYfQ0FBInyE9nD93Ptl/D8+ZE9auVXtiViZRmD1rNlsUuwQl6ZswfiJbs3ptCtlRUY1g2bLlKG2OHzuerV273mkMdurUARpGNTRl3Bn70Xi2fl1KPWRXD2V8KdPxShYvzR48eJCsysuvvAyTp0w0hY8zXY/zu9v48WoZM2xdNoAngJFLjlnG09ZwHJTDvKw5ICCQP8d2nPxgg4AgJ9jACaSCWgITJ0zkV4OkTHQ6dOwAX375JXz7zbcoyU5SoTKJwqgRo9mmTZtRdHKmR1BQEOw7sCdARkcZDzlLZrT6Ma1aQouW0aaNOQ0bNGYn4pPfgZc2jN/9t1P87r/p/NP4MiefxmUTR2f8sPjL+Mpp4hcV4TtZ378GaqvYwQVehJz0QoTb8MBc7UvzclnI3pNW+4z2T6P1TRuAjSpK9YmAKAFnk2mqVKlg/8G9ARPGT+IrXyk/+6qYxBP1i12wiM2ZM1c4iatbuz47c+aMcHlRDq1btWG//er6s7EzTu07toXGjY196nYmN4wnW9slki1RG92Vc6ZH6TJlYMjQlPsIXclpWK8RO3Ey+d7M1KlTw559uwyPnXZN+jQWmJO/Ct8akpEqCPIuPmrYf4Z0sGll7Mu6aW+f9Y6nwLfeB6SBQgIxLVqxw4d/d5tAYU+2TaKasaNHjybTIZTfvbfLyd17E/neQ+3CYmd/RhNRZ3amS5eOv/yx5VG/L1OqPN93dydZ03ny5IaVq1boHhdKlSjN9w8m/2SpNWDUFj0h4sz+p59+GvLmixQWt2PbzhRlX37lJf4JdpJuRprA5ctWsGlTU57cLV+xnFvdBgzob6hdYcN9PfF7BCIAQgoUhRxDN5nGVIa/VWUxE/6gbHkg9+QvibdVzn0U9fTn1QTGjhnHNm/eAiIb9V0ZWq5cWRg4eIBPxIKzAxRp0qSBnbu3P7YPO+lzJj9z5kxQomSpxy64evUy7N934NEJVWd/bdq1hmbNmur2SYf2ndiP//vRbfLbKqY1O/TbYbdlZDuHM9uzZc0C6zeu122LrA6J5Y1eF+Oq3ZhWLfhn6haG7On+Xk/21VfyT2CZnTyfaP0cS7jp/DUbvX6xaz1ahfrHMydaPcsSbl1DcxNxRkMrJNjQwCXUAhVSSqBvnw/Z1199A7dv45yyK1AgP8Qu9s59F+3admA//5TyktkOHdtBVOMot0lfqVIlYejwIUr6g9FkIzRNKOzavcOQLu728iUG5LChw9m2rdvRkz6z9/JpBi1evITNmjFbad9LFKYi8XJ3utmd0iraloVycU4vdnNvykM/snLsWl7b75e+bFPI1GKEoT5nV/v06IW52hcc+QzkGk0nq/X4RUUdCnIVFJFlNOAb0k86bEhHbvKR+BIlS8DwEUO9JkZcJVuOE6Wzck/myweLJV5pcMffaNJndGIvX7Yiu3XrlsdkLm5FHJs8earHcqKxxpMsxpMtZfJE23VWrmFdvhfvVPK9eEbkJa1r1D+aLL0xoqJtvRxONMnLXK1M65VpdT3t7syIJXSq1NEP8dH8+p57OAsLWlu02mdd5HvNhG4dImtaXr5sJVu8aBG4eyvVLM2MPnpvhp4VylViN2/eFEo4yvI75O443CGn8jk2vRN64mETo7yctZ8xY0bYvDXle7POynZ5rzPUry//HNuQwcPYju07hHxg1EZP9fWupHmSi+kjT21nypSJvxn8seVj9unOr7H7F097Utf2/06Jh3sXYa72BQQFQ+SiI5bHsu2DFEFBgo4A1ahIZ3fMGZVptL6qyc6oHq7qO0teXCVyrfhhj0MeDnvo1XNA/0Fsz+490tUjIyNh+cqlhvtj5YpV2bVrKffjaK9fDB4yKIV8Z9ze5K9NfKTjtYkB/QayPXv22iLpw+pDql7M0PPDoOiLRWHa9CmGY0Q6OF1UOMFXgxIQV4NU6ekoJzAsI0TM+UWIY6P6UY9Obx/8dL9QeSydrZB7qkdJ9uB08hdjVOpBSbdKmuKy/C6QxdGYX7Ic/yx328lnOfM1cd1ikSIvwPSZ02wVN7Vr1mHnHC5c1sNMxaez6Gb8aa0/Uw6U2bJlTaaSljzkyJEDXn75JYhWeHednmTCkVVkZARPQJdJ+3jSxClsVdyqFOhbt2kFzaObScvT48PEOioO65QrXZ7dvpP8dHPu3LkhbrX+082afv0/HMD27t2XzDyVK81GuOmpe35sC3bn+138TmebX+/HP+XmlfiUm/QZRxVjgx62VtfBvMIlVeYckGfat6aOC1bztEP7BNwGXmjcqCk7duyYDTQRU8Fuq34qEh3N8k5d+GsRDY29FuFsP12WLFnh403r0Puau7duxTz7TykjCYgzX4Tz5HbtOnOfFlOR9DmT0bZdG2jarIkhXzrbipA9PDusW7/GkFwZH2OVxfwkaETnVFlyQp6p3wjxrVGtFrt48eLj5uw23hnhIFv39Htvs/vn8OYmWu2T9Yjx8kKdwHgzJMEVAVUJixWE7fDrVyW/fE/mgyVLFxnqE870adWmNURH679+RcS3S5csYzOmzxQpKlRGr29FD9MIKaGz0NQp09iK5StT1Ja1SUXi6MwEZ28hP/fcczBrzgxDsacTF0q1kx1eZg+vnEORLSVUcnXPmc+LFi0C02ZM9RnfSPHjhbETeUr8ZD1irLzfBrIxbMZr9+n9ITt48KBxQRZLiGnNn9ZqYd7TWknNXbJkKZs5fZZSArKJgWPjWImCJyNLlyzL7t2756mY8L/r5eBqtVFmtSQubjWrX7+u7rGpQ/uO/I7Cn2yb9DmLkSZNG0O79m112yzsWJMLnuz4Ent4Oflb12apEFLwJcgh+Oxa7Vp12fJx7MsAACAASURBVLmzzpPUps2aQtt2rX3ON6J+uDA2mt36bpdocelylPRJIzNUwW8D2RA1g5Xr1W3ATp/y/tNviRhatY6B6BbNTY8lZysmmk7afjlPf1qC5GwPkt5kJ7E9K5K+uXPmsoULFqUwWUu0tHd2Pf3ddTjJrJWPaRXDLyDW51NXq30ihyCqVqnGsmfLBgtiF+iOJ2dxUaBQIYiNnScss3fPPuzTzz41nDg6Y29FjHiKAex/Pzu0Hrt3+Evgd75gNwUBIWkgcsEfQr7mq+OMr5K71cnomIBusAkNHOfX9fCb5FFaopO8KFhdChXqGOaq5NutubpDzdutbt+ev9na1NibrTIMZs6cxZYsWuo00dHe2PUkq2+ffuzA/gNKJ/W+ffuzA/v2K5XpyQ7t341+UnV6byG/pHuxzku6y/IDEHccDkAktSN79uzw9NNPgbbX7+rVq3Dq1Cn468+/IDH5bNS4IXTs2MGjD12xcWZPy5gYaBkjnsQ6WzmN4AdcVug44JJUz7iV/G7ESSnvRixYqKBHVy+Mna+biUfhJhbA/FyYpkgJyP6B2Cn4qlWqsyuXr3i0nJI+gAsT27JbX232yEpvAVrt00tOvp5PDCLyZltTA+saCWusSdmqmYOj0URn7ux5bOHCWKUJWsnipdmDB8nfnVWRKLjz7+BBQ9nOHSnfh42IyAMr4pYL9W+jLJ3pZ2SvpdE4UrGS5kxGzVo1oGevHkJMXflsQH9+rc3ulNfaiPRho1xE2jCzTHzM04zdvqGkyYDUfHVvodjq3shhI9nmLVuF2/U17sKGOxTETNa1pijx0+sZuXqGBjC5pvy7tK8nfIneNWOAdDVxRubld92tEPuVr+nrbGJ/++23YPRHo3T1C2fyqlWvBr0/6KVLnkiPcbWHTsYPoi94iOiTWGb6tBls2VJ9T3fJ6C6acMrKVJE4OtOtbu367MyZMzIoH5eVtUFXIxZUOt2rJLt/Uv99cOnKNIUsMSOF+pirS9xdma090eaPd/S54oGZ+KUrXheytJso5EcLwtRnmiTAJrhS1VUaJqhquImQ0BDYvQf3XUVVK1PO5DzxxBOwdPliXf0CK1Fw5ZS2rduzX375JcU/h4byt3v3iL/d275tR/bTT8YPPjgqMmXydLZyxQrpmDKS3PTq0Zt9/vnnKdqUlYnlSytXQKUdYXKFM71KsXunePIneN9fQHAIRMb+JdRXo5u14Pdn/iVtkV1eQZFWHKlCfNN8jD1M/jVDZVO02qeSpnNZQh0GXw3fbcFX9/C589gLRZ6HGTOno8TWe127s2++/iZF8yKHBBwrOZuAg/nBh70H9ujSHStRcMVaVfI7ftxEtnbNWsOJkis9a9Wow86fFzvBqcePSdt19gMrZ66csHpNnLBPRwwbwbZs2ZbMHFUrPnqTvhzh4bBm/WphG7x5RL08vw+7sWc5P/ThOrlIXyEGMjcfLMTD1YEvEUYFChaA2EX6DxWJtOFtZTBX+8LeqAZZu/jO1UV29K1Qp7Gj4t6gk94B3hts86RjjRrVoFdv9Z8169dv6PTa/7g4+VcSVMpavHgp27hxY/JEAQJgpeC+Ok88Hf/9gw/6sr///jtFtXz5noAxY0ZL92tnLJ7nd8cNGNhfWpYrW9q168B+/vFnp//85hvF4KPxHxluy5kd2h14AyXs0PS8dOlSMj3TpUsH8+fPRdFPxPd169bm7yHXN9y+SFt2KuOYYASmSQcR8w4JcahftyHTDgkZ+SvG43Kcgrg0ooPd6mImfZqttNqH63GhzoOrgm9K796tB/vqy6990zgBq1StjAg0RUWIABHwcQIXZ3ZjWdtNEJ6vVP3gbtIkCtp1aCfcro+74bF5mIlf6DPFILy/979OY9dYoGBG8oyqQQdJPVPEBgcHw979uynGTKFNjRABIlCjOn9C7cJ/T6gZJSK7F9Roe95S/yQ/ef1Q0cnrlDYH8NW+eJo3kIKBwCKApYTvP6hZs2aBDRvXU5whxBmJJAJE4B8Cy5etYNOmTleOww5JX/myFdiOXdttN4ZirvaF5HsBcozYajublQeYBQIJqmLolSpUYdevX1cs1bvFtW7dCpq3aEax5t1uJO2JgC0J1KrJDwqdEzsoJGuA1Ulf4hUzkRH8Oqo459dRnWz/Iktd+HXI3m22qWMsZtKn+Yn29slGq1h5U4NETCXvLTVm9Efs4w3JN/N7rzXqNM+VKxesWrOSYk0dUpJEBIgAJ1D8nZL8ZTec58E0wFYmfU0bN2dHjhx57GdXujgmX6my5IE8U780ZbzFTPyCs0dArklfmGKHP3UmAqrQ2/RZNyXMOnVqQbce3SjOFMYZiSICROAfAthjrlVJX8uWrdjvh35P5mbRpC9pJe20c3BEYcgx+GOUMfjUe2+xB+eOo4UjrfapR4sSCOrVtL/EmjVqswvnL9hfUZM0TJUqFYi8gWuSOtQMESACPkgAM+mLyJ0bVqyWvwrKKOb+/QaxvXv2pBDjKuk70eFFlnBFbO4JSB3Kn6v7U+m8j7naF5g+M0TM+kmpvkb94+31CaYiD2IOPq5ULP7OuzBizHCXPuzSqSv77rvvFVkoLuaJJ/LyVy2WUGyJI6OSRIAI6CCAOe7WrlMbuvd4z9RxbPasOWxR7GKnJFwlfZfnfcCu714iTS8gMBWkLvwa5Bhg7NLv+Fb8DeVbat5QdmYErfZJu9ZtBVMDWq3q9pGGOfA4Wpk+fXrYun2ztN/KlanAbt++jQ6tWo3q0Lt3T2n90BWjBogAEfApAgMHDGK7d6VcEVNlpBWfdt3NJa1axUB0y+ZOx1ZVq21pXywL2d5fKD1+q2rfme9knttT5XtfliPtXF+Goce2ZfyqgOkIVwU406Vjpw7QKKqhbp/NnTOPLVwQq8dMj3VSp04Ne/bt0q2bxwaoABEgAkQgCYGYFq3Z4cOH0ZiYnfR5eqP9nXfehlFjRqImfUlhBuUuBLnH7hUa088OqM7u/vkdmi9otU8dWiGHqmvO9yRVrliFXbuGe0WL6tctVK9MhoWFwfaddKeS70U3WUQE7EugTu167OyZs2gKmpn0iYzJWbNm5XeerjMt6XMEG5wlF+Sa+rXLnAFztQ/4HvG8i49RvqIg2gmiQYgindVIE4GBgXDgk33K/VSyeGn24IHrB81FdW7atAm0bd9GuX6i7VM5IkAE/JNA2dLl2Z07d9CMNyvpK1m8FB+LHwrZ4Uqnk22LsIfXk78XLSRQZ6HAsIyQ9s3qkKXlfyuPp957m5/kPaZToudqtNrnmZFICZqsRSi5KNOjx/vsy8+/MCDBc1XMgcfT5wR32qleffRMgkoQASJABP4jgPmDOyQkNezei79dRSbh0yx3NR+cHVCNf141/9CeplMAX5jQksA8/JQt6mofb4sSP+MjACV9BhhiDjqaWrVq14QePbuj+khP4lewYAFYuGgBql4G3EJViQAR8AMCmONvXn4DwTLkGwj0rFS6Svouze3FbuxZ7vNep6TPuItp4jbAEHPQcferzoDKTqvK2NE8uhm0btOK4ka1E0geESACUgRkxi0pwbzw66+/BuMnjkMb5xrUj2InT5yQVQuiWzSHVq1jLNvXJ62w4gqB/J7BCMX3DCpW0fbi0ILa9pYbVHD0yNFs48bNBqW4ru5u067qRvv26ccO7D/gVmzasLSwY+c2ihfV8EkeESACughgJn01a9WAnr16oIx3TRo3Y0ePHNVlc7bs2WD9hrV+m/Rp0Gi1T1foPK6EEtTGVPKO2jWr8xc4Lojdgq7Hog6d2kNUVCPT/FOqRBl2//59p6rmzpMb4laZfzO9Hm5UhwgQAd8nMGzIcLZt23Y0Q7H2UvfvN4C/trHPkN56nmMz1KDNKmtPy0XMO2Ta3Ggz8w2rQ+B0IixftgK7dQvvsmOsQceduY6/nLXDGo2bREG79m0pTnTGCVUjAkRAPYFGDaNY/HH5z6OimmCMv8uXLWfTps4QVcFlOX9P+mi1z1gI0WSukx/mpwVNJYxBx5OpHdt3Yv/734+PigUFBcG+A3soPjiLjz4ax86fOwc3b96Ce3fvwf0HfEWUsUen1oKDgyFNaBpIly4M8hfMDzExLYmZp0Az6d+nTZ3O902dhNv8Wo87d+7CgyQr2an56cy0adJAhowZIF++J6Fps8bkN5P8oqIZPQfQZNpVPf7GrYxjkydNlVFBOuk7835pdu/E70rasLsQ+sSr30M00Olkh530PffcszBrzkzT/VP8nZIsX758sGiJ/FM8OlHaplqXLu+x775Rd6u8tlL6RrHX4aPxH5nuR9tANUGRNq3asV9//VVpS88//xzMnD2D/KaUqjph2OOv6qRPpb7udMO+MkWdB41JCiteH7K2G0/9UwdGgqYDmlZFZSd2pYLqgUenqT5brUunruyHH/4HCQkJptgYHh4O5SuUo8/lBml3aNeJ/fTTT3yxlRmUJFY9U6ZMUKp0SfTrk8S0oVJmjL8qx17Vc0W5cmVh4OABfn2YI+TpYpBjwBrKX3QMBwRNBzQzBh2tDZUDj04zfa6aqpdIjIKht4rlCGor0GYl5540a9++HTRuGuWXY+eg/oPYrt17PCHS9e8y453qRCqpwqn4k1/7D4q9OevJUIzP0AULFYSFsfP9OukLjigMucbQ9iNP8efs3/1y4NIDyrEO5qCT2BYlBio8BdCzey/25ZdfmbYyJKO1tneySdMofvcW3X3oyO29rt3YN19/K4PT1LKY13qYaoiHxlq2aMV+P4y/V8wuSd9bb70BY8aOMTw3ursRwYh/3c0L8Y0j+QK4OSvgRmwwWjco15OQe9xBwz4yqoc31idoOr1mRtKnqZYpcybYtPlj8pMOP2k33t+9e9eWyZ6jOdrqQgt+8Wp0y2i/93WZUuUe+c0b/rR9m1WqVoYP+vT2Kb/NnTOfLVm8BFS8zy3qR9Gkb9DAwWzXzt2iYqXLierhTnClilXZ9WvXpNsWreBKx1OdXmMPLp0WFeO15VLnfQZyjtrpU33OLGcQNJ2kzUr6NPUqVCgP/Qf2I18J+qpCucrs5s0bgqXtVSyQnwg+8Mk+v/Q11sqIWR5WkSyYpaurdpYtXc5mTJ9p+g+lDBkywJZtm4Tivm7t+uzMmTNoqIz6sWH9RuwEPzWO+edKx3MjGrI7P3+C2bQtZKd5qSxk7+V/hw1VwBfqZCoa8jUZGHs1XDHSVhMOfrqffOUhiCpVqMKuX7/uE6GWI0cOWLNulV/4vHzZivzOy1s+4becuXLC6jVxXum3CuUq8R9LNy3xwztvvw2jPhopxK1KpWrs6tWraHoaSfoaNWjM4uPj0XTTBJcsWRKGjRjikpU/nOClK1v0h5hQJ9Mv3ndrli5Zlt27d89UA40MRqYqanJj7dp2YD//9LPJreI35+urfs2bRrO//vobH6TJLag8CGCG6rNnzmGLFi02oymXbXTs1AEaRTUUmo+wP//rHWdHDBvJtmzZisqxcOFCMH/hPLecTvcswe6f+gtVD6uFU9Kn3wNCnUy/eN+tWbVydXblyhVTDaSDHclxz5u7gC1csND0T1GmOp039tprr8KESb5zJ9W4sRPY+nXrfd5vFSuVh3797b0to2YN/pzkebznJEX7ikyihb21RkaXRPuGDR3Btm3dJmqurnJ67m493bMkTwD/1NWenStR0qffO5T06WTXKro1O/T7YZ219VfLkD49bNm+2e/9Vo0n3ZdNTrr1e814zbC0YbB911av9zv2Ko1x0molFClaBKbPmGpLv5UrU4Hdvo33lKQMSZlECzPpy5UzJ6xaK/d5fvnylWzalGky5kqXzZo1K2zYuM5QHJ0fVo/dPfITJNz2zv3OidAo4ZMOn2QVDAWRsaa9vzbm4OOOTiF+T9MCF/c0eT9VzxaUKF6aPXzwwHNBHyuRhj8btnP3dq/ss7ELF7F5c+ebdhG2nVyfLVtWWP+xsQlbtT0l3i3FHj58qFqsbnl2SfreeLMYjB0n94IO9jyQIyff37tW/f7e+BaFGbvrXXtpAwJTQeSSY145BuruHIorEjwDQLE7uzvVSpYqAcOGD/Ur/3Xn9+199cWXBjzmG1VlJkg7WBzD73k7bMI9b3aw1ZUO6fnp1K2Cp1Ox7bDTRdearbJ7IDHHXb6vEPj+QuFxFVMXjU1YGF/h34m/wn+q2zvs4YV44L8EsMPPkHxa5TOE71Fl4eA23pTvSbDiMEdSitWqV4HeH/jW/WCuoqR+3Ybs1KlTvhdEOiySnSR1NKGsipUnQpUZoUhQaGga2LXH2pVaq8csZyizh2eHdevFntQaN3YcW7d2gyKPpBQj84MK+3WfdDzh22ZCwudI4fzYaHb7u11ojPUKTpU5HPJM+45yFr0A/61HAA0AjF24mM2ZPceABONVZQYp461ZI8Fun6KsoWBsgrJCZ+xVECtsMtpmtuzZYf0GsQTHaFuO9atVrcEuX7qsWqxhec88+wzMmTtLaC5q06ot+/XX3wy36UqA6HiKHdt2ObR3YWQjdvvw18DuaZelW/fSR2BwCETE/iUUI2jB4SOCCaJBR2J3fhH1RAcqEVl2K2PmfYh2s92TPsHBwbB3/25b9mE79AtP/Kz694iICFgRt8xUv/X54EN28MBBq0x2226JksVh+IhhQjxKlijNHtzH288rMpZi39xg55X8U12KsQcXcC+edgyWgJBQiFzwp1B82DLAbaYUgTTokKhGTdjxY8cNSjFeXWSwMt6KuRIocfDM246JH/nNs9+KlygOI0aKJTqepXkuYWeftOvQFpo0aSw0F2Hb4WkcxT597k0X8cc3L8DYfdznElNl4Z90p9InXc89XLyEUEcTF+efJbEHIhGq3jRYiNhjB6YietqhTP78+WHREuufJFqxPI5NnTLVDki8QgdPCYYqI+z+vJ0MB+xxwZ0u7dq255fA/6LKLU7lyLBAVURS+PnxMezOdzuBJSRI1nRePCAgECKXHqf8RAnN5EIIqgKodhlUfSXxwx7YFbjcViI0v3ft2hXq1q9taX8mv8mFhRn9dUC/gWzPnr1yiplcWibRwY4xV7p07tiVff/996hkZDigKqJAuJGn4OiErgIHuBFh6SSBa5q50rEHI1FrgoKCYN+BPV7rV7twFOVtp3JWThrkN32REB4eDmvXr0brr97gF5m4xbQn7xORsGz50hS+mDhxElsdt0afgwVryTAQFGmbYpfn92F3j/4KDy+ehIRr5/+7Fob/WA1MlxmCwyMh6IkXIGurUWj9wDYwbKAIQVbkhCZRTdnRo8cUSTMmxo77vEQsokMbIpRcl0mXLh1s27HF9D5NfjPmt2bRTaFNm9bK/dagXiN28qS5m+71kBBNeCZOnMyTr9V6mhCq06w590PblH7Ajm9R+4WMoEJEwAMB5QONPxPH/BUqyzUsbVr+bNc2r/GvHe8Pk2Vuh/JmTyB2ink78NerA4bfvME3gYGBcOCTfULjVIN6DXkSi3dXpzMfYDPE8LveGKR6/kFAqLP5BwrjVi6KXcxmz7L23r6kVph1m7tRcpUrVmXXrl0zKkZZfe2OLO0aiYGDBrjtH+PHTWD79u2DSxftc/dZWp7s7zAp2bdboq4lEEVfLAqvvPIKRLdo5tJ348ZNZN98+RXEnzihLGaMCir8VGGYv2CusvF48sQpLC5ulVG10OsXeeEFmD5rmpDd2G8FOyZgtMKH7n5qwAICQp3NAr28tslGDaJYfLx9JpNMmTPBps0f29bPPfnTal9Y/LSa9ln0RZ4sjBoz0hCnHt3fZz/wzd537+JeY+Cpc5ixehAT3Zod/v2wJ1VQ/z1TpkzwyssvweBhgw35bcWKVfyzYRycOXMWVV9PwlX6rVyZ8uz27TuemrT831u1aQnR0dFC/sM+MJeUP/YKX4eO7SGqcSMhuy13EingUwQo6BDciT1gyKqcO09uiFu1wpa+tpJV6TJlYMjQgShcKlWozK5fvyHrKiXlsU+Fzpw2ky1ZukyJrrJCtNW8GjWrQ4+e3VH8NmrkaLZ50xZgzPzXB1T2Uyv7lYxPZRJds1besJ9Xa9ykMbTv0BYlfmXYU1n/JECBh+R37AFKVu1s2bPx55/W2srfVkxM2iGXunXrQsfO7U1hgX2Zq6s4kJlMZWPJCr+FhITA7r07TfGZxiOmRWv2+++/m578qfDbymUr2ZSp02TdKl0+c5bMsHHTBtN8ghl3idsiMPur9mOsbt060LVbF9OYSTuVKvg8AQo+RBdjDlJ61H766adh7vzZtvB5vToN2OnTp/WYobtOVOMo6NCxnen2Dx86gm3duk233noq5sqVC1atWanc1koVqvAVzOt6VNJVR3uSqmOn9lC/QX3ltogoZHYfLly4EMxfOM+QreXLVmS3bt0SMU9XGaueCcP0hbZVADj1K5ev6GIiUqlkqRIwbPhQQ74VaYfKEAF3BCgAEeNjypQpbOVye22mDs/O7wXbgHcvmChOzAHcUYcMGTLAlm2bLI91s1d/VawaJWU5sP9Atnu3eRf9Zs+eFdZtWGe530qXKsvfm78nGtqGyxn1G2bfwt464AreyhVxbMpk733t5bVXX4EJkydYHsuGg5MEeD0BCkJkF9rxRvw333oTPho72jLfY05KSd1p1QTlLqQwPx85ttugQX3o3LWTMj+b5TeZazyQu+9j8ZXK8z2aN8zZo9mpcydo2Ej/yiaWn6z0y+hRH7GNH280y91K23nppRdhyrTJyvqhUuVImN8RoEA0weW1a9Zl586dM6El8SZeKFoUZsyYYrr/69auz86cOSOuqIGSRldMDDTttmqJd0uxhw8fYolPJlcVg5o1arML5y+g62zna4awT48mwk2XLoxfsr1Vd9/ESvpq1aoJPXrhHKDxFFgdO3Ri//vhR0/FbPfvkZERsHzlMt2+tJ1BpJDXE6BgNMmFZiY7oiY1bhLFT5GZu8cNa0JKanNkRCQsj0v5nJIoFzPKFX+nJH+bXM3j5O70VZX0meG3IkX4nW0zxe5sM8NHztowg4PWrhG/YeloRCej/qpSuTq7egVvv51R/ZzVzxvJn3Vbae9xCMNukmlvApT0megfMz/tiZrVrn1baNK0sSlxUKFcJXbz5k1R1XSVK5A/P8QuWWiKPboUTFIJa3JOqldMTAtoEdPCEA8z9iJWqFgB+g/40JCeRv0hWt8Mv+lNsObOnscWLowVNUW4XLr0/Im/7eY/8ZeooBnMhWEIFLTzirWA+lTEhwl4xSDrS/ztmPjpnWBk/YI9cD/33HMwa84Mr4npj0aPYxs2bJDFKFX+2eeehdlzZupmMmP6TLZ0Ce6dfCVKFIfhI4fp1lEKiILCZmzX0E6Tbtoif6l63z792IH9BxRYmVxE1WpV4IM+vS3zEfbYoRJY1qxZYcNG6w8gqbSJZPkOAcs6se8glLfEzD1dItqZceAB+8mutGH8+bGd3vPWcKJfsC+CDQlJze+326W7n2PvY3vx5aIwdar5e0tF+oW7MthJSFBQEOw7sEfab40bNWXHjh0zal6K+mb9MHSlODZvVcCsPOyiygaS49sEpAcV38ZhnnVmfDKTtQZzYMcctL39UwomGy0GjPgVU7fcuflLMavt+VKMp75TpVI1dvXqVU/FDP27Hr9h/aDUo4sh4x0qY8ahKj3Tpk3D373eTnOqKqAkB4UABSgKVjGhdhvIQkNDYdeeHcpjoka1muzixUtiUHSUsnpC0qFysipNopqxo0ePGhXjsr5ePtiHTfTqhQZKUjB2/9XDB0snPbpI4nRZfPHipWzWjFmqxKHJsZIRmlEk2OcIKJ/gfY4QskFYg7RetTNmygibt2xUGheYNrZsFQ0tW7ZUqq9edkbqYTLSOxnZUScjjFXXrVKZr/ZdwVvt69K1M3+JpJ5UbGP5TG8MqWDeKqYNO/TbIRWiUGWUKVMaBg8dJOUvVIVIOBFwQoAC1OKwWLF8JZs6Bf+dTBkzy5YrC4MGD1ASGw3qNWInT56UaV64bIGCBSF20Xwlego3ilQQc1WtdJlSMGToYClO9es2ZKdOnUKxtnjxd2HEqOFS+qAoYlDo8uUr2LQp0w1KcV1dz+EJjKQvffr0sHX7Zsv8hWETltOsTI6xbCK5vkXAso7sWxiNWfPRGH6Kcz3uKU5ZDVUNXpgDtiodZdlglMdM/sNz5IC161ZJ9XUsv5lxaAjDP65kvvN2cQYMp8UiRfm9hTPk7i3E8Fskv29uuYX3zWHYhOOxf6T60riEyYlkW0NAaiKwRkX/aHXggEFs9649tjE2ODgY9u7fbTg+sAbskqVK8sfLhxjWzzbAuSJYrGQTrRnTZ/FrWpaioPG1CbFcmQrs9u3bKKxy5soJq9fECcd4nw8+ZAcPHFSuy/MvPA8zZ00X1kO1Alj9QrWeifKKFCnCLxmfahkvLLtIrm8QoMC0kR87d+zCvv/+B9toVKzYazBuwjjdMdK8WTT768+/UezxteRBg1ShXGV+eTXO+64yvLAmWaPPi6EEkkGh48eOZ2vXrjcoxXn11KlTw5594tftYF3/U6debejW7T3d44BROFjxaFQvd/Vl+humHiSbCDgSsKwjkyucE2jUsDGLPx5vCzyyK0SOSmMN1nr2OtkCqAclur/Xg3311dcoqspMQlh+k9EBBQKSUCxemroyzLD0kNEBAzGWXRi6JpVpNTds+0i+dxKgpM+GfqtZvRa7cOGiLTQz8qwZ1mDtq4PpggUL2bw581H8Lsps8IAhbOeuXZbqgNI4olCsOKek7x+nYfJFDAsIDw+HtetX0xyLCZlkSxOggJRGZk6F8mUrslu3bpnTmIdWRBOGpGJax7Rlv/32m3L98z6RF5YtX+KzcYs1wYn6sFLFKuz6tevK/VajZnXo9X5Pn/Qb1oXIlPQBjPtoPFu3DufzufIgdyKwTt060K17V5+MezP4URvqCVAwqmeqTCLmZCKjZKbMmWHTOAZpzQAAIABJREFU5g1SsWJ18iJjn53KWs3N6vbt5AtRXdq17cB+/uln0eLC5WSf9PJF33Xr2p19/fU3wszsWFD0B5cddSedfI+A1ETue+bb3yK7JH6yA5cvTkBmRIvV3DDaz5QpE2za8rHPjjUTJ0xiq1etUR4esvfjYfhOdrVRNYR6dRqw06dPqxZrqrw0adLAzt30PJup0KkxlwR8diD2JZ9jDeYyjBpGNYROnToIxwuGzlmzZIENm9YL6yBjn13KYnATnbhnzZzNFi9aohxF8+hm0LpNK5/126q41WzSxMnKueV9IpJvZVgqxG382An8FPE65TpE8PeRV1j4PjL2G+XvvPs2fHLwU+XcHAUWLVoEps2ga1zQQVMDHgkIDSgepVABdALYg58nA0JCQmD33p1C8TJ27Di2fq36y6Y7duoAjaIaCungyR67/ruVSV/jqCbs2NHjytHIrhIrV8AEgRh+e6HI8zBjptj9eD279WJffPmlcksrVq4I/fr1tazPYXBNhJQ4ppUpVY7dvXtXOTtHgf7QD9AhUgOGCVjWmQ1r7ocCMAdAEZyig1b7dh3ZTz/+JCJSqoxo+1JCbVYYy8ci7DDaNnrtj83c41IdDHaly5aGIUPE3nJtEtWUHT16TDkukbhR3mgSgRhcE8VnzZoVNmxc92gOxGwnsT3ZPZqYXEm2/xKgpM+LfD937jy2cH6sZRp36dqJPwBf32PMVKtanV2+dEWpnpQ86Mcpyg5j4gsJSc1XiMUvGNZvpbU1Mdg1bNQAOnXu6LG/aZaXLV2e3blzRzkEX076kt4EMGrEaLZp02bl/BwF5sqdE1atFn9lBV0hasDvCAgNKH5HxcYG9+83gO3ds88SDUU3JGNMgGFhYbB951afj1cMdtn5fWHrBO4Lw2g7Y8YMsHnrJvKbjh4rk3Bh+E5TWUYHHSZ6rIJll9Zw8eLvwIhRIx7HZvF3SrKEhASPOhktULtWTejeq7vP9wmjnKg+DgEKPByuqFJrVKvJLl68hNqGK+EikwDGQJ3vyXywZOkin45XfoiC8cMUyv36xptvwNhxYzyyw/DbG28Vg7FjP/LYtnKjTRaIwU6kryWaidG+1Ulf//4D2d7de9E86YwvFkdHI2R8iwaABPslAZ8fjH3Vq1UrV2dXrqj9hCrCSmSwwhg4X3nlZZg0ZaJPx2uvnr3Z5599LuIGqTIiPlswn78GMlf9ayAxrWKgRcvmPu03zRkYMS/iN8ykT+bwllRAChbGvqDeGd+hQ4ax7dt2CGqov5jsdTz6W6KaRCA5AZ8fjH3Z4RgTjSdeniaihQtj2dzZ8zyJkf734sXf5Z9ihvt0vFbnK7iXEFZwPflMc8YHvfswjKsrRNqWDgYbVsDoizLsMNrPnScPxK1ablmfw7Apaei44luqRBl2//599CjLl59/vVji218v0CFSA9IELOvQ0ppSBacEsAdGx0Y9TURtW7dnv/zyi3JvVatRFXr3ft+n4xXLl558pjmraaOm7Mgx3zv9qTwQnQhctHAJmz1b7Wd50cM3mjpYd/RZfbccVn9IdKG7foHdtogOZsQuteF/BHx6EvUHd/b/kB/s2LvPNFM9JRBYm6ErVa4EH/br49PxijHRpOb3K+4RuF+xYvnK7MaNG8rjyFO8KG/QAoEjR4ximzdtUdpyUFAQ7DuwRyjeGzdqxo4dO6q0fU1YpUoV4MP+HwrpoLxxLhCjPyTV011sjhg+gm3ZvA3DrGQyg4JScT/vtYwxuoHUgO0IULDZziXyCpUsXpo9ePBAvqKOGp4mcayBumSpkjBs+BCfjdcWzVqwP/78S4dH3Fd56umnYN78OR65VShXid28eVN5+x07deQXajfw2L7yhk0UiPH2bmhoKOzas0OIG1af89TXsRFj2aXpLbKnrkxpfmnzHfxLmzNl5s8UbvbdZwqx44TkyxEQGlTkRFJpKwhgDpCiv461clh6vPjSizB12mSfjVcsbvwFE+AvmXjkhrVpvlSZUjB06GCP7VvRZ1S1iXFHnsx7xVix48tJ3xtvvslPtI/2GJdYbB1jr179etD1vc4e9VEVsyTHfwlQkPmI7+vXa8ROnTyJbo2niQBrkPT1K1uwuHnyV2LAYK30ZeHvJX9M7yVL98uSJUvAsBFDhcZnq2NH2jiBCpMnTmZxcasFSuorInqqvDc/4PSpCW/zalaI9lV9FlMtIvAPAaFBhWB5BwGswd8OK32pU6eGPft882WHhg2i2In4EyhBJjqRYO3ps/raDxSoDkIx+p2o3zBX12V0UM25Z4/32Reff6Fa7GN5MrZhrYI7Gucvr9egOZUECxGgpE8Ik3cUwjpEIZr0TeS/zlcj/jqXGai9w2P/aImRNGhyixV7HcZNGCvUx+vXa8hXik8pxyZzClV54yYJxPCfTKxjtK+hk9FBNeqmTaLZkb//Vi1WV9KH2UcdDfT1bSxoDiXBwgSEJgRhaVTQUgJm/CJ1NxF07dKNffvNt2gMrJyEsIxqEtWMHT16FEW8DK9u7/VgX3/1teV6oCiALBQj6RL13Zw581jsgljlFlq9Qos9lonyTQTbvVtP9tWXXynn7EygrG6mKEWN+AwBSvp0uvLdt0uwDBm0d0U32oZh61bt2W+/qr8jLykidwNSY37X2zGEu94S23/2+Wdh9uyZtuGtM3SSVcNIGLQGZD+Hz507ly2cv0iFSSlk1K5TC7r36OZTfktqJIYPRSf+Xj34Ky6fq3/F5Z133oFRY/57lxYlMNwIxWCa2FxgYCAc+GSfdDyadWmzpqeo/832C7Xn/QSkA9/7TTZmQUV+tcWNJFdb2Klzjhg+it8tpfa+MEda7uwtX64iu3XzljHAHmrbibdRQ2tUq8XfUL5oVIzT+hUrlod+A/pJ9W+siVY2AUUBgiR0wIcD2Z696t+HFY3zltEx7Pff/1BunWj7yhv+VyBWLGris2TODB9v3iDVNxLtxNQrKcvceXLx11BW6tIRyyck1zcIUFAJ+rFcmQrs9u3bKUqHpQuD7Tu22oLj0EFD2fYdOwUt0lfM3WSgrX7yP32CBWtZPRkJqumx2LKly9j0aTM9ltNbQA8nzAlNjz56bTezXpVKVdnVq9eUNhmeIwesXbdKaEypXqUGu3T5stL2NWFW+wszFvPnfxIWLYkV4usItnmzaPbXn3h7DZO216ZtK2jWvJkuPZUHBAn0GQIUUB5cKfJL2uoBMtGEenUasNOnT6MFZ8H8+WHhkoUuYwZzoE40KmvWrLBh4zqvj1tMVtmzZ4d1G9ZIM8LUKUOG9LBl22ZpndCCWZFgjDv6ihcvzt+ZHibECuvwltVjGmYsvvb6qzBh4nghvs7CpEwpfmnzXfxLm+2QfCvqJiTGRgR0B76NbEBRpVmT5uzvv48IyS5QID/ELnadDAkJUVAIezDyNBFgDtRJ8XjSQwFKVBFlSpfnN/3fQWtDLx9s/+nVCw2UAsEYr+G0btMKmkeLrfBg+cxKX439aDxbv269Au84F9GiZQuIadXC0NyHxd1RY1/eGoHmYBLsloChwPdFtqNHj2UbN3wsbZqVg2SistgDkScbsdtPtDMkdQjs3rfTK2O3OX9u7S+E59YS2eSJyAMr45brYtO2dTv2yy+/Sse+aIUn8uWDpcsW6dJNtA2zy2HEvKd+ltRGjPatvmancVQTduzocTRXyvB1pQT2obWk7ZYrVxYGDh7gU/0Gzbkk2CMBCqR/EY0e9RHbumUr6H3D1urVvsmTprC4las8OlxvgbRhaWHHzm0u42XsR+P4r/MNesVL16tUqSJ/DL6vV8VvTItW7PDh36VtlalgZEKLWxnHJk+aKtOcdFkj+kk3ZkIFjKRLhhFG+9nD+faA9fLbA1Thxt4bLMPXnU3YeiZtW5XOqnxEcryXgFdNmliYVXVeKzumKhtcMY6KagQdOrV3GS/Nm/INzn+Zs8FZ09Hq1QjZWOzT+0N28OBB2WpS5dOm5Yn5LteJuYgwjCTCsV0r+4kIg6Rloho1ZsuWLzV1H6son3nz5rMF8xbKmuSx/PMvPA8zZ023bG7AjkFRvh5B8QLYulLiJ+IFKiNDwLKOLaMkVtkK5SuxmzduKhOfLVs2WP/xWtOZdmjfkf34v5+U2eFMkKeBEjvpdKaTtzxb1DqmDfvtt0Oo/tGEe/KRiAJm3EWWMWNGW91v6fKHTsPGLJ4/j3fw0/1O+/Ty5SvYtCnTRbAKl0kVlAr2H9grNIZ06fQe++6774RlixYsW64MDBo8UEgHUZky5bATKRX9JNGeWtVrs/MXLsiYp7tsoUIFYUHsfMv8oltxqmgrAn4ZQJgJSvsO7aBxkyhTuWIPkmnSpIGdu7e7tQlbB1e9xu4bnWvXrMvOnTuH3unLly8PAwbJ3cvnTKlGDbREJx5d36zZssCGj9eb2k9kjEo8FJU+fTrYun2LUz1HjhjFNm9Sey9mpkyZYNOWj4W4YCXo7dq3hSZNGwvpIMNUtCzmWILxhaDEu6XYw4cPRc0zVK5jp/bQKKqRZb4xpDxVtgUBvwqeFvwi0z8QLjJ19KTKX5KeogQzgU1sW8QezIHaEwMjhxc8yTby72ZNBqlS8dWhg2KrQyL2mOVLq/fBumJRojifxB/8M4lH5o2E5Sucf95t17YD+/mnn0WQCpeRiWUsP4n0d2GDdBTEsktT5emnn4a582crn/cwdbZyftHhPqpicwLKg9+O9tarXZ+dPnPGNNX0PvMjq6BZA43IJGCWLu4Yiegpy1hPeX4Ygh+qidNTVVcd1Xab8UMi0dDg4GDYu3+3LcahieMmstVr1ibzgbv9bVUq8ouZr6m9mLnIC0Vg+qypQjyw+pzqeJIJ6tmz5rBFsYtlqkiVbdCgPnTu2kmIr4xgjFhw1X5YGH8QYKc9HgSQYURl7UFAefDbw6z/tMC+sNiVvSo21buSPW7sOLZurTknZWNiYqBFTHOPcYI1AcnEk+oVL5m2E8tWrVydXblyRU9VXXWKFi0K02ZM8egfGeFjx/CT2OvNiS9NLzskftWr1mSXLl1Kgalu3TrwXveuTvlixHx0i2ho1bqlkD8x2tcAWJn0vd+zN/vsM/VvCSc6FtM2LH8467vvFn8HRo6y7m1kmfGEytqLgNDgYi+V5bRZtXIVmzRpilwlhaVVDzIVylfmh09uKNTQtSjRJCo2djGbM2uOKTqJNJIv3xOwZNliU2M7im/6P34cfy9cUvuDg4P4KtkeFDvNnMASbSpUqBDfqD4PxR5XcdO8Kb838a+/XIaVu/6LwUhmvMBo3+qkT+QFJJExwFUZGb562sHyiTNdsG3RYz/VsT8BUwdYq3CY2RGd2Vi7Vi3o3qubIdajR45hGzduMhVhjVrVoVevnh71fr/XB+yzTz8zVTeRxviGZ+Abnz3qLyLLVZnBg4awnTt2GRGhuy7moG/W/ldH47WN9m3atoamzZqg+q3P+33ZwU8+8cjerkkfxsnhRBiYceUJePWq/C3hS+rfEjbLtlo16rDz5897MlPJv9v9EJsSI0mIcgKoA6tybXUK7NKZX23wrfqrDWTU0T5h1a1fBzp27CDFXHvB4Qh/Di4hIUGmOSVlRQf/6OYt2Z9//KmkTdVCtNXKZ555GmbOniHF3ZMe2qlcbXBnjHkqivLvDRs1gk6dcRNaK38saf2lbPnS8OGHHyrzm5YoLVm0FK5evSrsE7smfVj3Pj5ZoAAsXrxAGXNh0P8WxI450TFNVu+k5bFtSNpWzpw5YfXaOMv8ZYQT1bWGgN8Ei5kd0ZMrc+TIAeUrlIO27do45d+5Uxf2/Xc/eBKD+u8yg2PNGrXZhfPm3FVlxGgtASxVphQMGqTvSaNOHTqzH374nxEVlNTVktg589SfQHRULpr/4PgT8ck4URgZMmSE+g3qQnQLz3tLHWXOmjnn0Qr5lcv6Vo9c9YN58+bxi5FjRU0QLifa71rwH1p/IPzQahbdHNq0ibFsXsAcp9OnT8+v39mMbtuquNVs0sTJwj43WrBNm9bQLLopul1G9aT69iDgN4Fi1n1p9nCrMS1y58kNcatWCMdG6ZJl2b1794w1akHt0JAQSJ8xA2j3EKYJDYXQtGlAM/rG9Rtw585duHXrFlznpzPvP3hggXbOmzT70APmJKwHqnYyXpu8w9KFcZ+lgbRhaSCQJ/PaJetaDN6+dRuuX78Od+/eVbIK6yoJa96Ev0Dzt9oXaGRO/WP90BJNOvX4TqQOZrw9+WQ+WLzUnLefzTxAKBM3Ij6gMr5NQHhi93YMK1fEsSmTcd8V9XZGifrLDvyYA7WvMFVhhxV7eIYMHsZ2bN+hQn2vk5End25Yudr5jx+MmC9cuBDMXyh2kAXrYmbZvq/aqRhcE3V89dVXYOLkCabNeZi2OHIXuUBfta9InncSMK0D2AGPmZ3QDvbq0UHPiyLEVQ9p+TpWTcj+6t9KVSryPYV9TbuupU7tWtCtp9iBLyyfWBVjWm+YP38Bmz93gXzHEKxRv3496PJeZ9PmPLMXGt55520YNWakafYJYqdiNiPgVwEyYcIktmbVGpu5wD7qPPHEE7B0ufxVJ1gTkH3IWKsJxtNRshaZeWGzrG5Y5e16iEOzF6vPWZn0YR+4s8K2urXrsTNnzmKFaAq5VthomnHUkBICfpX0YQ6WSrxhsRC9AwbWBGQxDts0r9cvKg0YNnQE27Z1m0qRtpflb0lfunTpYdsO/IMOrhyf+N4xVmBY1Y/MHB+DgoJh3wF7vHCD5UeSa4yA3yV9I0eM5o+kbzZGzcdqG1lJGjl8JNu8eauPEbGPOVZNVM4IVChXid28edM+cJA1sWvSt2LFSjZ18jTl1r9Q5AWYMXOaZXMCdnJkVV+aM2sui41dpNxfrgRmypQJNm352DI/mmYoNaSLgF8GBvbgossTFlbq1LkjNGzUQFcsNOWnGI8oPsVoIQpbNW3VJOUOQtkyFdid27dtxQlLGVf8VyznSdcUtUmXzA+vfv36s3179is3u2q1KvBBn966xgEVymCPy1b2pzq16rKzZ8+pwCQko+t7XaBe/bqW+VJISSpkCQG/DQrsAcYSb+potHz5sjBA5711WnPEUQd0gSpWTlCe1PMHn4fw63x2793pdHwcOWIU/1qwxRMmqX/XrqDZvmOr0Hhcq4Z2Mbj6BKJDxw4Q1bihkA5SxgkWxo4rq/sUtn2OmK22V9DtVMxkApZ1cJPtTNFcnVr1+C8v8zbYWm2vs/bL8YRvoIGEj5I+9V4NCgrie3Jw3tNVqa3ZE5hK3UVk5YnIAyvjljsdHzEu6XbXnqO+WOytThKw7NL4ZQ8Ph3XrV1s6302fNpMtW7pMJPyUlNE7lixZstTtM0NNmjR+zDGxbNL/5kx50XJKDCchbglY2gms9g3mIGO1bZ7aL1S4MCxYONew//2ZoSfGsv+eIUM62LJti2GfyLart7wv+77oi0Vh2vQpTn1Ro1otdvHiRb3YnNZ7/vnnhJ8KxOJuZdK3Ynkc/2SOd49qtRpVoHdv6z5dJzq9coUq7Bq/PNysv+rVq8H7H/SSGlM8xVfHDu2hUZNGj2QmlnW3PSGpPCtjzCzmdm9HKhjsboysfkuXLGMzps+Ureb15cuXL8c/6fZX4ntPA4TXwzLJgJIlS8CwEUOV+MQklR8146v+r1y5EvTt18e0O/pq1aoJPXp1F/I/FnMrJ+QP+/Zj+/cdQAtdK21zNArLf67gGbG9bOnyLIElwJ69u1z2hYg8eeDEyZPgqh3NXu1iee3FHCO6oAWHnwkWGmR8mUm/vnxT9D71m6LtyqxNu7bQrNl/y/NG9TR7ADOqrx3re/tA6IsxYNeTu5iJtpVx2DI6hv3++x9o3dNK2xyNGjZ0OL/+aDuarY6CZQ4JOdYVSfqKvPA8HOa+S0hIgL37k18XU+LdUixrtmz8mcQboJ38t5MfTHOAzRry+6RP80e92vXZ6TNnbOYateqk4u+T7j+4V6m/R48c8+gxe/rTRyAiIgJWxC1T6hN9mhivValiFXb9mnmfrYxr7F4CJX3YhJPLx34b3W7JRiX+mVd7I9qsv2eeeQbmzJslPdaIJn0vvvwSLIpdnCKp034QauwTr3uymx/M4m+ndqSDwE7Kq9SlWuXq7PKVKypF2kZWaJpQ2LV7h3JfN6zfiJ04cVKpnZkyZ4Z8/GWQH374QalcuwnzxcEvpmVrdvjQYbuh1qWPXZO+Qf0HsV279+iyyV2l4ODgFKs0yhtxI9BXL2Z2x9DsV270jDmiSd/0WdMDtASvQsUK0H/Ah4/mmq5durGffvwJ9uzbRUmfmZ3JQ1vKEwEb2SatCkYSI62E4gplypaBwUMGovi5Kk+UryhOlIu98RqMGz/ukb5lSpdjd+/cVUzEWnFFihaB6TOmovjDWsv+aX3lilVs+rTp8PDhQzuoo1sHuyZ9dflXiTMIXyVKlyoJQ4YPsSwuMbcIaPvJtMRDdzAgVezzfl928JNPkKQ7Fyub+MkkfdoBp2vXrj3+8VCyeGn21ltvwohRwynpM9XL7huzXUewmk33bj3YV19+bbUahttPmzYt7Ni1DdW/2oBw584dw7omFRDVJAo6dGj3WG9fef5L5koOpUAtEtaoQWMWHx9vUevGm3U1Ofbt048d2K/+wIHoZFylUjV29epV4wY6SBBtX3nD/wrETPoi+PU7K1xcv4Nlj6jcMqXKs7t31Y6h7trOmjUrbNi4TnhekEn6tHYTP+c6/m/6vCsaEfjlhJ2Pr4p9Wpg+dQZbtmy5fRSS0ETbu9eyZQto3qIZum8xPk+4mnwwVhUlsOoqqm2gzpgxo18/iVSOv+Bx28te8Hj+hRdg5iznz5FVKMuforul9im6PLlzw8rVK4T6K9ZnUF9O+l599RWYOHmCEF9dHd1gJcyE15lqtWrzk+I9xU6KyyZ92sGN9OkzQEAAg9u378CuPf9sK6Kkz2CQKKxu246g0EbdoqpXrckuXbqku76ZFbUEo2mzJtCmbWvTfIoxWHmafKpxn1z2Ap8UKfoC/4xr3TumZsaeSFsYPxBE2pUt06p1DES3aO6yD2HEfOWqlaFv3w+E+i1G+xojT/1OlqNseSy7ND2q1+B31fWWu6tOVn8j5Xt278W++OJLIyKk64r6WzbpmzNrHn9nOPaRPknboKRP2kVoFYQGGrTWvUAwP5HE5s6Z9+g4uh3/tFvXa/A7vrp162K6LzEGatHByOzTbyK+1zbDV+QbmXv3ed90X4joZ4cyGFsCjNqVNm0avhViu5DPrIx5zU6M9q1O+qZMmcZWLl9p1I0u64uOKWgKCAguyVfIHpi4D1Z0n6Ns0pcYo47XxFDSJxAEJhURGuhM0sXWzUyaOJmtWb3WNslfoUKFYEHsPEv9p3oC0nOf1JTJU9mG9R+D6r2FosGYOjg1lClXGj7s19dSX4jqa5dyQ4cMY7t27rbswEfu3LmgGn+tgK+OS/mtaZPmbp+o0sN38ZJYYR3q12ugvH1N57hVK4V10GOjuzpDBg9lP//8s2qxj+VZaZuMUW3btGeHfzsMDx4+kKmmu2w2fn/e+o/XuvW7Fu/agsfSZYudltPi8enCTyU7BNQqpjV7Im9e6D/wvwcAopu1ZLdu37Q0znSD8rGKlnV0b+ao7Vuw4nSiu0fgzeY5ZcpU/us8Tmmzor8+XTU6e/YctmjhYqU6ORMWFpYWtu/EPSSDboSNGhg9ejTbuGEzukYFC+aHhYsW0piHTpoaIAJEwK4EaAA04Jm4lavYp59+Cj98/z+UFYtw/kh4sTdeh94f2O9zYaeOnZlmt8o/1SeO589bwH777RAcOXIEzp45C4yJL5IEBgZCzpw5IA+/QLlQoYLQoWN76isqne1G1jzut8OHDsHRI8dAu55EZmuFtlqci6/i5eUrDYULFzJ1j6tJeKgZIkAEiIBuAjSR6UbnvOLoUWPYZ599DhcvyD3IHp4zHN56803o2auHV/gE41RmgSefhNil4p+6FLuOxBEBIkAEiAAR8GkCXpFg+LQHvNQ41fv5NAxNmzWGtu3aUkx6aUyQ2kSACBABImBvAjTB2ts/ttUOI+nzhlN2tnUIKUYEiAARIAJEwAMBSvooRHQRoKRPFzaqRASIABEgAkTAMgKU9FmG3rsbpqTPu/1H2hMBIkAEiID/EaCkz/98bthirKtR6POuYdeQACJABIgAESACLglQ0kfBIU2gRfMY9scff0jXc1chLCyM3323leJRKVUSRgSIABEgAkTgPwI0yVI0SBMoV7YCu33rtnQ9dxVefPklmDp1EsWjUqokjAgQASJABIgAJX0UAwYIlC5Zlt27d8+AhJRVGzZqCJ06d6CkTylVEkYEiAARIAJEgJI+igEDBIq/U/LRe4wq/2g/n0qaJIsIEAEiQASIQEoCtLJCUSFNgE7uSiOjCkSACBABIkAELCdASZ/lLvA+BSjp8z6fkcZEgAgQASJABCjpoxiQJqA66QsICICDn+6nWJT2BFUgAkSACBABIiBOgCZacVZUkhOYNHEyWxW3WikLuq5FKU4SRgSIABEgAkTAKQFK+igwpAi817U7++brb6TqeCqcI2cOWLN2FcWiJ1D070SACBABIkAEDBCgidYAPH+sWqtGbXb+/AWlphcsWBAWLppPsaiUKgkjAkSACBABIpCcAE20FBFSBFTv59Mar1GzOvR6vyfFopQnqDARIAJEgAgQATkCNNHK8fL70hhJH93R5/dhRQCIABEgAkTABAKU9JkA2ZeaoKTPl7xJthABIkAEiIA/EaCkz5+8rcBWSvoUQCQRRIAIEAEiQAQsIEBJnwXQvblJSvq82XukOxEgAkSACPgzAUr6/Nn7krb36d2XHTz4iWQtz8VpT59nRlSCCBABIkAEiIBRApT0GSXoR/VLlSjD7t+/r9TinLlywOo1dEefUqgkjAgQASJABIiAEwKU9FFYCBPA+LRbpmxpGDwGC2HyAAAU7klEQVRkEMWhsBeoIBEgAkSACBABfQRostXHzS9rYSR9nbt0hAYNG1Ac+mVEkdFEgAgQASJgJgGabM2k7eVtYSR9tJ/Py4OC1CcCRIAIEAGvIUBJn9e4ynpFKemz3gekAREgAkSACBABvQQo6dNLzg/rRTVswh48fADAmGHrHz5MgIwZM8D8hfMoBg3TJAG2IDBrltOO8Wq2bPBNnToU57Zwkr2UeHv9eva/ixfhjRw5YFfVqhQj9nKPT2pDQeaTbvU/oxrt2sW+u3ABzty+DTf4CePQVKkgY+rUkC99eiicMSMsLFWKYt3/wsJUi7UJ/MTNm3Dsxo1k7cY89RTMK1lSWfxRrJvqVrTGwubNYzcf8B/RiX9t2yqLETSlSbDXE6Ag83oX+rcBORctYlqip/2lCgiAnGnSQDj/v7sPH8KR69fhNv//Sf/CQ0PhXPPmTuNem7Q/PXs2OVB/HogdVq5K5MoF+6tXpzHDU5dzXPFTFEMU657Ae8+/t96/n805dCiZwhUjImBblSrUv7zHjV6pKQWYV7qNlH5E4N/JNTgwEO63bu0ylgssX87+unbtUZUgnhg+aNPGadmMCxawq/fuUdKXSAApefHl6H2L/3D4DOOHA8W6T4VNqY0b2d5Tp2is8SmveocxlPR5h59IS0cCSRMSgZWUxE8pL2TJAj/Vq+c87h2SnIiwMDjRpIlf9pHme/ey2N9/p0lJsuelnz+fXU9ygbkWPEwgPt02Q7Eu6QUvKZ7Er7SK7iU+8wE1/XJC8wG/+bUJmfiK3JV/V+Ry8E+5Z5s18xjHTfbsYUv++AOaFy4Msa729zkkfZUjI2FL5coeZfuiM15cvZr9wDeYJ/szmrz4Iih3P0b4v+Xne0r/jorSHUMU6/4QNGQjETCPgO7ByDwVqSUi4EAgSXL2Cj8Z+a3gyciQOXPYXTefgRM/Fz9uzY+TnEesEhIeowjk/yvBj3kI90GHHw618uWDdRUq6B9nKdaF0VNBIkAEPBPQPxh5lk0liIByAtW2bmUbjx9/LDc13893z10i50GDgny/35//7vfzqGySpOeFVavYT5cuOa+SpFxTvsJ48PRpOH3rFqQLDoZC/CRxHv7ZeM2RIx7rJivgkEyIngitt3Mn+/b8eTh/5w7c5icF03Md8qZLB8/zz9xLy5RJ2f9dXDviqGzSvZF1duxgKPa40CWE+zxp8v7a2rXsz6tXHx3a0Q7yHG3c2OW4pq1gxvPTtdrezbRBQZA/Qwb4oW5dqXHw5TVr2N88Zu7w9p7gLA83bPhffYX7IO0S6yl+DCUNhiSxXmHzZvYj7xMXeaxl5QemTjdt6pKrZpu2knyBl33Ir4DKzssXzZpV98r6S9yvJ/nJ6Yt374I2JmTgJ/c133xVu7bQVo5Ekxxj65mVK5l2GjsNvw3g6UyZ4NOaNZ3K08YR7eS2dmvAq9mzu75+xUVMP5c5M/xSv34y2aL9qvb27ezLc+ce9XGtf7+TMydsqFhRKqaTulQ70KbZfImzvM9/+GkytVsQvhP8ce1xHKUClhLQHRiWak2N+y2BpIcyEiFk4IPStZYtdcVy8Q0bmDbpaIPmA4f7B1/ng7d2SCTxL+mAn45ft3Aj6XULTibCVLNnP5Kd9E+7s+1pPsAf4UmDNkEm3f/1qJyr1TTJZCLLwoVMG7QT/7KEhIBmj6bN9/xqm3N8gtD+HFfwtAFfS1D/5iefk/5pyVQBniAl/mmJ4/KyZR8x1z6do9jjYoIswhPWH/m+TJeJtwNDx03zb4SHQyaeFOzmG+m1SS3xrwW/WmWBm6tVQufOZVqi5+wvqmDBR0n1uqNHk/+zgdVRu8S6p6RP+2Gx6u+/U2JxYnsGvufx2r97HrPymHybJyi/Xr4MSX945U6bFk65SRgTG9KSzO0nTngeC535wENsZYuNZVpC6vQviTxXMeHqwJjWv07x/qXdLJD0T4ufZQ4/wjz9sIzavZst+/NPpyrKjomFV6xgv/MfTkJ/BmJaSD4VQiWga6JE1YiEEwE3BPIsXsxO8kHT1V8ePmGUyZMHFpUuLRXbAXwSSJqeaatAt2JiPMrIwa+MOfvvlTGPddIGRS6vSt68sLlSpUcyEhPAVk8/DXNLlHj035za4mRAfWPdOvYFT0qT/bkYeFvs28cWHD7ssWz1bdvYx8eO/VNOZFIUGOgx7HF2oKQS32uprbRpyUPialKyCTKJrkmTDKe2iibTDuWS7tWL4czncebaiohwEi/Qy+0W647Jn7aftnTu3LCeJ7qNeNIynyfMlbdsYVvi41PElXa34PK//nps9Ut8Ve/7JCusT/MVtUNXrjz+d+2OzastWrjsf2n5j65b//7o0n7QXIqOflT2yWXLWNKEKhtfQbzg4oomZ7H1JF/ROs/7c60nn4TFfAwp+fHHbB9fqU/6V4j/+PmjUaOANPxHwO1WrR61W5Sv/P/PYeW/Ku//m/7t/yncLRp3vGLkkiUsnq8iJv17lq86Pst/PK4uX/5R++/yH68Hz5zx2O8d9ajE/bU10V/8H7VV0nr58z/+CuC4zcPleCEQz1TEHgQ8Tmr2UJO0IAL/ENBW5g44Dm5u4BTjqzpf1qrlOc4dBmHRes5+6WufeO78OxkkU01rI2ny5NDmo6TByYql01VFFSuCvH1nupbh10loq2DJ/gSSPsekQIk9mhIOnLT7GN/lK0T7HO4M1BJrLQE4/+8k73iStiz/MZDi1QMH2fn4CmaKz8MCp7qdTbqZeeJy2U3i4qlP2y3WnflBS/wcV+UeHwJyE+uOPzQSE2eRmAvk/khcn3VMHuvzVce4JKuOZXhSurtaNdf938G3WkHH09ap+f7We0lWhDUdtc+9iQnfY50dZGmfl4852WpQmvevPRL9y9kXg5Z8VVpLslOML0n+Q3HeRw7UqOHS9md5ov1rkkQ7km87iXe4rcDp9heRscBTcNO/W0bA82RomWrUMBFwQUBw31nS2h431Ev88nY30D76NxeD4qOVm6SfrRzafJMnqJ87S1AdymmfVo87mUwcVys97XcM4knSS/xz89cO+56cftoSGej/3975vVpRRXH8QA8+VNgPUiwpy1RCycgkKsEEjSAfjAJvGBWVf5UWRglqJD0IRkUSWT6UoGWlpA8FRmaXghK6ZJ7W93b2Zc6atWbWnDtzzla/5/HemT17f/aavdesvX60PB6ghL/SQXVkukSsuZa/GKx9sH7sl2PncKJt1WcdDd6IhWrrSUlmrRXTxu90xrJuKUhpfLMWtxS1rMaQLGVFFqb/miFzkNnkhmEp6KvkmPJM8ZiyQm4t2bKUKUvpi1jHvZRPjWTK+OgxFU7jOrhzeD6NWuHzPlRHPQFpLOe8YWwEqPSNDTUf1CaB2aMVx7/KfY6zATSxMpTaVhsajpeHFLuqQUcVTXWddWy0QSygR5UFtFbR9fqmngd/vl8CaXHC0c+B8QwpD8r/yfV7LI4nYMGZvVxdh6Otd7dscQMztKN/5QdARFEOvBQ5yLrlNvC8HIGm40VvGJZcWvMXsWaXjrsNvkUrYNUHGP6nj4Ld60eUJfe0QLVXdQRtyajLXbW7bdmy3vtG5PgO8QXcq30BgycH7odpQI55SR4EqPTlMQ/sxYgEEEmJwASz0r1q08uZhjZQt3foF92wo4qb6st8Ft6IlaFuw6vErcYUKQ/V+nhSB1VfKpWuwT1T4j+2r+A/hj9bSblvlXyPvxcqsOi2rVyF5hGxtP+sWCTbDOKw5meSsj5y3kbLUqnerdelJNluVZLsheXL5wKF5lgU2nKPzpu8j+raaJtrJZDopJXgXbW3Q/wcIxHyTY+g5x3sFZgTi/m81pQR13fe1j4BKn3tM2WLEyRw9969/Z9UwfvUHe84atScdBvFyftT5eQdskJJh/TxiregRo+9zAjLqOKq56vJxjm4t/XxOEoffPk+q/BTwm13SOQl0lcUfzoyt5j0GNdZSb710VbVpqcDEcaxQY5T1vURZ53rgKs04B8FubQCJV5csaL3jgrE0gE5JYusIS+1HwhKzhGU8onl/6euM/3p8PzoexO9TpqMBnFFPzqsI+2HJKjGSlv0ilTl2cOqPBPczbp5NJW+briy1QkTeFD8u5ASpfiL+sIgH9fp7dtr3w1dq7fKx0njsJyzLYVxheT/+kHnEVTK3KsSPfqmitj1gijqpsXaFCKKbJvjGepjgw2yUtEwBo50NQ+LT+NXXv6xBhYRfaxYVw+6bh6a/H8csq4VGqQecrkNOm+6TTgDQwAO3BbcqPuoHBSuw9xW5pYboU1PmY/W0tVRzHUfB6l8ZMKGIKZ/jdrh94kPpU6zZL23ur2q51sRyZG1oIns8trxE6jd2MbfJT6RBNohUHT6RovRY5kpOVraN8hBV9kTtWncL6kczkoqh1Dv1b1W5Bza0cqElUpGp13AfZFN2epndPMo3dvieFLbSGz9tpTOG/pFrJcNlLUm81u5QatnplyCIVlo4aJxy3ox9ZDX/aclj94HKo8eUo18F/igqpMvS/nQbhquRU4aj8pW1NKm82J6shK1iM+NX8mVx09bpSszCGi4zjulP+TC1t0W5JlNdEcgtkF193y2TAJxArIAIkfb4WA93NJXbdBZOfw1qxbkiGO7t5hvkXQiH23dWn4f1TOsiDwrxcqodYP15nGj5Cu8FMhXqC1B8xlPYrTmwIH+KUncezUqfS/JEWXTXJFD48xc1iPviJXGJqIs6gXBTP5cE9lbqaDLP6OypdcQ15qv3lMvclcr514SZ2+dMH0dcbF6vvvR1+SDSF2r0+PEF25emRMBKn05zQb7Uk1AFiGUa0p52GpxFRYt71jEzOofsSYZC21kI/QW86hztrVpWsdolYlhB32P5K2rSvuglZSQcqY2kiolQG+QrvVCC0KTjU3u3XzoUP/j8+d7L69c2Xtr0yY3ctdTJKJJqWvltXhBRrIeTn+jBrhdAmr2q4AaN7gh3Svj1u+q9ldzFaXoca08S8uW6/+n2kRVmnOWNV9d575/6ro1kmLolCq/1ul7FXw3hpK3DzpUZTltJNu8eKIEqPRNFD8fHiXwlBwVfZiOigJKWWnRcu5Bbc3vCwlK9cY+l0hV3T9UeSANItCvJkpfJI2F156VCy1di4TSKD9m+QZpi0Fpk5ZNA1UL5nKwFTbrOqWv0XgMpTp6ZG0GOFTNjYzJqgChFQNP6Ws1iEYekpus63lr4ruq2VQdez8mlWeOofJMTYUYXToQ8/Ko3ItSinUy6L0v68T/77jl26mUpOckTc17gyoYbShnVUpw9IN0p0Q/71LRz9GPyHHJdHSd53XdE6DS1z1jPqEFAsWITM9qlx6jfYncSD+5YbUcIX5bcYSI404Uj9elnJZIomXUqA1vMpqB2kyeWLx4qJg7rCtWPWBvMY+WYZpTiIJH3cWo12QRq9uUMdT5jmcWVwOrYEnEgj52UIBRH/mfnTtLa6HldF8M8kHt00NSyi7Vkh1ZFlTnc5N1PQ9NfFcjgUgYflJ0N0kE7ZFABG1JBtV8mx8mRc7q+tekwsUbVt3lgPWwUfBToL3UTbfEo5KX9QcP9r+8eDG0FlkZB/RRNJR8vBOlPKhNPmpbWPPZRDcEqPR1w5WttkwAStCxCxd6qfxSah5Z+RdJ8mDU4Twv9SmLedfCR8FqIV65cGEPm8YRKZV0RRa/y0a0nN4IaxOsKh5W0tpFolwulfGgruwfUr7LsozB2rVASkB9vm1b6d21fPsQwYggEUT2fSPRzHU+ejoRMKJQ4Z+HYuxnpV8bJGXKUSNlShfjCafAcGRNB8HAmgd+N8iYTgkLFL73SmWlJksVHgrPmpvzoD9X9JXIXdYb+a7KoC2Gq+VYE0elP8s7e2J6evY9u1KhVFjpQ5A0/C+pv3yvtIMgg+OFXJtwBbhL5N48ijU+KKwPmailzQp+QtDYTVJWsfieWhG+q2StgRxZ77OWf289s5J3r5dqHGBitXuPpLX60UlrlY65dXlJy7oalWdelxcBKn15zQd7EyQABQeKzLTkY7skCh/8fG6WTR2b+FrJO1WqS1nTLiL/zolSg00Eig42jMfF+oai6+ataqP3kvbWDQcLMJQPROWi718Xk75a/jfSYJ3zNyIToSBfkMLxUIah7MBC9YWhKFr9g+UCloNf5X6UvML9D8j95sakGmhrPI2P6ypAI6UJcjf+KXOblAGUn0O5trr5Sf9HcmLIx2U5FkcZvDNTU67vX60/ZfShg+tyk/VGvquFsT5z+HD/hChm0zMzPViSbhG5WiVyZX1EeIgekfcU7hhIxg6LY3pfTKsYGjEUyahsRS1tZj7HNIDC82/fs6ePsZu/miNt3OOuMSOuE1jzzsrH3IxUNkJpw81Ll/Z2b9z4v1wHLeUNRZmXZ0AgvOhl0Fd2gQRIgARIgARIoGsCDY6hu+4K22+XAJW+dnmyNRIgARIgARK4agno3IR1PtRX7UCv045T6btOJ57DJgESIAESuM4IwIJXF5BBK981LRRU+q7p6eXgSIAESIAESKDXS1G+VVVRdE3qUZJpk3XeBKj05T0/7B0JkAAJkAAJzJvAgl27+jMSiIQfgsHWSYTvnRLA8bcEcpyUCGoElKVfbd3iefeGDUyKAJW+SZHnc0mABEiABEhgzARQKeW05Cb9TTIfIJq4L5HUt0naGET4mzkSx9w/Pq5bAlT6uuXL1kmABEiABEiABEggCwJU+rKYBnaCBEiABEiABEiABLolQKWvW75snQRIgARIgARIgASyIEClL4tpYCdIgARIgARIgARIoFsCVPq65cvWSYAESIAESIAESCALAlT6spgGdoIESIAESIAESIAEuiVApa9bvmydBEiABEiABEiABLIgQKUvi2lgJ0iABEiABEiABEigWwJU+rrly9ZJgARIgARIgARIIAsCVPqymAZ2ggRIgARIgARIgAS6JUClr1u+bJ0ESIAESIAESIAEsiBApS+LaWAnSIAESIAESIAESKBbAlT6uuXL1kmABEiABEiABEggCwJU+rKYBnaCBEiABEiABEiABLolQKWvW75snQRIgARIgARIgASyIEClL4tpYCdIgARIgARIgARIoFsCVPq65cvWSYAESIAESIAESCALAlT6spgGdoIESIAESIAESIAEuiXwH0LhrOZXuQRMAAAAAElFTkSuQmCC;" parent="1" vertex="1">
          <mxGeometry x="860.06" y="-93.9" width="207.72" height="105" as="geometry" />
        </mxCell>
        <mxCell id="-n0s7fdAZKVhsjs20yD8-55" value="" style="shape=image;verticalLabelPosition=bottom;labelBackgroundColor=default;verticalAlign=top;aspect=fixed;imageAspect=0;image=https://upload.wikimedia.org/wikipedia/commons/thumb/7/77/Apache_ZooKeeper_logo.svg/2560px-Apache_ZooKeeper_logo.svg.png;" parent="1" vertex="1">
          <mxGeometry x="136" y="583" width="131.5" height="71.06" as="geometry" />
        </mxCell>
        <mxCell id="-n0s7fdAZKVhsjs20yD8-56" value="" style="shape=image;verticalLabelPosition=bottom;labelBackgroundColor=default;verticalAlign=top;aspect=fixed;imageAspect=0;image=data:image/png,iVBORw0KGgoAAAANSUhEUgAAAUwAAADQCAYAAABsvVjTAAAgAElEQVR4XuxdB3gVVdN+03slgUDovVfpTUCaFEG6SBVE6SrYUUSwgCAgoFQBFVCQKh3pIE0EpPfeSwKkl/3f2Xs32bvZhKufnz88365PTLj37O7ZOee8O2fmnRkXWIclAUsClgQsCTglARenWlmNLAlYErAkYEkAFmBak8CSgCUBSwJOSsACTCcFZTWzJGBJwJKABZjWHLAkYEnAkoCTErAA00lBWc0sCVgSsCRgAaY1BywJWBKwJOCkBCzAdFJQVjNLApYELAlYgGnNAUsClgQsCTgpAQswnRSU1cySgCUBSwIWYFpzwJKAJQFLAk5KwAJMJwVlNbMkYEnAkoAFmNYcsCRgScCSgJMSsADTSUFZzSwJWBKwJGABpjUHLAlYErAk4KQELMB0UlBWM0sClgQsCViAac0BSwKWBCwJOCkBCzCdFJTVzJKAJQFLAhZgWnPAkoAlAUsCTkrAAkwnBWU1syRgScCSgAWY1hywJGBJwJKAkxKwANNJQVnNLAlYErAkYAGmNQcsCVgSsCTgpAQswHRSUFYzSwKWBCwJWIBpzQFLApYELAk4KQELMJ0UlNXMkoAlAUsCFmBac8CSgCUBSwJOSsACTCcFZTWzJGBJwJKABZjWHLAkYEnAkoCTErAA00lBWc0sCVgSsCRgAaY1BywJWBKwJOCkBCzAdFJQVjNLApYELAlYgGnNAUsClgQsCTgpAQswnRSU1cySgCUBSwIWYFpzwJKAJQFLAk5KwAJMJwVlNbMkYEnAkoAFmNYcsCRgScCSgJMSsADTSUFZzSwJWBKwJGABpjUHLAlYErAk4KQELMB0UlBWM0sClgQsCViAac0BSwKWBCwJOCkBCzCdFJTVzJKAJQFLAhZgWnPAkoAlAUsCTkrAAkwnBWU1syRgScCSgAWY1hywJGBJwJKAkxKwANNJQVnNLAlYErAkYAGmNQcsCVgSsCTgpAQswHRSUFYzSwKWBCwJWIBpzQFLApYELAk4KQELMJ0UlNXMkoAlAUsCFmBac8CSgCUBSwJOSsACTCcFZTWzJGBJwJKABZjWHLAkYEnAkoCTErAA00lBWc0sCVgSsCRgAaY1BywJWBKwJOCkBJ54wIyLi1N8fHye+OdwcrysZpYELAn8P0rgiQKay5cvK0ePHkXNmjWxYMEC3L17F+3atUP+/PlNnyM5OVk5e/YsDh8+jDNnzuLixSuIjY1HcEgQihQugOrVq6FcuXJPlAz+H+eKdWtLAv/zEnhiwOLChQvKokWLcP36daxZs0YFzS5dushvh2e4du2asmrVaqxcuQqrVq9CfFxsloNcsFAp9HrpRfTu3Qvh4eFPjDz+52euJQBLAv8PEnhiAGLXrl3Kjh07MGPGDPTv3x/9+vVz6PumTZuUKVO+xsKFP6WJ0cevGOrWLo9aNR+iaOE45Ag/Bh/veNyLSsWR48DS5fHYujVBbe/lFYhRoz7AkCFDnhiZ/D/MF+uWlgT+pyXwRIBDamqqQlsl2rRpgz59+qB169Zp/T527Jjy7rvvYsmSJepAZgv1RY8ePdCiRWfUrHoRbt7y+U7+XONPsm6wXfm3D04e88T4SS74espd9bvKlavg229noXTp0k+EbP6nZ6/18JYE/mUJPDGgMHfuXEVsloMHD07r8/jx4xX+WxVZsaIFMWzY6+jc+Vm4uBZ0UZTRClLeBOLtOGl8UoWfu/PHT872wKE/A/D6YDf8uvGWer358+ejU6dOT4x8/uV5Y93OksD/pASeCECIiopS5s2bh27dusHPz0/tc9euXRWCqDpokyaN5ha9K//yV8EPcROBhKGAKJHSWsBR+y0n6J9a+y5AvgjB2HFhGPLGGf6diuHDh8vPEyGj/8nZaz20JYF/WQJPBBicP39eSUpKQpEiRdT+Nm7cWFm7di3KlimMRT//wM+f4qfHgKQ4gmEEAbMR8Y7/1j9dVoApFxXg9BW89cX27YW57b+G27dv0V46kIA88YmQ0788d6zbWRL4n5PAEwcELVu2VJYvX07QrIlVq5bC1ZVqZPIJAh41S5dg/r7Bbfgz/M29uNk23Khd6jXOVP5DtNIAd9y7UwPt21/Bho1nCJ7t8P33s9O02/+5WWI9sCUBSwKqBJ4owBw5cqTy/vvvo23bFli0aAXtlPEKUi8AKW58lBg+DdFOIerFN6eGeckGfpr2mNnTaltyfTs5z9+bGuszePPtcxgz7ggKFiyIb775Bo0aNXqiZGbNc0sClgT+OQk8EYv/558XKdu27cH48aP55D744Ycl8PTKgWwhF1Ctsh98/DwJkLkJmGH8CQRi6xNENzkC5qOeVIBTB6oK21+7VR258pfBG68dwrgJu9SvBwwYhK++mvCoq/1zI2RdyZKAJYHHRgKP9cJfvXq18tJLPXH1qlCCgBIlPFGufBCqVkyGu+c9lC0JVKvkSvDkdjy1OAGyGuD5Lv8+QjvmszbA1Dt8zJw92lDoAZPnJST4405UHvj7xiE+xQ/LfnHFrNn3sWvXBfajPMnzy5AvX74s5UeSvRIREfFYy/ixmYlWRywJPAESeGwXM2k9Cmk9qgjHT1iKDm03ICJiFkFQiOYp6aJN4p9CHZInUT/2IQt9FP9ea/vRO3vka6ESiXOH/iEk8ke/bXfwqPMfHnYU5SVtHvgi+G5uKLp2+5X2zBDs378LxYoVyyBDAcouXbpi/fptCAnNjTde74r33x/22Mr6CZinVhctCTwWEngsF/H06dOV3r17qwLatPkMnq77J/9qpROYoJ4bYm4lIJbAFxrkjeQkD7h7xMDNlTZMcd64FaN2edqGopr2yN26HLu3EPoK87xs/IcArt6OqR8Wo3YqnE3XSlj7SwSatFiJkJBsOHfuDIKDgx3kWLlyZWXv3r0okJ+4zMjM6zeBhg0bEkDXP5byfixmotUJSwJPgAQeuwU8ceJEZeDAgarofv31BOrXP0kNsgVAH8yWjWFYszYehw4mwMsnACWK+aJ8uWKoXjkJ/v5nEOB7g4DJaB4BTO3QnpA8y/VrgK8me6NVawUdnk+An5cdMLU2j+Jr0reUzMu7Bz2LUR/dwvvD99Jb3xRr165Ok+OkSVOU/v37omN7b8z/MRSnGUk0cPBdrF53X3UavfLKK4+dzJ+AeWp10ZLAYyGB/7fFK2R0hjVCNLHjx0/g2LGjzCZ0kVmFhDQOLFu+Fy1bUCWMoaZIrvrwj0Lw0fCH/CYRXt6hmPhlOVStEIq8ec/C1+8EvDyoysmWXANLbXstIBgEzPoWePnlcMybF4L27XiPWDaWLbk42OXQ2zANDqC0kZJry87cJS81zXqoVGEJ9h+4jwsXLtKemddl2bJlynPPPce/gfPnIzBlfAgdUifRo3chuLicRPbsuXHz5uX/N5k/FjPO6oQlgSdYAv/q4hUC+vIVK7Bi+QrZnupQylGC333/E7q82N5FifZWEBiP5UsD8FxrN3h7p3AbnIKjfzRFUFAqHt7fgYAg7ncFyGRrbdQU5bIERLF61qwTgPfeKIvWnf4AHphkMDJzDhk1TgFLV3ecOUpvvFsVXLr4EM1abUaNGg2RkuKDTZuWImdO4PIlPzy8WxZV6pzFulU3kLdAQbRolopfVp3HkSNHUKpUqX9V7k/w/LS6bkngsZLAf2XhKkoKoSaFWpWnen2mY1MzCS1fvizt4T3c3VC5SllUKF8OzzxTE6PHTMRvv/3JbetYblvfcFFiKyhQCG6+3vALcMGLHYvhzNl7aNwgDEOH5kXU7Y0IDo+mpmi/pN65owdOKqkH9wCr1pfFO+8xwUbMZZsmqm9j10LVK/GSaY4gTfMk6CqugTh0rDAGDtqPrdvlC1c0bhSJU6eicfbcffXU4cPd8eGHuXHrak5UrnoTw4afwUsvyTehmD29MHq8vAcdOnRCz57dERMTo5LuXVxsHZHfxh/j5/qZw4QkqFevHl8i3v+VMXysZul/uTMJCQmK7GyYiPo/upMkiMmWLRty5Mhhjcl/JMnH9+T/6sAyfFEZ9ckn2LqFXhYeERHZ8OKLbdG0cS1UqVwa/kFhBIk8Lnv2rFCqVGmBd97pjU8/ne6iJAxV8HCM4AxmTnPH+K8KYvuv+dG770mM+KAs8kbuhG/QbRtYGoHSSEQnYB763QdJ8flRqSbDJQXb5BwBTdEYxX/E49Be2if5WcXy/Ids1fWS4d+Ktzf+3FcS3/7UGTduXMH8eePU89zcXDCgfxiaPeuHnBG+mDffHT/+dJ12y5sYOIANyKeHnysO7K6Kp2oeoiYqH/znR0hICPtxA56etpeSdfx9CUyaNIl25/5wd7dPBt2lUmi01iw0md3BlSPg5u4BCd+dPXs2unfvbo3J3x+Ox/rM/8rAStmI3r1fZjjhd+rDV6pUFm+/1R9t2zFkEdyzqigi3MpidJh8jyZNeqJtm0aMC1/noqRuUhBdz2ZbpKOmXYdQtG/B7e1TPli+xgWd299ESNA+uGi2SpnNmh1SYxvpn4rfxTwMQarii4DAK+lecdo15fhlmQvmLVBw524BTJ/ugbw56WQSypH+GnIPOogSuLe/G5OIZcv+xKuv1uKHcciTOxAXuQVfsigec79PRUSOaAymz6pYKX4tJle73TMuqibKVzuPk6fYh3/gEMoVqVf/lfH7B7r3RF2CaQOVn3/++R/ps1QEKFmypDUu/4g0H7+LPHJgJRclt44Z2qWkpChuol4ZjhMnTihNmzaFlIbIkzscX47/nHksW9oQBxcJWA8IRuJqLqPyGCtVakwbYEXs2MF9sxgiH1S0Jc4gWB49CHz3YwW8NTgPE2GcR0JiLkTmPITg0Ks2w6R2d3e60OVIJiHThCKUmuqDxGQPeHtRvZSUmAw5v3fPFc80BPb/bkPeggWzYeG8CqhY9RD/RbuoYLq01Xiaci8fL5wgJz4mPgElSgXj66+T8Nbbnrh1ORHBEQbNMUp3Lnn18KlAZ1MSFi46bDoLIoqURNPRExCXkAIlhX3SqzWiwXi6wzUpBT+/0glx96OYEGSSJFJ+5Pg9flPu8etRgQIFlHPnzpl2rOmHn6FIoya4f0PG13FySRRuttwB+PXTj3Fw2UIULlwYp0+ftsbk8Rvif6xHmQ6uaIk7d+5ErVq1mI3cS20nIDlz5kzVcTF69Oi0z7Xe7Nu3T6levSa3Jgl49ZUuBMsRbMPsQWB680RJhiHIwf2uRwE8iL6PwOBi1Miy4dr1P7k1z0W75fsKEkbaQIpb6aU/+yE2piFaNr0K/5A9uHmlFHx9rpBCRDQSMJNekRt5cH8Rnp+EshXO24BOf3COyzRX2Ng1lX8RLO8TN2vUcOVz6PlHBM384Zg+MyduXT+GJs8kIyiQ7cWZJM1EI6UGu+oX/kr1QECIK+7d9cTzbRLwx+4klK/CtjZTpu3Q20hVsnxpDBrghYmTfjcdvOovDUDnGRNxg2ZWu1nT4RqBIcDVP25i/FMR4DsMu3fvRtWqVa3F+R8uhVOnTinMgmV6Fdmiv3boPoJL+CCG71CHcZUh5u4lmGajGfUa4cTm9TQ3vchd1ffWmPyHY/I4n246uFJsbOjQoZJAF8wOpLaZOfMHJut9Gw8eXELz5s3xyy+/OJz722+/ESyrq886feoY9Hr5Df51nvh43Q6Uglw0Gnrm5+eu3LaUIJXoHK5eOYBckeVdlMQ9CuJq8zuqjmIzZHj4xi3lEORXFKWLr4J3UAzu384JX6+7tDXZykqoSEhgnTIpO/wDPBiBw+2uZqPUpK73dDPC5yxzcrzaxxfr1sfSyB+A2rUrY/Pm7UhMTOR1A9DnlRA8U/8OATMW3m48WYCZyvHNKA/Sg8JQqngSrl7ywA8LklGzSgrOXUrGzz8qqFabmrMGmHqwlH7wWeBdHBO+CMPgoarHKMPRcswsVOrbA7ePxzKHiKM9QAAye0k//DZ6ElZ/OIBAHoibt25leGE9zhPtce0b86wqL7zwgmn38pQpj25r/8CD26nU+rVwsvSmXiE+SLhxE1/XykMlIRFTpkxB3759LcB8XAf7H+iXw+CKhijaoyTmbdGiRVp28379XlcmTx7HujjASQbPrFu3ziFrj5z31FOVVQRbvmwWWrTsxr+5tVW1SqpXrpH8t3hYuO1xO4se3cdj9pwtBKqfULduM1FdiZNdqM3Riy7aJRXRmPvuOHD0WWp9l+lM2a9qegozYri42FVG6bkdMN99Kxg5qakOeJ38Sj1g6ndQYsvkbSZ+5YWSJapgzuxDaNVuJbp1qeVSvGQzJUf4r5g4MQfKlmV6OIm1JP6lcTqpXX70URjBOwWDhySwjEUQXu4di94vp+ClHv54tvE9tOlIEM8MMMUa4VEYy5fkx3MM8TQ7eq06gOyVyuHhNc2TJc/HB6C6qaS6IHsxbyzu2hV//PwdWQXPYMOGDdbC/AcWADP2K8zcb3qlqt1eRfNvpuDm0ThVm3TYkXNsgvP74tTytZjfrYl6/u+//04TUyVrXP6BcXlcL5E2uFKSdtasWUybtoieXzcw8YX6XadOXZX58+di0UJveLiH4823bnErXQk7tm+mh9bD5erVq0rBQoVYnTEOPy6YiA4dB7ooKbtYHoInu5DB7UKqRso2gudyYuYqLPrpCh05wJjRwzBk6PsEJe6hk8jJjOeHWrIMAkzM/VCcOlsHxQtvgLcfvSd6z7Veawx0Rd9XwxHM2O5PviAgP9Bpn3pNTxJqCH57M1mHfxD2bMuJsFyzMOf7Uwj0HY43htLrLpwiAT3t+nI+zaNXL3lizdbs6Nn9Moa97Yfz1wLw3RxqzvQ29e6VHW2fu4XGLaiKGsFaBCjXEEuEWwFGLhXGM00FMB39riERudBr83mk0GSRHGvnScm+XABTTAlePiTAk3z/TDHcOHUS7zHF3aiRI62F+Q+sKu6KFO6OTK/03JdzUalPF9w6FmPT+jVbCcdFodYfTq1/y4ej8Ovo91U6ESuWWqyFf2BMHudLpC26O3fuqFy0UaNGMSLmZTRr1sxl5MixzD/5BubMckXXHqGo97Qn/P3iSMC+x4icCyhUKJ9LlSpVlD179pB/2J9a2CSC5U6CJQ1urgTLlB0Ew8n8WaraGumzgCfx86mnajHCZzMBgRphCo2KcdzKp55NB0y2OX+mIvHCHQUK0RkkuyHt0DRLrefkaHbo4EHoKo55P9IZ9JDAp+GRwXGiArKmKfiE4s0h4QgPjcfQd3mOALdolXJdPdDS+fTngTwIDoxFnkJ38Prr2dG8cQzq80c6/ELnUAx+JR5VahPUjRqm1mfJPpeUF78fLI+GzTcjOkpv7GQWpkYt0XHRMtw+k8hb6wq12Reob7gPok+ewdf1qOLzkATKmqnkcZ5cj3vfoqOjJZsUhD9pPGQK9F53DNnKFEfMjYzfK4orshXwwk8dWuHo2mUQR6emZDzuz2317+9LIA0whbxLA7haxpZbFJebN28o2bPnwPOtgZ8XR+D0oTIoUWk3Y6nTFrvLahLSmzZpQudDOaY9k8qMpOQkh9vexInkUSZyq6PRfmhj7NbVDXO/S8btW78hW1gOgiUjZhI/4s/n6WDJHXxCPLc656ujaKGd8PTgZNUcPCYecAS4okN70n1ul8H6jQSxONoMtKgfvSaqaXvyGbXG61e9cPBwCTRufp7n0ImkjxTSy1P8PqlerFyRRAuDglnzI9Dl+Tvwy5ZIbHbFG8NYnnfYA4RlF7OCYSA0wKbGHP8wP+2nFfBsy024cElc6OlH/aEjUO/jYbh5hJqMm+aWt30vmky2or74c/aP+Ll/R5XsLpqMRY7++5NeO1NKMwv53+zIXqgIeq4/TiqZK1IS7ICpm39u3j7woKNx6tP5EM3xsOo//efj8SRcwWFbd+jQIUXK1X744YcuH388Whk27E2cPOqLIsUr4sCeUFSvuxxly9VFOSa8GDRoIKrXqIEHdDmfPb2RmmAJG7ApdPMmvMi/GaWjrX1qabduBCF7zmj06tWLfMevqXKRYpRC4IitSYC1l5Owg9mF8+UZ4BON8AhusTXtUq/16f8OdEPPHp7Yvq0QOY7c+ybyvnrKkYo69qHQzmO/EuODqe1S9XOl+1Pa63FKD8wa4LPp9UuBOHkpDHUY8iha6M7NXvhlPU0Bo3iNaLrSjRnetRnAc2MfFsLpC6XQtMVGXL0mBM30o+PslSjW+lncO8PtuIHBlcqgqRwlfbF60BvYOW0ck5HUx8aNG63t+D+wuiZMmKAMGjTI9Erl23RGm7nf4+bJBL7/dWwKu5nEP5cPbv7+J2Y8W1Y9n3QioRVZ4/IPjMvjfAmHASbpVhHibdu2bV3GjJlMT3k/HD1UECXKlMWGlde4ndzNpBJXkD9/pAuT5yoXLlxgBvIudJZMJQAS/FJYojauMQGK9j09eNDOOOQ1V4wd78Ht6BYEBlELTSbdKKEt1beV6dtkapdCMn8YF0YN6pRN69MOo3apgWCgC4a964VRn4Xh/vW88A+lpqvfQenBUq9xypNLHx2ZRZknHGb7hATaccmwcnXlDehx37Ippxod1OAZkvCz8s4TMGMelMaREwXQsNkm0prSAZN2YPTZchE+uSIQf4/XtTt60p7bxRNBEW74vkUtnNuzA9WqVZOKmabbyMd5oj2qbwqfm7Q1xuIzrLRyZSZpLpEBfA4fPqw6Ja9cuaK2Ves5/Y1DQlAZIcUX93QcPEiyr8nR9OOvUGNofzp8yFpQTSM2B5wcovWHMVPW/qlzsOz17rT5u9IcNQIBAQHcgelMKn+jb3/lFJGBh4eHFAcUJ2wG+6msZ6Gf3bx50zSK6a/c659qK7KUsf43D7mf+GUkOi537twoX748wsLC/tbLzeEk1v1Wa3/Lm/LevXtKaLZ8eLGDN2bOqoO8+RYjT/6nsWDBdNo3X8DxY7uZRNeLiSa2IDikNAGQWlZsXc4mQy0dlbTtTaN4PPLmb4Y/fmdpXIUokyTAxhyXmqNHJCiJMhJ81W14mjc8M8DTJE5a0YJ53ujU2Rf7dpZBpWosJRFLlVGA0HiunKN/YrMtvroiDO20z8T+Kf0VBxRBMOp+NgTSpuvqQs3QDHi1+/G8hzE18PsBH9RrvJkTJj0Bcu6yFdF15e+IpYaammzc05PRFETqCif81NqRJO7/e4vx35zQZveS/KGvvfYatfk6wm2EOCTFVv5vHd2X7EJk7ap4cEkqkcqc0AMmkL24D37pNwC7v52UIUf1v9VH/X3y58/PHAtDWW66n8vmzZuVzz77THI4/H905bG/pwCnmGKYavEv1+jKEmVnzPxJ6fVSe5w82AA16u2g5kctKO48ihZ1oZ1RIYXiOdo3fyRYcN8cx+zoyaszZjDndjzpvj88gx5i2LD3MGIEPePJ9EbHC52IJG59JA01TIVgJLXM7Gxzm/CNIKf/jNff+5sHqtQAZs+ohm4v0YYZR41Pr52aPaXRvqld07h918BS/71cTwBS6ELyW8MxvalAmzYEy5RkNySm1MOGzQlo2YaMAd3xVKdeeG7WdNw8Fs/ndnzzypsxtJAvjs77GQtfoTb+Lx1+fv7wCaS2RC+dlhxEHQQHOab/m2Qvx55leCnpPtC0Cw2E+MjqU/NzV2pqsTTxxMWma+C5cuViiRI68/7Fwz8oEK/uusnael521oJj/108vLiTEa2/Bi78bu5h/xe763CrMmXK4M8/JeG2dTgjAcm9yxy8TmubTjT0UL6fmQdNny2MOvW2MHFGGN5/tywKFF/NBBSz0aRpdxclfhZJ5z0dwU/rLbeuKYl+cPeNQZu2XfHzorkkqU9XEMuM6nJ3DXzIdTx7MhLBvg8RGkZANWZCz0zro4Z5+3IAwvMk4KNhFfHBCO6N44/atEDteNRTGrfqGkhmBrTG6xp3GPYdnNqMoPrgXih8A+phwlen8cY7jlvA5p9NRZVBL5O6YiesG7Yr7j7ueHD5Au7fPMUED+nZdATI1C2p/OYbxsW+PbUBHH/S5GWjwKRSq5VEEmIjdWP99ttH/8AeAvXty7QT6w53Dzf0WXUIoSWKIuY2QVz+k22U1ka9brpgbH9mJmC9IGywyt44zmMVMCUOiz+ubtzSPkDU+d+xaeRInP/dnOSvXaBYnboo2aYLcpSpTJt0CmKib3PrZU+gob+1MyvH3iYlORG+IdkRWqA8EuPEfmnsrwKvEF9q/bcwrW5eKhB6CgdzCNStgyINWyG0MJMJePshKZHXyFQ+WXXMPoAZnoPS4lfunl5w5Y4k+uI5nN+6EgeWLcnyKT1cPVDhhU7IXaURArktTaKmkspkIekvRLPT7Vp1ZjtoQ99kHF1JWHVnja2U6Hu4feIgji6dj4uHM4YD1+73Okq3bYuom7KbzGT+OD2GBi3Hcdqp89M9NRnx3D1f/XMH9pNnHvsw3fH67rvv4pNPPnkUSqgCemSj6jVaKof2L6d2SXe5ysnxxDtDN2PiN560y8mEJmI9bEBUZLofo+NEuwPrfHck9efHnxJx6M8TKFN6HfezfW2Xk90pmUUH9oXg9NlQtH7+PNzidDV7HBaqyaBKfR4aFD18k9G5XWnM/p42gNjd6WV/nAHDzLbmcmkzjVP7XBuYzKQo5xIwr14pTJtJJfTss4sRQhccHqLnsr2IqP4UHl7htl7jXup+pyYp8Az0hX92myVDv/+ThWPTzmyXzNQ0JMogfzR/kpCwvamZJ0YlY3GPF3BoxcK0PuUsWgIvbTvK7T+VZ1oIHIFSJw8n1npaE7MxMDlfmgneBTHOQYKsfmjRHEfW0cZtOLzJS201aRpKvfAiaOJVmWQy9dz5t4MMnF5w6TeQ3Y1YRh4wgMD27jFox+xXUEFfnPllPea92CjtxJCcedBywiQUbtJSpR7HC0WN76c0wntW8nKmn1obuyy15/TkOHqwz2fWbMSCrm3wMMqRgSG3LflMMzQePR7hZQozIonjLhWp+bnMh8yw0KG7mgj0jTPps2z4Fd4AACAASURBVDSRGHs3joWXKEu0aOwY/TnWjnrb4ZKvbDyBIvWKMk2jdMQwr4zX1q8z/VySKzojO7k820nKCU/+3D9/C0t6dceJTavS+nT8+HEUL178kXj4yAaXLl1UyleojTu3L+CpSgwRvOXGzOgptJW8iMmTv6e2uJTaos4WaXwAeUAKLiYhCJG5qTm61ETUPfIulS9sjhLREG94YOSYMLz92k1ECD3HzDNuFI7Wc7GRersjd16FJPfi2LA2J5T4DbZ5bpwNZuBnnAT6YXVmoevB1jiYahYlF1y5XpPx5yFkGWxy8JAHZc+O3psuIJUjqRLWjYtTPd3+oGlIYJg9KrhqndZ1Ju35DZqK+jkdLFw4gXkIxJT/V+WL4PopqX8EVGjbBa1mzcXt0zoTgdERldm/zT43PoP6ONJnu/Yi/0zbptueNTUxlaDkh1Q6wb6qnMsBBPz8/NB74x5EVClJbYF2X0aTUTG1rxz1YnZhmK1yfTsTmWkf6VeF1k97H0Vbz1HaD5uZlGPDZ++oZ4TnL4BeG3choEB2XDvEMErmUnAVxM9SHzGbOLo+ZRhXfefsslMJ9AIG7shXwRPHFm/F7DZ1HczpVTr1Qdt53yCa5JWoc5QVa15lvisw9Dkz4HIMeUp/0TsQmDmOfGF48GWfryjw08sDsHP6JPUhgsLD0YvzXiEpO1mKcqW99c3gyDB/tfHQLwP9sKvfa+PsOBfExJWa4oKQwj5g/AomViiMm2dtFR4++OADmgtHPBIPH9lALpaYmKSMHTcThw+fxtatG5hp/AAW/jiWETtM9BvTW0Hi9PQUa8Y5q75yRErAiWOhKF7yLp591gsrV/LWsURGgmnv3jnRrPF9tGrLV58+y49xzusHUPtO3k5+7qQ7JcOTIZi7t1WkhrCBbzcOhGbHNAo3q3Vl9jbT2hulZfbG1feRb7M7N3IwK3xdLF56Dp26UQvXHcXqN0HHhatx75J0NBOHjhFY0iKANFzQdcoIWGnrTwdOuvunJKQi11N+ODD1Ryzs21H9psnw8ajx9iDcEu+wppJmdl1VLpkDn8PDGtsavzTcIzXRBbkqemPFy/3w26wpaa17Ld+O/C1q4treOFWLcVAp9Rp6hps78YHZcxo/S3VDWBFPEtbb4vCqn5kByxOvbj+JoFL5cPPPWG5HTZaUg4zYjwyLPR0AHV6aTnTZ1oRAwIQwkWU88H2zZtTKbZpToWo18fJv23HrHHWQO0xYLaroI+ZEBpZGZnP/EeOXdhu+YPxy+SLpdjSmVImkfToGxTnvO/zEeX9ZN+/1LybjFv0vzmvTZzDM+9xV/LBr7AwsG2IrtiilZVhi5pF4+MgGRrm8+ebbyujRn+HggRUEKea3fFiGrxJqJ2bgZjyZJPORH/th2AexWPBDMDq8EIXPRgbh4DF3zP+BXnbZxpgNkNnLWvtM7uvvQQcU37Ykwu/cXJv2rK0M32RMuGbHNANM7T7yW+aRhLrLoYVGmjFWHqU0pM0S/mH3qJ89VxUFCuTF0402M1M7aVe6o+6g9/HMZx/jBsHJNWOmPKP00sHJDEQztk7/JFMgoHKezRfxpOlMrpGHWrCCrj9tQd4GdXD/okHjNbu+QTO0jZ22+Pm3maaWJiO7JqDKNOM0lBR3YSX88MfU77H0NeYZ4FHn1SFoPmUMLuyLh5uHeNsMmmpWMtD37VHtMn1W2n99SVh3TcGMp/Pj7pXLaPze56g/8k1c3EMAFyfgXz3+Khhkcn0pcpC9jC+2ffQF1o0aCnc60PpuO4Ogkvlx75QdLLN68TmMi2E8snxhqoJ13AkZxtPF1YvUOFd837Iuzu7airqDhuGZz0cwUIMvZW3eZzZH5fJpuyzdnHLm5WaUlW6++kX44M7BY5jRpBTt+woaNGjA0OVfH4mHj2xgvGfDRk2V9etWc4t+jGVqqRHef8rWxEz7058sC0N8Fh5+CM/OhOr3FSxeEsKsRvHYte0BKUt820h5CLmOHnwfBXZq6jR31gfnNi4gAls31CSZfjfCc5AYr7F0MtNUpU+ipbBf4uxMSvBC5UrJdBzQLKBFF9nnQ0atQNdPrY1eDtScr13IjYhctbBk2Tm06US7quFoP20ZSnRoiXtnnQQnvXap36obNSvDNjIrrcUzwIdRoVHcnmTjdiUVA36/B4+gYCTe12La9Q+lH2TbOsn02g4Tmg3T2uq1Xf3nOuHYJ3YQk1ucXrYR87s3gLe/Lwbtvw2FZSTib3HeiZPLGbDRFol+4TmMQxZvQZPr++XgQjt0FNMal2J8vy8G/xnFjYwHEqN1tVKyWlVmLxmHdZIJ+GSlgcn5EhFWwhe/fTYJaz4agIrtXkD7H3/Apf0JtpeLfjeU1a4lMwdMhtlr/8AoXxNxulA+gbndMa9dE5zZtBYdpi9F8Q7P2QI1zOZ0ZvJQ15lht/Q3XwJewTQH3LqK6bSjPnwY89/TMKtWq6ns3rWDWlwMSdzkVEa/mg5wxu2sttY0QBGlgA6etauC0aSZTDBPjBnjjiFDuA/X19LRD65+vWqC1E9IAWF3scUlMcY7H+bOrIBbt44gMpKecm1Lbryedk1qgdzJsPQFcf9OUXw4/D5Kl6BmmmBfyJlOEt0XDlqU/XOCZfStQMbOM10dvQjlKjvaLqWVGz9/ZesF+OXPze2SSawyF4ArybYeai1gOzjJb8EJ3tN4W+3fEpQicygxNpEad7IhVVzGBxKeZ9I95tmsmAMFqlTHa7t34o6WKd7YXL8YtL/tv9WhN/te67v0mT807yGWinYSt2au7nY13mzS8/lDi/ji0OyFWDygPap07oVWc6bj6gHaB92NpFetozabngs9R64kpmeYLgYgk/6k/YhcpZBojIyFbouszhXbiWIDkzDVP6bOJWG9G6p264PnZn7DPtE26G42yexDR+3Phbk1pU9pXTD2RbuNEB/sf6vjGMcSGfTcq+aRzECTn6sZrZi3c/Xg1xgRNh5d5v2KQi3q485JXbitHtw0zoIEqInHnTW21MNERpoINAKG/JYEY0nkOzN5RDroZQK2rizv4s119nX1XIi+eR39tl+EX748iL9tl7VOxuoz0igtfUq7nDbH9BsK+xrQ2shvIYGITVRlNhgVCtsApn3uk80HD8+fx/QGRcXkyPI477A8zqePVCAf2cC4ZsqXf4rRFvvE2+aiKEMURNF5I/PeqBVmXJu2t5yMi58natZyxc4dKaQ2iGC4QrXEv5n1SJuP+u/tiX1vXQlA9tzxGPtZCfTtUxi3bp5GnjxML5cVz1uuR4fH1o3M9TmrBMvwujF65hKBV4CcSGv/5eD51xa/cWJpfRNtl+v07o1Qjnl1lsTwRf0mW7F1m6SMczwiS5ZG97V/qpq2oqbBMzSQeeNJmk0C7RSS1s7u0nRJ5kMLKMjk0fqjmwg0sVGjcKWnOQRxPDX2dixtffqZ5ngf2Zrc2Lsfs1pUQuGnG6JW/4GIusVJl+ZSl4lmH9/MMSG9jdm428GGKiwCsmVHZKWnWSPJFQ+vxrBv5tE66haTIaG/vj0MmyeMRNspP6FM93a4LZmDDPH26i0pg1SCRnABHzWhf1J0enorNbJEQEXaEYhtf9noVinUqqWgXEpyEudiMu18AZSfW8ZoFDmfp4UX98XKV/ti95yv0e6bRSjdpQ1zmJr3SeF1lVRXhBSUjF3sUxRfYjoZqv2y98dG/WJf2B+J4JE+yfskkHWwUjivoi9QVh4qlNokbHzJkDYUnNOdpoLyuHrkIF47eB+ufgFIemhIF6jOXRc+K69PDTk4rwtlxaUSo8UHp8tK+mSzj9pkJH2z/U6Bt68XAnIF4OE90p5vZz6OcjsVnM5dwOQ6+RGaOw9e/e0iHkZTnlIhwXBwisDLjxF1rpSV/Vlt42d7Yaljp74gRE72/qj/ToEfucO+ObwQfVVBUgzNXNoL2bi02D44H3cvqzdhfuf66reLFy/G888//0g8fGQD4wNVqVJD2bdvJyeYqNP9OJLfOtKJjCcYgU510nigTDlfFC6kYMliSbwryG9fmOqAZrLq1InCH73NkQj8/vt+zLIUj307qjF3ZgAH9DJDoMh31OgKZrHich1SMv7YG4mSJId7hZ1CnVohYL4RjPgoBSVLSwNRtfhbq06g3V/fR7mHvATY54RYciYfFmQijrI0WSSjfeffsHFzRrCU0yu2747Wc75Nz7WoXlt7AyrwZ0G1G/sOYEH3hurEETuLHK7CC1EXma0zwsG0VRCxvXJTuFV1ozZToGotNPh0Otx8Arm9tie/NWx/BJTCuI37fcq3WD6EPNp/6chXvhLjtFfB1T8bt7KSMNoEBOj5DY70wJxG1XBh/2702XCCmc+LIo5gnuGwg2V4MR+cWbkOu7/5EvcuMLRWPeyheNKGP24qX1XAT1t05KcSAIQvGVGwGNrN28KdgTsTbugWs4Zyqi3ODdNqlWCaveN4ZdNpBBcthNib5gwHjg7Ci3rj5PLV2DttIqIv2Tyytj7ZtsnyW708f6dw0acw1lb6Iz/ulEv2wsVQ770xiKhaDVG0K7u6mwOmh59wmWIwtow/wvIXwqt7TjMpCN8cij6Cw3Z3hS9d4ZL6Brlgz1df4NjKxQzLvcVh0MlGlY/9xcK/bf1KtoEUf/v6+qJArQZ4+sMJKn8oIYrapj5U1T6XteCLYwuW0VPeChXadcPzLBR384S8lO3i0GnO/pG+uLJ5J9a92516govKHU574akvLduPSCHFDt6SYDuVtI/A0Gwo0bQNar79KWL4ckqVyDiTuSX28eyl/LB95BdYO3Ko2gkJ82a49yPx8JENjJOzWbOWysqVy8nBvAZf/14ETPLk9Dwq/RX1mokGiNTq/tjjx9o5HtixJQE16nABZLYd187RfqthltIjb0TdcMdmBs3s2JWEL8YmoFSJ7Di07ykcPkLNJOwMInKfZEkLPyb84GT2YkeM9lH7g8UlhMHHl5wLXxfaMXyZOk08T15o3TqE3FE/PNvIheUxZJHKD79L5QTUylZwzqek+KoF1tw9c5ATmA/3bvszJO0CBr6xD7fvmPBJ7fdtOnISqr/Rz55r0VHLEiALp3a1e+wUrHyfL6W/eahRRDMZRXSCFCEjAVtdo7wPNaZVDPHbxRC/f/OoyYz8TSZ+wee3hx4abu5OAHCJi8GX5fzh5R+AQQejGF3GzEGJGRMspybbtspnVizH952f+9uPUbJxC7ywZDluSMINY6wrF6lnEL29d+5gQuUw+HFxDvz9FonrEphhoilxjoRzi3x0/g/4sTeT0fwHhy/ttn33XaRWno1Rcya7EY6jPyliV7ftxuznq6Fqj35oPnkSo8d0ThXd/cVkEZrPA8u6d8R+idT7D44KrTuh9dx5TE0opN2M23MVnJg3dP1b72HrxE/Q/JOvUeW1VxznvQaubJujjB82vjsCG7/48G/3qvH7Y1D97SE0RxiqF9jxSLT+8KJeWPRCBxxa/hPreRWUGmROYaFTjfQ9799/kDJp0gSmRzuEHDlZhiKayX81wHTmagFu6PSCJxbM9+SbQlQzgpVZLXDtWoI5UuNMrXPmz5o6bhg3PoEeLUEtG4IWLaLg4w8Ko1XLbDhCj3v+3PsRkusaTp3My+22DzPAn0BNJkVSD1lvmkNHtvSyjZbLsMhYg2fcsPFXfTy3J3z9AlG6lBe6dApHpXKsKpnHnXHx9JaK/VPxpv3Dm8DojnMXkrBn72VMnfknE5TIjWh/5NZYSq+aHd0W7UDup5nt6VJGh4/Yo8ILe2Np7x7Y/+Ns3jMPpFyxHLIl0g6po719+3YJ7TK9Rz5mwe++ag/uXacQU/WhT/bmZH0H52TKveY1cX6PpOf7946yz7VDux9+wq1TEgtreLFwYgfk9sGVbbsIANVRsulz6LBgKW6fNWQOku5ysbmzdr2HWxwmV8rNrV4UspPfOpKRQpIMQ0qPyCHRJKzhrsZbizZhdjzLhBvVhzDhhhZ1pW/E+4gT6jwJ4t91aoAyLdpSG13I/otmZcxmxFcuy1ekRt3AhAq5kMxzZaz69OmDQJYX0Y+hRGtJH1etWgVmC8t0ADp/vxYFmzVC9PmMLxj1xScOny9YwmTYADz/1XyUJRjePSVzS334tOumsQ+m/4Clg2xAnofzS+oRSSIPY99iyQ9esGABWLbGtG/BOXKi9xYmQ+E9ko15RVXV2QOh+blTaFIH53ZvQ89le5CzZmXbvLcNTHrfJMdofuYY7WjLMSoy++qrr9TfWlITkZf8TJs2DVvs5buNHStUqz66rfmVXGIZe84tTXGzN3Rj4IMXXQOznilEHuZZFmlsA1YNdQa9stz8mgpozpy5SrduXZlObQ3tkEzTFm0vK2HUJjMbekb99O8XjMlT7jEcKZTGVqIlHRRp+Si1bmtgxsTDQtb8ZTmdQ2+m4MSJRObSDEavnmFo8HQwihfx48O7EZiSwcgnFciKFNgOD08Cn68bfl1TB99Mu4nsuU6iTw8XlFUrCPA7fVVIbs0f3PFGjrzUI4Ubqjv8SVmqVTsn1qyWCWNbGAw1ZuIRV2agd0N8fBJu6NhCXt6RGP7hQFKJ8qlZhbQFq79mACtn9abDx8XX39HGJI1kV+7hDT9ul75tWBrXjh9RF9rUqVNNB3TlypUKkz2bSrtUs7ZoP38h7hBo1L7rzSN2jSn53j1MrZMHcTH/TL30zIbd+HmtV99EE1YUvXmEAKC+cDVzhGi+qQQA4clNxqr3+6PR+2NR+/3XbZmDDOnvpG0o58DxBcupydm0S1lMTIJtKq/g4GAlyiQaRs7rvuQ3JtyoZku4oQlLc/iodZV8seWj0djw6Vto/MGXqPXOYFNwFQDLXkooPuOw7hOpbcWopR9+QOfOnTNdlEw+rFZbNTtErXhpLVkppYvTYWZewiRHCW8saN8Oh1cswqubSCcqWjCjqUB9Kg8S7d3xbSNb9isBH0lNRy0r07599NFHClM+mvatYLXaeHHZVjpzpNppxpeyB2lYLknxmFA+QB3iQbStShbxJNW55ni4ERjdaUKYUY87NeYYrcH0kSzEaNovJhdR3n7bMXpIu1qVrn3R4pvJtm2/drZufvlm90HUidP4pp6t+J0kTX/vvff+O4BJcqciJM9vvvmaC5nJM6JmpKdnM27HpTfGzyT7uIc/S1l4shxGNMZ/GYxBg2USUICa9ieOYdU57I31673x+pAkHD4Ux9Rf2fDFp/mZ1DiM2oIHbt90QVQ0jfW0qUisdGycL3JwOx6Zhx5ywQjRHF0K49Llipg99xxWr7/KgmsPWAM9FR07SWkMu32SnvtliwPRqo2ApeOgjx9TBoOGlENgwAKUKlMHObLnxNFjZxDFrOkStxwcHIgC+SOZRb40a+3UZZXNmpJKymXcuHHK66+/bjrJitR5Bi/8vJ6TQqf5aXYy0YTsRvKp9QqqNqOsAKB79+7KbNqEzI6Gb32KOsPf5qKWEgsGGg7vF5jXFxfWb8Z3HetlOL1U42Yo1OA59iWMsfB0ILBftrRc9rpKZl4qcd+rY+74SlfP41cSU61GW3ALm69GYwRE5qJXOqPZwubx9cYiaj0Hf/4BXRduRd76tckNNdGuKJ8IbuPWvs4t3ySbFp6ZPWrFihWK1KoyOwJZYkKirhTWAknWFrMexLkbCivkifltW+L4uhXotmg78jxdE/e1bEa6i8rOKbwoye0dbQAmqeSY/YsvWb9MF+XHH3/M/LPDTPuWs2gxdF93nC81sQjZUwBqLTkurvYX7IRy2VhpOh6vMRF1nCTQStSBkv1ZPAN9mIY2GlNr5uJ6iWUNq7Ki2WYJFnSGKOIUMTtq9hlC08oYG6fSWI2b9wzI7Ytrv+3FrJZVUIDg2m3lVty9bGJbZVt/Etxv7DuImc3Kq7eSXKXMWWraN/ImFfImTfvUavx3qPDyizZnnDEFoLAvaL45NHsBFvdnwiAexhplphe1f+gUquovwKp4ilTH69ptIAuJMXznwcfpmovxTnobpPadrA8pWcuA2z6vuGPaVMaAd/Kgtqkw/ZsWLJ3KmkEeeOe9ZGzbGofQ4CB8/klBdH4hgjtndxw7Thc9ATYo6A68fR4wMjKa+f4ImnQRS+1xVzcxLvIefDUnJbni0pVqKFgyHIcPxKFMxS38IoG1iYLx+WeyXRbNyp2hnn6s+ie2Accj7n5LLF50Ap17nsCNG3eYp5P7cSeOrAa0Vt+30eTLT3GD2lWa4dt+zXQj+VIaySV+n2WEmbOxXLlypvdl3kjl2LFjpj3qNHcNijzXmDxP+5vWQYuzbeO2jxqLdSOHpJ0fUaQEWkyYgvz1nuY2y1bqXQ091O8gMnt+bbzNvtd9J/HV95mAKP6ewbtq758bAcCXeU4nMywy+vo1DP4jGm7cyibe11F+tHvQrBCa1w0/tG6EUyx1m5U9iuFvCsPfTHtftG4jdPp5rWP0ia6lZFj3dE/BxPIhSIh5wD7dhwttq0kPTTQldcuXipmkrNw6dwYVK1bE/v37s5w3LGynsLCdad/KP89kxkxxd/N4xoxWcoJ4oWMuXsGkmrlRjHHjLy7/hW11pgKdUyVIXpK/bsXc9nXVe0lCb1ZZyLRvNCkpkqP09m0J+s54tJm8AGW6dbDRlzSOljRTnTNQnYq7x32NVe/1Re3+76HxFyM57+221bR+2TzgYbSn75s0CyvefEm9kaT1o6kgQ99oJlBYcYAVbLVIl/R+CWa/tPowwsqVQsx1M/OFLTXfmteGYMfUserLTPKrhoeHO7WunWqkF5O2pcmTrz4unmalSBeWl9A4u04AidpEdrYSWcPQiNlz/dGjmxgSY5AvPz2VEZ44eSKBb2QXhIYG4eMPI9G1cyTrkXsTKEX7Yyb28KsIDbrCMDS7AVzLfSlPI0Cp2Sjl37z0pYtlGHSfH+cvRKH2M7sIovJFIgcjBN99J9eMJWgHYMVKNwT4xzHeO561i2g/GV8S3XsVRXDQfJKUS+D6tWNOyUvKfcgkk9yiZkdboaN0boM7tDHZADP9smqsMrdz64e8jy1fjaLXPwJXmN6MW6cM95ZyyGJ/MkvI6u3jxfjmC/CJyIGEaBOeJ+1FYQW9WImyIw4usxn+i9D20+WXtVyB7gyNFG88X0wO/qi0/Y29z9oe33zgDaYjO+jyGnaNMzPSux4AIoqVRJ/tR3Dvql0r0YG+3NWDxHsl5iGm1cnLmPN7kJK5LJ1rOk40XdBhmTGZh1yn7mBGn3zK6BN12y+Pp7sE7+mXwxd3Dh/HtEYlkLvcU3jp170EV5loRhs122b3xd2jJzGdRetkaj4KlOLj49X5Ilqo2SHhqjUZrmpWwkQYEyHkqx6btwQ/9XkeDd//AnVYh8uhbZpTxWZW2PYJTQUf20wF33zzjeSFzHRe//HHH0qFChVM++XGKdl7PdkLxYvQVGBIfq0Cpo0lsLh7VxxY9F0aYf0uCetpGYrsfRNKWI7iDIV9pS/2zKWpj8eJEycYkFIsQ9+2bdum1K5NjrPJEZY3H17aeBqJyWQ6iEfOeJB+FZTDHT88Z4s6oiIiColT69pxpZrPeYdPe/Z8iZUlZ+Lt14tj4dIEjP60Cp5vv4IYphmXM7mI3namNZGZJFtmXxq9Y/NgMmuLL10Rj4uXHrK4GmuMd45A0ybZGb0DXLwQzXkRhWwhNxASeAWu3kRFAUZ9rLjZrdW16Y6T56ugSKEwTJl2EQNeO8AwqIZq5uU5pPU0bRyIVWuScfViPAa/UYwleIMRmUtBp7Yh8A8LQo+u2zH7u8tYu3YdGjemy9yJw1Z22B4BZWivTrINpxBczISOoo6IB0IYFbGg/bM48etqtGrVCkuXLjW9Lw3VihiszY485Suj6y97CCKkrRgTE3OSiuHb05s1ihoUoxZ0GsILfXXXIYb3u9CxYNf8DODkxKOn2yKN5+q0nAxA6bD1JQCQ5nX8p+X4qddzqPbSIDT7arzNrKDxL9Pac8tH7/DljTswp10ttXviJBgwYEAGeYmmJC+X69el2mfGo/1MRl21Y9TVaftcVsfCdhmxk4YVY8z9jHlYMqgzavYdiiZjR9vAVR/SateqsjEb+8GZ87FkoK3euWR27927d6Zzh4mRFRYTzFS83RZuQ556tbj91yJjpG+25hpfdfXgIdhJjanLT1uRr0Ftpn3TgZL9yuIdziYvyW4dccj+knxUaWACqiKJds2OHKQ89Vh/TGUKiJnFgWSqmgq8mNbQFZOr5ibF6Qr60m7vzzDheHKDjXPAxZ28zhBXfNesCi4c2CsUH5w7d85UURgzZgyrQdjoQMZDnHFtv1+I2+dI9ld0tCJVWLbMX8l8sU6jnTT2/gP06NED3377rVPrWp0SmY6S4YuePXuqZXgjcvizCFdjNH7mN0QzO/qu7VItkZNQvx0zXtUMMLXr29O7qSFAyM/dMsNkPGjoTIjlFjial42l/TCaRFkai2VrKCBpxtYxu2daQbVqKF3aH71fOYIZ39IgztC/CxfO4ssvJ7K0wHCULe2GJUv8ERqSjCOHfKjplmZ6M3/0678Tazfc5QIcyIXofJJR2hwVqbxpPsmKoic5hXExtOXRGG48VD4dqTPT6uSnI+oWPv/8c7z11lum48TPFfne7KjSpQ9ran+DW3q+m9aQ4yGG73vHT2HaM0wlw3/323oS2SoWwW3av9y8Mto70+5h0Lwy8Nx0tliHftntnzavVubTTry4OVQayjBsmTgSrb+ah3I9O+HOCV26Nfu1NOfKjs8mYM3wwertpCRD1apVM9xA6lWJvc7scKedq48s5ny5EWeMuhIQVLV+P2ZYH4xdMyeg7dcLSVhvi7ukrdhypOkcVkK45zZ01cDX8NsMW73zAwcOSFmETB960qRJSv/+/U375s+5+vK2iyoJPfGBicbELVRIbg/aJMvg+onDeO1AFNwCgkzbujK3mbf6kiyKmzQVSGlgSc7s5WWWy3zOMAAAIABJREFUMcTWHW3dm3VO6h49P/t7MgWEtmaPppCG9vHxCfPBAxLWp3AuB0dEou+eyyyfTXmKHVbDC/tc8GaoYtz1G8wxmo9VFxKERC5kclOZtWvXTlm4MD0lob5vDd8djTofDE13EOpf3BzHQGE6rNuM7+12e8oelL3TOOhUQ3p7lblMuunn68ekG8yCQjvXjCkB6N1vK65f9kKOSE4craaNfh+WYU8mwuSPGbgJGGq2MnteBY0QnqZNattDs8g4s90iHUfRdyJw7XYFhIcpqFF3FzmX3jh46Dq9YsPpHRvuMnbsOOWNN2zOmdrM2l6Ctdy2kN95ggUw5Xj77Xfx2WfOJRfVBo7ahCJahekka/0CCes/kLdm50bqNS+eIEbyK9v3YnZrm8bBcgN4+umnTceJnyvyvdnR4rNpqDyod3piYq2RqgUJb9EPf85lJUpmKarUoSvaLZiDS2pSiyy22frJZxxHI1A6tLVf0wiUZhosHSahBT0xu1FtnN+9HX1+PYmQEtzyMdGsemj3Uf/klq+IN37u2hkHl8zjizBI1SBJQ8kgL77sFS5+U1lFli6LHmsO4oFEn2gvMX3fhH6Vyw3Ta5cia+Eo+m45i8BCBRhFZQJg3CFIxM3c5rVI1dohtjEVlEjZyXStdenSRfnuu+9M+1aUDsJOi+kgvEJtyUgNozzlBaswQ/24cgGIYC7Tl7cfRZSeRqabX740K0TZTQWic0gZkPXr12eJAXzJKJnRnZp8NBE13xrgCE7yFHYHYbbCvjgybykW9mnNtIEvovXs73DrpEllAWrwIYX8cHLxKizoYWN8SIkNesFN+5Y3b17l4kXmijA5uvy4CfkbPs3IKBPaEu+jEtZHkLDOBCVySE161qZ3CgfVRzO9q+5D2l8UKb1bqGAgVq6SJBd3EXczFMmu9RmOuAXtO0bT+UPx37erfXrg0u5gdBjo76rXTDMsQl1HqC0mkfMYGx/IbTp5PGoUgu4wArV8Re7m1UvFGfNeHMeO3ULdRjvxy9I6ePu97ThxirHeiTSU8qBBXvn0s3H02m+jNhELP39/tGvbgLadXlJ07JEyMsqQRn6F1zQVbeMPv6Q9ajBthCYldaldhVO72v3lN1j57qu02/rg+o0bwt3L0IeHDx8qUr7hPks6mB09V+xDzqqV8EBLTCyN7GAjv8ROuvyVgdjz7VfouXwPIutURvRZySxrv5UxQkKAlvwfd9qSudNyyJkgs0gCV3QUUTU3hhEf5d+CRxK2pm5lTQDTnc/sSmAYX55lTUg/GXjwnmOpW93DinfYm9g465ki5NOdJkvhGdBxYjpepGYppGaZyqpSp57MATrTViZErynZW4tnOYlUpIkVaaYhAPbfe5PbUEa/6KOB7PL1DBZyO6ladRkrTapW48aNac5Zm+Ucop1OEXud2VGn/7toNHaUzVGSwQstOU19cGnLTsxpU5Pmi4EkrE+wOxMdNXkxK8hL8tC39A4PsHmHHxU/TWeIQnBSo47Mjm4/k0tcl1ziyzqqk10O2hxb+/o72Db5MzQdNRnVX+uLW8eNZHLbC1w0+F/fGYFN42z0JXGAcTwzyI0OToWOTtP++Ab44+XNF+HOmj2qg9Awv4S9kJ2p+Ra+QJPE8h9VTqyUrM6KvWC8UZYDSWOoIkZRT8b7nj6WDXkKEqi4A+euA25+DVit8QFGfn6AtgBv+Phz4cra1TsJzLRJrQekoMQkMmLC645ttel7ogdY7XPJXH65FAJ8bzK/pGRv4IXS1PpMgJN9OXGmKooVyYkPRx7HiE+OI/nhcxg74Tjeeu8EPfBbUbtOHQcZCBD5+/v/ZZDUenDr1i0lMjLSlH8pbbrSxqRSZPSE9TQgsyVQWNqzF36fP5MUpVpCTDfty44dO5SaaWx8x2GVBK29N18ifYs1aQhOGexFDPELzumKKVW5Baf9cuiJFJKrXTMSj+2TP4X0K+9sfgjMTvIXnS8PCB4S9yxhmTJUMuFd6Ur38lKjC9QjkWAioX4qHUn7kBllJYGrV0Cgg7lL33v/nCxfy5DQGc0qoHjjlui8eBlL3dIeZSS386q+4dSYaFaQBAqypN9//30hrJvKi44LhQ4M04XWjNEnVSX6xOQlJh0V+tX5DVvxfYe6KNOyA9qTyG3qsWZb8UKfI1VL2/Jl1SfpjDjuxJ6e2dF+2mKU6Ngad0/rqGHSWORq54ZuHzUOa+nEaTN5PsrQiXeH6dwcPNZq3DydKiV9aCqgrXPaWPV2UlK7devWmc71rGhY/sE0FWwlN1lPw9I/BLXykNxuJKxXx/m9u9Bj2W7kqlHFBq5aiG7aG5XBIAU9sICUrWOkbNFEoAJZaGhohr5RE1eokZuKq2BVckJXbEWUOAg1B4du5yNMBy/uoGY2KIJb58+gbt26Qn7/S2s9y8Z79+5VpORpseKerBJJxEqiG192IVwXcQ9yMot6bYRHrkbHjimYP58I9kDnMdTbLU01TBfciiqBbEE07LoYtjZ65VG26bxf9K18uP8gL/JEcr+cecRhOsVJLW0bjDMXqqBkMQ8ULbsF98gaune3AX7bHMWiblvQo+fL+HbWtL8ksExntv0LahOKaBVmhx+B4uVtl+HOJAEJ6htQRaQ0QHNl5nX/EGpMDcvg6tHDGPrmmxgzerRp/7788ktFqiqaHcUaPItOi1bi7nmzKBpbiF8KI2K+rBCCvJWqMvv1Ltw6I/VddNlK7G9n0Uy8GbXiSn7R5lFDcGELqTesZ5OigqTt7SgLV8qY+pCkbDuNpC9y/CT+WK8VpTDqqf7QEaj9zhDaVnU1jLSFIynKhFry1QyseKs3Pb5jUGfYEJvH14RHKs4hMSss7m9LfixaPbX7DPISGopoE5mVwO3BMiG5ajxl15RsYKQdqlOF2vjWkWOxnvSrpiMmosab3IZKnwxOKHnvZycobR0xGus/eUu9RGY2Ve36rOyoNGnSxHQcxUHYZ/N5ZnLPywQXGSlVKt+zMLmhbWxA88omOhOLFk4nrOs0LBdXlmvOzsJtrerQO7wNVApU80VWykFWhPXCtRuQsL4Bdy4KxY/rXl3j6XLz9GekU9xDjC8byNwGbhi4n9oUdw9JYoc1jJA7541bSgKmP52fIc/XUb9+fWzcuNF03mdlU63R+zU0nTjO1BknfVNT8/15HNPJdJDuDhkyBF988cVfWv9ZNmaUihIUlJsL4yaz6jC8RVRIoT4RxCRpjntgHXw6IgHvfrgfZ0/5oUBhpmmTjOmaLVKmgZnmKJ8TBPfvr01v9QkmvGDyYK3omT7zEe+RnOSGmNgwnDxTjUTb46hbj1sXoU4ae27ckvP6ly+W4kIuxNDFByjLFGuv9C6Cr6cVxZWzSShQbB1y5S6DC+f//EsCexRgUsNRRKswOwrVqEuO3GZSZMxDFb1DfRB76TK+rsVtECd7VhpAp06dlPnz55ve52lSZBpoFBljYmLRgpip5fzaTQzxq496Qz5C/VEf4OZhs4w7FCppGCG5PPBzp+Y4vN6ckvMomei/7zRnFYq0aoooYw5Q1bbKkFAm0FhGbqBo2C/+uBkFGtZFFO1RxkJZavhoMW+sHjCYGdmZAILH2LH0ElP7cCdXVwvxk7+FmNy+fXvTbgYx20rvzeegeOiiT3RAI/fJVsibGdYZrrdmGboypDVvvRq2BMvaFkedQfI/ZibKzRjlLs/jyGpbUTIJ36MmYzrH2EdFWBDLly837VuuYqyvtPko7t8m04GAYjxsIX6pGF+aGjuDBV7jGIqpQPVYGw7VqULzzgxqV3EPH4j2ptJ2MuMfSplt8dyfOqUlMXG8YN2Bw9BwzAjcMJs3dq380sbtZC/UVhPBdFuzDXcv2DU/g93en3b7m7v3Y0Zz1sDh0a1bNwwfPhwSlqnVMZfwSOEjc94zui7j88l5bacuY50nMh0kJFRvvrDb7YXp8IeEhA62hYRKyGfHjh3/0vp/ZOP+/QcydnwiJk4Iw4CB5BU+sKUXk9IScQ9CmHSiMXLkWYscEfG0E/Jy8exsematdCnrAU3uypDDmd9UQ54C19GosSCgPaMF+VNIdOMtAgjUnAipQQwhjMD0KbdZG2crho/QOZgyW6li72Qy4CMnaqN8FV+8+cZxjPnyJJML12WCYMko5IkSZVczQqsErl11jluZ2a2Mn3OLowjQmR01Xn4dz341NhN7FFNOsbjWiYUr8GMvFtLiBa5yW0J+nukYFSpUSDlzRst+43i3DjNXoHi75kzQqnkj050uWjKELR/ZatK8OG8jCjatx3ovmsdXrmXXejnRfLjtfXDqIqaQhvGfHn6M7e69hTYmSVD8wGD34sVdWHNCytdOqczQuKsXMej3O/BgGKlZW3WLKdFAXEAHli5I65pokhITrdndBDCjo6MzjekvTm2840Jq49SUzPIBimdZ4o4nlg/ifH+gS5uW0eHjQi07MIwOqybVcOmgLWG0xLOXLFlSNdHo+bKy7RSebmaAJOc2HzkFlV97lREr5kk0fMOF6XASU0kNK96wOYn3K9Kdieowpu9e/MiKuHOMPNIG6fa/CHJ88+fPr3ql9X2TmPvzTIiQGQVLLj1w91n4RtLxJaGa2hZbvtCbCj4Zj7UjWFt+wHtoRML6dYKrlFJ2DIO1BVDsnTAdK962MUuETG4WUpzV/JOY9v5/XGTlUCZo4fNksF9KEhCG267qP4gvWFvuBQkJLVy48CMxUH/fRza+cuUSbXJ5uCVyx+4dIahcjfZDmevU4K5fzEvP5FNYu/4KWnfYjUkTQ9FvAPe94gDSrmy2HReeuk8wvp9VChO+voq33oiALwuZ+bIetiSs8GQ+wocPk3CdntHo6HjcJfF69JgLeOO1GAz7kBNb88hrT6Lf/stn7NulC6QGxednKGMSQiMlAiQYJw7WwPlzUbwPJ3GF1aQqlcSVy0cfKYO/AhTk+imXLl0yPUWSIpTr2ZHlRzOGbKXlf3znA2we/zFpUKVZQ+mwad8IlAoB0/QeHgQIocj45s7FsqImhm8CTRgTe8xt2gBndmzE4H0EpWyhpuR2wU13EuC9veMxvRb5mpkkYHBWPrlLlUWv7QcJTpIQIWPcsSQzjueW7KtqOdW0Zn22Hcf9W0zvJRmijAfBIICpwC5t3siolQbOdiFDu9r93uY27lNcO5jRGSGTWKVfHSMokYSeuxwrf27YZ7ORmaVNo7zCivhg28cjseFz8zBHZztasXVbtJy1kPeSPJ2awV53tpgvyPfUuKGNPxiHmu+85miH1dnvJHmxf7CC2Q0q4vKxv1+3XCZk2ylzUJr5JG7RSWaWOFleZmFkLyzs1B6Hf1mI9tOWoOQLrdJpWLrHUHcVbPsdE4uc2sJEPn/j8OdL6cUlmxBeqZKaxT0tBZ4D0tkSzcx5lrXk9/2mvij4UvjLa9+pE7RtpqcXEXpFJBo0ZGzs1VhqQHnUN0opejSbNDlA4LzOOsN+CJK64vZUkml91gOoxIkrebH9t/KoXX8V/+GY6dfb240OA2b6YSZk/TFyRAjeG8ZrR0uaaPs3enun/C0VKqNCcexkFTxV0xPD3z+Nj0YdxeIfa6FFU18S4+PpFfNFiQpr6GH9ZzXMkydPKkWLktdocsjOOC2Bwo2MjhgJSQomn+5HIaxvXJ1ldAi34opsTcyOyNLl0X31HyrfzYzn6UbPs5dnKsaWpL00PDv67buMB5ls+dTwNopacnNGHTuKXbPG0fPLGHp3jzSnjQyr8Z0o/dI+1/ooiRmKNGiN0u064T4jqYwhocJ6UMvXrliHeV0ao1rPAWjGnc3N4yZ5E+0XVSsA5vXG2XVrcWTJD0hk5ngX1tpNc3hwbtrMavwfbaDiBNO2eOol6ISq3H0IIipXot1PosbskzTNfmtLG/fnHNKv+nVEjVdow/yScdNMSZeh/+oFadelduvFpC97J3+M6wf32PQG5hyQ++odMQq5xorUFNbTpNgfb99A5K/+NEp36ozYKAXxUeaJcOUFm6M0mQ4sErdnzhTGttvJ7aqpwH4YbLEC/g/JP941+RPE3risEsvVPnH7mlbPXjRE6ZvEw7JvNuXRxkUNCg1HqVYvILJuNdyVzFHiTDChirnSVODNNT6pajhLIN8hDescAgrlt9thHWetpJrzJA105yeDGDlFfwblJ9dUa7lr12Z/Ut34uUxGbdmL05FtwnIXRNkXeiOoWD5IBJEtyXLGw1MqC9wle6EWFQnWkhcTzU8//eQU/umv5vQJ6WFlnvji82oY3C+SdpNo3Lj2EJGMomnd8iAjdc4yztaXAuAWW59B3egtVwnlVbB+kx9atNmmch0D6Ai5cvkKU3NFsHrbcvzxh5ZuzBsDB3jh1VdScPe2J6pWJDHXnnw1fWLI5OcPNcuUJHccOV4HuSO9mYAgGbkLr0OVyjmwe09VnDh0Dz7M9O3m5o0CJdbSflOaHDlzLc5U6o/4kBlpFGakMW0VzqSuPX89wa0GXwYJGbdzYvh2Jefm69qRiOFWLavokMGDByvjx9tI0cajUseX0Gr2DBq+zeOO1a3ZYdakaVQKFTr1wPMzZ2Uao6xdW6pL+kf6wS/ERh1KmzT6l6A0NqKkbnYJLsSLCZw0J5n7GcBJtkwsX7tp2CfYOPo9PD9xAcr26GBLUZYxKtTWNV5UzbKen1FLktRFy0Ws3Vf/W/7W7OPsizYlH9B8HnfHkJU+DTCFfuVDwvpr2EUSerupi1GSHuusajCl0rjvzuS6IcxkrirR9htpuJ0mJnuRPNtz2B9Husg+MpcMkwUzoTDnSWZZw+HihdA8jKKpVIiRWmfx+iFbhvU0crsJZSuF5Yv9Ivxo9qCstLSamkz0SGCvVqGNv5pThX0UfI8TMsxl9ss1fbvvMAf5sWTxv3vEppWHRObGKzsv2QI1TGyrcm4KZRaU3Q+ezEymYqRu3NRbSx/1OXfTxcoXJHUzbnpjqIRI/8wAXOZJCDNanVqyBvO62jJCST4M5sVwGv+0Z/xLJ+gJ2U/XycFsIoVRtpQ/9u27iw4v7kfzFj5YsZyz5AF/jNtkbWIQ1GKimBPQpQHWrjuNdi9K/sgrVJEj1b5wG6o0atSIQEZvWb1gfMZAlsqVZQ8uxF1eln9K8gbHVGX8N6+blOBJu0RVuDMbUpHSnqhQbisOECSvnG1KTmMCNeJkOupcaFfyRsVqm+gM8mH41QnGr0f8JTk4TBDdP7ICsrIt2zOBwo+4I4lWjW9m2V7S8H11x15828pGWM8q4QaJtooQbs2OZp98Q4pMn/QErQ7OMJvG9Ps3c7D8je54dvhkVB3aV0206jDRTBabjWRJwWvearm5XiNTO+OooTnSvuQ7oTdoUQn23muUKmrY4vGdR4+vZAN6ackORNQix094pI+gC6sZuGXlaJlpdFqbehf13/ZVn+Zw0KRnNx/ptq9pi0M8y9zGzW5YGRcP7GPc9CGElSmDmGtmOwTH0VBvQ4dZumlKUDrdlpz2d9oOSbMbSwZ21g5/RIljH9ov4y7dwMRqEYgoUhy9thzDg7v6sg+6gdePp/q3jKNNg3Q41H9q6K2TWRqLwR5qqF8thrmiMJlzjrK0SU6czhK2LzPDeldGA81hqjVD3lDj5FUXtQEVtTb6fhpwRWGWMpW4loGqlH6D1GQX5CzHOPVefbGLpUXkkIQbpP/95XX/l0+Q+OUPP/yIwJYx2en4L4OYqk1eQfIAdtlrv+VB1a24C9OjMSlsuUi88foujJt4yYEOUqtWbWX7diYa7ZGNyX8FXLi3l+29rDXHxOQ2ich1GU0Y9zCQWZMrcC74omR5N7zc8zCmf3seyxbWQssW/vjzzxiVTyrp7IsRNGZ8ext9+u/DG28MpXd1zF+Wg3G85d/kTbLv282+QqN3x6D2B6TISPyx+hZNBxeZD5L5fPf4qSSsv0K7a3Y14QYdFhn6Jd5LSdSQmaewx9I9pMgwQatGWNetGy3BwS99B2D37EloNmIKAfNV06zvGR5CA51HScoMbM3Cuwzt3MmR82A2IAkJvXf1MrrO34R8jRixoZX7Ne5S9ItJXSwiU/uHpn2QuaLTipx4HqmomfLgPiZVZqZz5lvtvek4wphqLcasJIXWh0eEfqb1IQOIOaBQ+sOYtEtJVJC7MnNzfjgGa0a8iWL1G9FxJZmWdLbhtBdDJmBiJqPMZGw6o80+5AX4ksleyJ1RUYwJ378Xz348CdWG9GMtJt1OIbPxUdezvROPmmf62+ufVT7XgadKiyOH2JWe9SlVIhjNFe1UMEFmj/xXuuVwjUWLFikLFiykl+8ytSGJaknClg0+qNNAavToJ6/9b4JaKrejZ89UZKGxnFQGEpC74FomgAjBjessPmYni7do+ZyyYvkybN8ajpq1qWtLAhf9FkHbQtgVHik6dv9uDpwhWAYEKCjM7Ogjh5/DsI/+xLdTK6L7yzlx+Pcogo+8UaUOiMJyFj6MEY9Hk5Zb0bZtB0b4/Pi35aAJRQjvAmRmKaekzYvzf0WBJvWZ2CKjdpJKe21ECS8sfell7Js3XcjEQiky7RND2RQJaTM7gmiT7L35AlLJ58yQ/VqGgZM5INwN3zWn4Zt1hSt16o7n535Lh0dWlRgfsVoyTP6/uOrs56vOlSP04ja0ceSafzqVC+1lXD9gr6mdWTfU82WhOS4Up9d4ptdlFE0+RtFs2IY57euorXqv3I/sVSqY8jXTLmOiqZreIk1rYueNI52FCGXL75/LD24sv/lVJUZ63b6L3KXKofv6A3hIDTNVKyxm1GaNtsb/WEDGC0jkExBJVsrh2aswzx7i2H3xTkaRVbclZX7UC00FTB12ZDXm2nePeK7UZFfkr+SFFf3fwpbJo9WzGPTBCgw1/9aa/1sn6Z9DuJqBgWHkZd5nQlyWuw0lIBjS1KXSQv4gNpzAWJShjX6k+nigRbO9+GXVdaxevQZNmzZJ68eoUZ8o7733Lnq+5IOZMzgCQmNyOKQgGNPUe7CyHom7d+7kx4WLRZhmn/YmZvl5a+gZjB53DO+8VRqffFaaRnMbWEp2NNXuIuDL2uiv9jnITOwnIORvksD/YzlQs1QkMsfskPrVvRmy5clkB4mSas1wNzUBLKMfZzctjyuHD2YZR8vs0JTPe6b3MaXIpE1ABV4krCfcuompT5NKwnKkASHB6Lf7Gr063nh4jcAk28B/emGZajI6TU+eRPP4zmKGnwG2DD+FqlZHr207cf00QYClD4xZgUz7mZXmktXiM3lmrVDWjk++pBZnyzXQ9MOxeHr467iwJ5apBeUTg2arv4cROJ3uG2VjrKNsv67YIH1zsE4VKwN817wtDq38Wf1GyjH323YWwSXzkoOoe8E4c08HDdYErMy0N7mpXhPk36xBhvAyvoi/fANTqpVk2eq7CAgNYaiiRAMxXFStXinXN0z+rF4wf/c7tXviqHJF7oosQrd4I2a1sTEpmjdvjl9++eVvr/e/faI2N7RQpSZN/Ah+lJqUm9BH4kjZ2dt5cf5iJW6JH6JIYQU/LYpC11770PTZFli9aoVDH44ePaoIb02OG9e8kD2CoKnV/KGWeo2x4feiIqmR3uW2lIlTHwahHBPB3CewvtjtMFausdUeycEwviDG9eZj+q9soV4ETRfSlRKZCMmFceRJ2LzFlqvyUZEYma0z4+d0wii0YZo2z1elFrqs3oYHTJqr0BNq04hsSCYlXT0ZARZz9jomMwu2DHRWCTdIdFaY7s30PvWGjiJh/V2SiVku1kBYl+uGFHbHqZ830AudrqFWppb5wrxv+TITwzntQWpNZ+mfYfE4bHn/ynf6bbC922mahu06UjsrRyl3ktBtSV2149kPx6HhcFJlmLs2ls6ZVCk8nTZb9BfRi8Nsa6sZvtQVa2ucNgYmolS5hJLYw4WFsjrj0NJ5aqOA8DC8uvkwgSkHI5U4zRPs7I6/sooyk6PWRZPHkmqOnkyTFkSlIJXO1F9e7Y0981jpQHeUad4K3VYsYSUA6hiXCRbiORJw0sYy7Zl1Y2Dsi0486fGsurHWi9F+GVfS2LzpRAqN4NrcfwpzWzdm9M859dsitZk4ZMl6RF2RSCC7rIwgLsBmMi3UrtjfHdpjGkVjVFjV68j/mGfXn1FNIezTiWXr8X27ZkggNev/2rsO+Cqq7H1eSV7yWhISCNJEehFQellYEFAEBFQsFBHEVRDEXRfBjqKIoqJSBFZBqi7uKkhzYVEERLFQliIlEYQoLfSEBAJh/t+ZNzeZN28eBIWB4X/nt/m5JPPuvfPdud8799xzvsMxuhxfapZyafIWmP7qQqbatAHoySnQk6O//i1Ab42GszELI9b79UFyRw+Wol0ZdREAfIyqQW+y+33r6aOPM2jhwgXUoUPHiDG0bXuz8t//LkFNnFRoVjIJg9y4NvOha2jXbzfAEsrHaTPX1lGoIsJjvllxjO7u9iP8fjlqOA5nBUycOB1+p0gFdfEQVSFMO3ToYJav+sMYcJtQhlZYIdrsumXocOry6nO0Dwu/sLRoyO+egxf8mvKopDn7C5p6bxuEY8TSATCEmeAGtw3BDYXVb8yufgu/o6rtG9IRk8q+/J4iTpk+e/oVWjIy3EJtdH8/avnMi+TDlp7fN130hvkWqUjbJt1CMw7WsEL4bAShdDQGGSFcZ0Z/NXtwANXDT6BMdUIyTmg8on/DAha7cv1iNx2qRiLGharv143wNPYgv1W7Cu1PL8x2Sb6mDHWZ8A9KrdsOp7qhsCX1u08/JrM3St/Z+fDT3cvtn8G7npuZSbtXLaAV0OHchxK/Zlft2+6hVs+9gHz2aswZoXk068vswc0wNXyxqX0axsZFPLN2baOti/5JX732CoR7C+Nrmw98im5+/RX47Q1ppNwOHoyjL4JlfeRF9EWBh0I8WFG/WIxjgsuOIwCOpu+g9bMm0bK3QttwTmCA7qhp6qwpmFF++YfJQkhTlS7jo3lzPVSKkaw7AAAgAElEQVS3HscTaWlcWgbTbxDNOHysLGpCn0CFxyBk4X5Sa+ygPhBK23aOGMP27dsQz1gV7cTTssUNqeXNZyhtYy7lnU5WyZL9pcGgG+V042jkm7to2PCf1McbOnQI9CNDuddQ8VE4U0GkV/HvOAOE6ynzDyoL/uFn12N6rlIRZWvfSMllIJyKDAR1R6K+dHARIOvhKMaYVCKFDv26G9JhW6g5tvUrowhunEsGjFus1LgZxeDwhHO4zS6PJ4Z+Wb8WOpuR5QY4mP/axg0QpuGFMaCv56x/g9VhFy6a0GOELhPrQ/29er+ZbYAPCGMPLhMFNaTTli+lMybKOOy2LlWrNgWQzaFGSugZPdrCMo7JaGkZHis0FsF+bKSgsF72SUpb9ZXpo6VWqEzFrrtOTejgg4XzXefjSNPPs4GIb9VTxw/TfsTBZuPA4nwXP0Y5lMTwp5RUDzijqpzoGtJPXZEXhRbjmrVvD+2FGwmH4xHXXRM/RaoihEMQH2ncijNmgZIe2r5gCe1YtQQuDvFtqHufCg5vwjZlhpcwNGccRxqPb91Txw5CqASp2iu/Rn350DpANg9XhYxa5uV8mOr/XmR8ojW6YsUKBbqMBbm7vXoFEBTqoptaJOIBGIRkGIiJOGzJQzYPXkTUQWkN4YsvvzoIC3MhLMwOpmOAn07ham5lyyTRprWtkb4FQeF92QgZQllVbDcrXZ8AVfZNNOPDneSJC9CM6ZM5GPUPP8+FgCfuhTafwgrRZqUiLrS9aD5V+F4U+F4utDl5/1WGAOfKc30dVJm8op/MBQJ7mAPWK1wL69iktg4qIaRCFOe9P4VO0y/FxWmpAwYMINRyYiPponDDRWlk69atyngUjh87lvUGQ9k57tgYatuqPGIoA1S9igt1cThA1UVffX2E3ngrpP3HW0tsMaOOAcn/CpvRHPO5bFkjVuKg40dOUTAVZXrf3k0D//Yjvllw8g4txOuuu+6iPMvvmTjohSrsCvgjVyIASkoqRuPHj6f27duHPQvKrypX+gL5I89+NX4WGouqwEW0uvTne2YWD2EFKFZFx7tNrVq1QjZdO85LV98NjlKZPXu2Gq/LtYBYOcooUHK+Pv7I33m3xqFtkDM0baZU9ZrUe/EmysEB8FnetxsOe2KgZsRlMCc2Q6LG8WNwyfjVSghqzj2enT2bbCEXGCFGX6dq4fJBLieiYIeCv3MOOkeqQF+URbepU6dOF30neVFJBjnUajnOOXPm4eDiewAZWdVNoDtq1CgaMmTIOfuHOIFSC4HCHGTaBGlWLwyrRsWLuWnR4oP07LBQPix/e6AS4EV9jgt9kdjKbtEiFHpivOreCLWfJPhc2UuhV2LCFoYzE44fddPadXmY2FRkN62NCKaNblnG0X0QXfHGn8Si1HrVtp28Y61QwUWffOpB4L4uVa5gcLFUExksta6H5JU3By8by8Dhj+x+xmcTkwI4IPOhhPFRVddSjQfH3/kQPe90gDb/5KI1azhbKVJBR//8JVNjqUuns3QaW/wwH5VxWx8NcO0+Xmtut5P2HkigVSvP0KHDxrzboswYpNBQMqFREzeVuSZ0irhzd5CWLoZup2JW+iFamy5qd3OQypXJxUEC80BoO+7CCUUMUvxm/ysfBJbPhdjU8DCWlPs9RMaEyWRwPm1WVjziUDYrCVOQEzJlaPLkyebv/V296XaErKmizBydor/wMrDG6O4vV9L0u0LrhuOX6yEXnL9g1BNu7YXR/399EwJTfm7+4fuYxM3U9ovydhT1nktGNBxgzdL2W6CQkpaWThkZe9QT2IqQ9u/YsQMXaS9S37zdhQQTF3SPeCaeMKQ4FamdogLye++DVagsWsR58eHXvd1S6KMPeUGaadLxvchrr+GE3mgWDRs2DDWGXix4nq5duyqwJEyGFE8fzkikbj35pN+MtJwQW06iZn/KQaVMPRm4qGmTID35VD7Cujgfn5lWU4kK60XUC+GTTaN/jvMaPbRwQRz1738GNd9Zz8/8enRgMRozlsktUmjjwnFmWOLocKaHRr/lphEjuV1zmS9j29eWCyD91onCdsiHLs5jEZh5KW17DA0dgppOn/FznEtoNdSqw+lF6qqP4hNERVA9GXhRp54FY/JZGJgL7V0R7+aFY120T6BOkcL1isyuW18aS00HDww/8NFuFEIzKyF8vOTlv6tlPGCp2gIrWwyScf7449nKvPmf04H9B6kBgoe73nkHQUX7ihk/XhwFL5DJuxNHq7/1U6PGHBuDPxsV6ZGquXJ5IrVoydH++aoUGWrTOKAJqEybNs2ULGfNTKLuPTgJOpQuql5i3UIsfsOGZGrYCBbQSZHQzze46eknk0E0TKDoi7mQecPorGdERZv8/43WIP8boWJc8fPQgRJUvVYeZR4wI00ouo9DvOsA7DJ4o2HMehPt6tvXz6bxVJkfgdvA6TUT9uT3UujBh3g7eC4ydlO3e5Pp/cnwn3t5jGiU50A8X0F7kJ170IP7zGtv6yehajU/vtz4SwbgMbwFuKPY2fd+urFRNiUhxubQQfPSyCYTastfnU8p/v5/f01lWzZT884LLi2kiGsxJZeHbmj3O2nT55+qrgYIKV8xa/lcE2KLQdrljUL2gMJZBMarFlSnNyCbBidXIZLSo65K3cVR6zZe+vKLw2ogPfth4K4weexYmjg+mR5+hMkXi1bUXxeLFhrPa35MRtmNXFXxvPCKoReHJdLzL2AryoW0jKVE+EYjgen/bTYBTDrwS8/5JInu6Boi+/ArhlZ86abmrbBgzDK/+Gbj0XG0fxtPwjlo3OOlW9p7acnn0UjOTQP6F6dx73LnYDbehYsvAP1AC6qWBqlaDTdt22JeS1585M47/fAfAsMT+BFhO/xHYD91coD6PJhFN7Vujbn84qpeW3C9KVzZ0ewKoKYOZ5w5EHlxOttYTQGHtohSccEN9B4qRLLCOoqdcbKGLfCyxSDtQpiipEfkeGNp/pwgdeyC+kWoTBgmTceLDhWGN/8vSNffwCZLtG1hLA1/IRF6oMgVzQVZsmElrDYmFJDXjvQkqn1DHp1A8S391blLMs2dg99xBTJh5Z4rzu1cVp94Y/jzbO25fVQZp53p28OtzHhkd/y2A/JrJdGvUb9UT5bnCguKdp9Gcos/L0bt2ptt+R04OEtBFAb6RlG7AgtXtCe+IARIKvk76MNZSdSjJzNr9K35C8N8NOwFkIBeYlD9vBPaCF64C7IhSvMYvfPOO1f12gLJKVzZ0eyqjPIV3ZAgcWwffNeQ9TMKu/ihY7r/+3U0uWNd9eNcMhelc22Bly0GaRfC5HEirlTh+FLjVblKMm2HYgvlYYGz601vwbHL0OumO7sG6dNPzCwcJ/xsyVBuwmI+hReQP28gy0wciNS5AQcjezn5vvDy4jRyzy43tAyxLxblQ8SfjcHKejIUpGIWX6kn1GAsPdLfRxMmhvdbr14QKlYgntMgLR6vMdjvXHGb0YhNP15YdIf3B6hspbOUkx3+BRFI8FPmHhRl8wIvfcmUaG4AbhftHcv0UvEyCnRYox0CuWnOv3CQ1dWg+q/On4dat3ahFk0OTcFByAN9+17Vawun9sqyZctMlyaLMt/y5kjaz0Izom67+j6FCrcVr+Gl70dPpAWojMrXjh07cEhZwRZ42WKQdiJMpF4p5cuXNxmyi6ZP9dN998PcElamIADNYtq1I4XKV2QTUL+ddiF7KQn6mPgcpzfxWhZ+UO1z+fkJVLsWQQXKGNjsQAZWMWRggTVEGWTjyJBhEyH+wBaT3tfKfZqIfqtNBVw07NkgDR8RTpg9evho5kyMF8r5YZlfIguMS0QZL72LgUmI3072f5pt1XncpwJUpZaL0tL11q2LXn89CQWuYM2zapa6UHUdRfuS4LMslGZo3iKWvl5pXrqYnHH08yYXVahusJr9GOIpL8Rs8+jwoTMXLd32Sn3vsYNRhWailXi++/35VKNHRwSQc6qtDnz4MFn/IbUa0ac9+9Daj6cyUTJh2oaHbDPQK/XlMRtXtMp2pcok0m8ZYIwzWJCCE4XVwwTld9H9vb00fVphOFan24rRZ/PYX4nf8e5TaIFqW3neF7dogbIIK9kyNZptsbTqqzhq+metBLIgD0GIAQfKDgegsBSLnPZ8bJ9cqMmejfChswiHQZmQE1DFcfPJMvpmnx0TmrBsxbiRcTV4cAASeXrCdNKokUF64klWx9e5ILhf9tn6nHQqy0c5JzxoHyIqqOPk9UF+Lx6gaMITZ07GIMQJorJBtGu2pWeSyg1QpVpOLLjCLwo/8oUzMxwUF8DvGEbxhhf4KvE7xp5dGnpdVdWt4aTnnvXTyyPMCfPa8n7auR1ZJS4QJs+FwBPknbYpCPKGGj3kBQ8f3qse3Nnpnb2QsSJiRUGUi+lHuFbR4//bQ8EKxVDvR4eR9mrGwI3DUUZjG1Sj/T9v+93K5xcy3ot571U7qRcTpAtt68CBA0pqaqpJ5o8LgenJUHrGQQX7wPSHENohyv49fip17VmQSA41bpRC367WLE791pJfPqhTk9tPnTt5aN58WFMmF6eA7tsFweQULHB9SCyTni8GiQZB1ErKp6OHIe6AshX5+U4KJkK52oXYSUjxHTvGTkqFutxO9MF7yLLieE39oTSTnzcGalOxOOUMP5Ff9Fkc3doJrKInO7VfhAS94qNxY8HB2S7EzoXIORDMwc9JtW45x+2dyOZCZgEa/fppurc7n7TjofUuA1ioB37107VVz6LuXqFF3rlLAvy18AGcgPtDH0GALLMdOyGhtzCRHu/HSf1gUFEZhfHU/MBfLE6kNu3MY0w7dfIjnVd34MOYa/M2998Buv2uLOQqN4S+6/dX9bo6V4lnN8pJlKtbPxR8zqfiBleMG2Izp3AQlLExVCOe/aDwh9oGL9sM9EJJ63Lf//jjjyujR4+OGEZSsSCKxyErwQMS0FuZ4s5ALN3bLUD/XXqa9v7G2QsG3yMvUM44RSbVA7399MG08K2wvsN69QP04w9ghdMgABGyqPnrftqYSDVr8z473P9njlsMCqC5KaW07sSb24FllX/SS+WR9v9rRiFpOVECZMdmJ8hMJ/Wn9bviyyD9uTWHCpw76F2Mo1kTL339De7VF9YThz6LEqldh3Bye+nFAD37PIiaLVvxhaT2LQ5lEHa11kG1btSsbv0KwPPkHkugEmXPUjaCwY3XC88n0rAXWe/VcCiEtl8e7sWBXDbEXPrQlCkfXNXrqnHjxsrq1asvyhJbvHgxC/raBi/bDPSizI6FjbCgMKfGRZYLddCLLyTT83zabayuyQsbITN793koN89NFapo4TD6Ax72tXljESaUgJLDmXC7xampYJwiZ7x63x+kD6aCULJ0xeQ04lr0WRJ16MJkef6g8kaNkyG6CsuTiVfcrrWzc2uAKtbEdp5Po7WrYqUApW/hwHjd1pX/Bqtw0ruJ1I9jM4sQJM4Bn//4B8Ra/qL5I8Xbyv9Fmeb7evlp5gz9F4abFkIApn1ng49Rs6i7dI6BeyOHxr6TQAMHGSoD8Ph4i+7z0C23xtGS/xj9wTE09xMfdb4Dpr4IUeLPqK6UGJzyIq7w39nEX5L4sryq1xXqTanCNpyK+HsvkcnEySfI+bYNXrYZ6O+dmMv5ORSjV7ggvfGK9yZA1xP6holY7CKoW9yk97XpT7XZsuQFDT8nb6UHDQoFYnOOOYdlTJkyxdCNk95+K4iSIQY/okbKOblxNGxEAv3wfRZ0B7mAFNfgC12qQiH+l3vKidjEJBo5nFM3QTB6H6pGgIvmJVKHzsIpGPp8l84+mjNXO/AR213+A74MDh6Op+dfSqCfNiP/GVamC0IqoV2bWidQvc5AVVxxxNNtnQIoIYJ+UeVPkygIbYERhrUnIxk17XkLr7eQ4yh9swuSfwYXBHsWHD6qijTs7duy4WLw0pxPeWsN65vxDvNzOmjkiCA9/Sz7EvT7yXhKR0poxeqam0Ggza4RZCCVr3SGdv1yhqCIT1DEl+vK8DZeLf+UE3sJZ5LV6FFgDYcAxlAhBz36aCKNGcNlFHXbO+MJbohHQutWtWQcNGtmMep5Hy/m0wTRD9b/dCDfWIFFa3iSOPpycTy1ull3aCLWP5MOfHoUx+Yq/zK8zHFhQ9wpszQsVCHiLP6oxS6+MSqBnhjKfywkl2ef9tFLI0Ci+gMf/hw/Kg5roMyi/eNcqYjsIEUnOfhhA5mHUvBl4qM/NffQqq/DcS1Vyk+7dyjkitUsW4Enttp7dkK+rmo+9FtyQP4++u0XBFB7MEbBt2L4sIK/WR6gZi31KZREfODzSxpbzfgMQy1WDtrev8tPJcvzL51Iidx91adEXsIlc8U3LQnzEk8Rct0V3nZEXA4/HdjjoeIlOZhdW4DG8Bc9YQZdtHRJIrW9JUSWQgZu7dq1Sl3oHxqvGNQf/y0NquHlNGtLkAffKMiB+xPhO/oG9PcaCz2Kv6nbYhcEQDw0c5Y+DMpN//qnl7rew+FTGtGJtvX9Mh9Gu8R9gk/Fv8Hvp1CX6LFHE2jSe0yW4YTbvr0Pweqa6r/+OwAkuHiBn9rdxn5TZt84+u7rGGrYzFB/iscDQs/LicfBmwPlTwqf69Zb/bRokeHAR3NLLF3sp7btsqlsuUqUsTtdrqlLvKYuZ/Nyci1AHyIMCosxGK9e9yfStKkglhOwXIwaF4LYtNPb9euSqH7DM5DIyyLkmUOJfpo6d8goUTizxHjVquWnDet5y4ntLJ+L6E+Y9TcLC9b4X0HWRoIV5MUHT5BAr1ffRWvX6K3bOPppvZuq1zGckJu1E+0LwmxOtIOb4c8FadjL4RZt6HYHcuW9oVx5fQSCZgm//lqQhjzJ/o9QTNVrrwZoyFBgfxQN64vsaUkEHTtCYIQzhbRryOAEeu11PkwCSYtxa+6BMez6ePw41InugFLXp3JNWbCmLlcXcnItQB4+RgWpXyY9xVLaFg9VqqadhItgcUFeGlnu+iWJatU+iXjJ3Aihgn79+ikTJ06MaLtH9yAsP5ClqBEv2hR3ms280Qo1I1PxeWxFjyLTpkzFs2GpmMV5u4ttcQxk4wpiFYuCsd5dGG1sECrZlu6nW1HVZOcOY6wk6odP9tL9D5hYjQE39egOhaePCk++b2kXoP98zl8msDj18ngawTKhPvmUiJp30gfve6l3XyZMlW8Lr0AMPfSgj96bfDRCbaoojy3vsRcCkjAtmq+aNWsqmzdvjuitS5cUWCWwZFDFMWyHybtNkFLmwQDVrc++sWOI8bsRMX7rwuYMAcRKpPQdDi5e9tKTz3AKH5jISJZCpceszrt+hOzGE5lFRjLFNnfVcvgSWzLbFJ6033RTgL74Ar/jgxqja5TbYAuOrdPz9c1hUEJDlMfEn1UtOgct/yKZWrZh5tKd/uNEaf0PbqpTX3dCzp/RLOG6dV3QGy20hAOBOMRxOikO8Z9hMaraNvvblV5q2oKfix8ijtaujoUSkSEUiUVAYj1Qz3IgfOskl0ZmDUy5pixaU5ejGzm5FqGOeDMF8WYmvcVRxs8u1GjXFjrfwbOiqhjFUscOXlq46CjqklREbvYa6C2CMbQrNzdXTVE7yqUCw65YWjjPR+1vw4GP3j9acAiCOjS5sbBYFbVEK5ORw3mWYtx5EAjm6lkoZYzA42AJlo/T1I1EVgz3rllhE8b76ZGBvG0t9Cf89TEUw3ubD3x0W1f+DH8BQCCEHHGk5ORDuImJyKOmyhVWU8V41DP6MxSPSpoqERvz35kAUXeoUmU3/ZxeaGUmJcXRrz8j4ioJTCuC5TXyO7LPS6UqKHQS5XoLr1hatsRLLdty2qgBPuHHrOCkQ5knkLUDf/DPTvIl607ftbZzjvoosUQOhG8V2rZtG4d4yTVl0Zq6HN3IybUI9WjpZH6/h3ZtcVCxMrx9xmB0p7XHMgPqYmS2QfnhgvIEYsjr1q1ToAlq8gQe2rnFReWrGUQitEyb0aOTaPy7OdAWRTU/vAEuSL97EdsZgzLEeXkeDAG0lX+WqkCF6JN/nYTKPcYmBDQKCBO1sCG68e5EPds46f1J8dT3IV38KI+O+RQ8fErx0UP9/LTsy/0oThca9lmQswcHVCzSwHXj1TK/qLtbvYaf/vnhSSrGFqDQ7RSWcjCG+vTx0dSphV8Uf2rmRfE4sDJL6LFhqMPx2xUBpIdyI/qYUwcU/ANQHgLo+iB3HpSKk4e6do1D8axj1KSpj75ZhbbzAIKIt9cIcw20Tus3hQZmEkrvZv7G1QnlmrJoTV2ObuTkWoR6tMOZBg38KP/Jqj6R2TirVwaoSYssSk0tS/v3I0HacE2fPl3p1atXxBOUuzaedqXxYQanCIaTx97dCTgBZuuuKBk+blq+JJZatNWIl3viUahCFR6E9rgR2qNvJ5Z+WOUGgRiImj8HX9+AAUlQyIfwcZEuF00Ym0z9BiIh2ZiPjjTtxwb5NDX3UGOP9A/iS4AzkbhuhNaBZgm/PymR/tIvUrOTc/CXLwcWwo8Z9jkcqOEw5684zHmgT4AmT+EEAJ2PQSPMaZN91PvBE1Aqag1XxNWtgVmkabvKb5KEadEEDxo0SBkzZkxEb3ff5aXZH2MhCkFavkPLT54+JYHu73uMU8cIW/qIuRo8eLDyxhtvRLTZoUOAFiwAcZwAYeojb+B3XDgXupy3H4dKTGWaP3+umim0fPlyrs8e0Y7XF0+/wFItXtYQrI12TiLPvHRFSKzpQm+CCXzg4yB/Ma5PrzXHxAJf7MmsAH6P+jn5p4nr2Ddo0EDNguJ6LKhbpJZ0CL9csFaDsFZ5y6z5YQVh+910R+dYmoOsndDlpAnj/KEMIqPeKMKxHh0YT+PGG+NU2f0Yj1x7oqRULeVTtK+R4YZ1QapT103vvJ1Hgx5jqxl/EL5XdY5cNOSJAL3+xlEkEgxCXO0YuZ4sWk+Xqxs5wRYhH00nsyBcRQSwF2wlnfT0Uz4a+WoWLLNHINoRWbvIvJqkg5560k+vcM0bvYyceuLugIqQl4Y+fYK6d++JQl0z1fmfMWOGwuVbjVfdunFQcGeRCpCvXtMShLnhhwDVaciHLoV1dRo28tN3q0H+vHXVl9vB/T9840XcYw7qyReHLFhh/Zb8/HyFKyxyBcLwKw6fgbXaxEDWnLUDRaA6KC634X8ifTGGli+FJdxa5wfmxtgShh+4ZatYWv5VJGHyDQvmepGphHaMikhMjG43rcSW+8brj5M/3hD6pVrZXhzI4TBpTRak7GZSz5495XqyaD1drm7kBFuEfP369ZUff/zR0JubJr7rp4f784LVxdVo+cm3d0H+8mc5HGvJKt5hc4VqhGotdK6oabTMPpwRjwJphjhI/rQ/FkQZSx99lE2vvfYqDR0aUomJVj+oD8Q9pnzAvlVtK8pD1EKdZk6DtmdvJrnCbWrfvgFkH+m2rgXk74DakZ8eeCiL2rRpS0uX/rfgWaIdhvFBSwZiwAMphlNsDmfaG6RSCGfKzQ2RYLwXli0OZZJKGkKKWEzjCA58YAkfPaIPri9EbMgTiK8cxVjpTHHhp1Wl6LRHZM+DyOnX4i93pSdT+cohWT0oVF30kq4WvZqymwtAQBLmBYD1e289deqUUrZsWXVRhV8Qg/jETZ3uMKgAqSfB8VStej5OXvNM85PT0tKUypUrmwwpnjaujaHrjWo8aptxVLnyWUpPz+MtfoFKDMqbKmvWrDG05aR3RiNn/W+csaOTolO3qy4owMdDGk5vtSF3fbSfHvubYVusbl3dxKfn74w5Qk888QQEfl8veO/efPNN5e9//3vEc9Sr50VUAFurmsK8+ARIcPXKBPh2RcwTUZ068bR+PadQ4kRGBOlr2+rvvg5S4+bR1ZEaNvJpVjHuMSrh86iM8aEiNAoydb17B5BAcAT1rzvTvHmfybX0exeIjT4nJ9mCyYKitFKxYkUTfUwPrf3WTTc2NqjrgBSyUS4hqfRJ7IbPmkr4z507V+nSpUvE6FNSuJYO/HMBw8EL2jywO55Srw0xyt69e7jYmgNVKtXQpBydpmSo0Vj6YnEc3XSzLvaQyULVwPQg3CkO4U56RZ8YWrIoltreangWNTzKg7LKLvr22xyaNWsW9ejRo+C969u3r2JW27oXlIimTdOsW0FamnU7BdZq34f4OUJWYY8eXmyJNQk4gYh277vjgjTg0SxKSUlBgH02rNLw8hMsRbd/t5NSSpkcVJm9G5p/ecO64vBvhtIzEa1wRVUwteCV/n/bhSRMC6Y+WkgRC/zuRr53cqnIQ5X//eilGxrkINwnmQ4ezMB/vWFzNXz4cOX555+PGH2LP/vhr4NldgpkYwivWbwQ+dQds2Fl1kCt+J/U9lDlUkG1y4h23LBGf013gmANW2LEKObneSE956DduwtPyGNivZSR5qBUzl0XkUbcAx/44IAoqWQu/JQKbdy4kWrVqlXwLI0aNVK+++47Q//wtb7qg6gHt6Ud+OhiSB//axy99U6h5DmnPQ4ewpYti2NoVqHm1ujTJw7hR1ls1aqW+pIlSwx9uen9fyRQX5aQM9b/0ZMvj1gT/zhzOpmug0vg14wjdN99veADni7XkQXr6EroQk60BbMAq0qBVRXRU4VKXkrfiNhDD6wesf61reS8TwPU+c4suuHGBrR+3Q8R84RUS4Vl3YzXwP4BGquG12i+ReGPQ/mF10b66cmnj8Mi6w5L70O1zQkTJij9+4eKUekvjoP8aTMICMrvYULHIMCMNB9dVyMfee2FBzXqtngd369tbbkx7VnWrg5SvSY4OPEnQ9BiD6GMgdo314YpXbq0SeB9DH0+Px7krgl48N38o5UkvvnmWJCfYGWovS+MQ8ldXRkOblytaOmlKlXy8eVwilBrSXVDPPzwwxHPWq58Au3ayb/WFU3Tk6WwrOHPPHokSB06uOmbbw8T127aunUrRxrIdWTBOroSulPg3DUAAAcGSURBVJATbcEsjBgxQnnmmWciemrTmpXVQW5nNF1GQTKQXhv7dgD+wyzq1q0bDmk+ipinGjVqKBzMHn5xPrUP+dQgD+GP4xv401Bov/vueGhnHicORUJIktomlJQUKCpFjK1HdxQxm8WCwTpVECYOBKB/Pt9P7TsJ5Z/QR3siV3vGLD5Nx7MIgtNk5KZPRXhUn2PUqlUbWrZsacGzRFNackALk8OTrikPstY/B6ciIrD+mvIu2rc3dIjjdHpo7y6FSqAAWZi4Me7NzPBRCbZ4Q7mhDs6Mio9nZ67xciDXPDWUe89mJj+nCFBnGTz18iAwPki9epykX3ZnIVA9EVvx9Uyacg2ZIHq1/kpOtgUzi+ByBUHmET09MbgYDk6E7qKYihArDejvRhbNUXruuWfppZdeDpsnqF2rlhlCcgxtemjrJi9VrWlUJeY2fVS2bA7iHfNQCvZLuummm9Q2mzdvrqxcudLQjoPGI2j8kYHs7xN7YcGCLhrxMtGzz+kVgxw0aUIKsnjYp6eysyAp9f8PetRJY8cdZpJmsi54lmiWd/VqiaiAybcZVc/dKEKWQBWq8vOFrNs6dRJw4MPmJBMoj5VZOkTyi+YjZKjTQapevRZt2bJR7Xf27NnKPffcYzLrTmreNImefi6f2jQ7S+5ACNvcI05a9T1iQqc4EC8bUnevXr26KtwsydIExqv8V5IwLZjgSpUqKenp6RE9JRcjiM1ieet5DzOCWG7atAkuM6x7DvLu06dP2DwtXLhQ6dChg+nIa9bgVEdQh84wdODfHBq5dXvoI4cOHaLk5GQHb4lLlCgRpjYkGi1TmnBPKARTPXNRkC7J7kSkUW7dmodc8/Duq6GuT4D9lVx7jJ9H41kXBrNhY+gBjbGKAwcOVMaNGxfxHG6Mt3adUN96WTpO49y/n2gffsSFIoVUuYqH8k7kkxMVLkPplSA8xEnu/AWeCRjbxjo7kyZNUsy25qJNGI9UuhzX0CaoqCuk12Zm9wWKgMltuAXr5krsQhLmJZ6VzMxMhWsv8yk0Z7Xor9OnBbOIkwr+q3A6QjkcZLNixQrCoUzYPI0aNUp56qmn1JrPYXWfYVmdxql64cmH6C3UJt/btGkTPuhR24NYhAIVJfX0PnJsZlJDhe3FxOgVgBX0y8+irwEs7g0xJ9/PdYfgSih4FmT4KGypRfbNz8CfM0oa8e/y1bYEk4ae12hpF1rrjCGfwvfu3TsMQyhHqVlSiDZQ62uLMRS2p27j1YcoeU0ZuufuO1ndPuzA6hK/OrL5KxABSZiXeFJAlArHX8bExBjI7dwdqyVKcXHIDxZz2DwdPHhQ4cwYI9Gc71FYgQj1sguKTvHY0JZKzOHEe76WLuzvouBVqVKlwp4DQfd4zEiyvrDWz303981lQqKJYnBYVRYqRJphKeaArXDMn1wrF3NibNqWfAlsOnFy2BIBiYD1CEjCtB5z2aNEQCJgUwQkYdp04uSwJQISAesRkIRpPeayR4mARMCmCEjCtOnEyWFLBCQC1iMgCdN6zGWPEgGJgE0RkIRp04mTw5YISASsR0ASpvWYyx4lAhIBmyIgCdOmEyeHLRGQCFiPgCRM6zGXPUoEJAI2RUASpk0nTg5bIiARsB4BSZjWYy57lAhIBGyKgCRMm06cHLZEQCJgPQKSMK3HXPYoEZAI2BQBSZg2nTg5bImARMB6BCRhWo+57FEiIBGwKQKSMG06cXLYEgGJgPUISMK0HnPZo0RAImBTBCRh2nTi5LAlAhIB6xGQhGk95rJHiYBEwKYISMK06cTJYUsEJALWIyAJ03rMZY8SAYmATRGQhGnTiZPDlghIBKxHQBKm9ZjLHiUCEgGbIiAJ06YTJ4ctEZAIWI+AJEzrMZc9SgQkAjZFQBKmTSdODlsiIBGwHgFJmNZjLnuUCEgEbIqAJEybTpwctkRAImA9ApIwrcdc9igRkAjYFAFJmDadODlsiYBEwHoEJGFaj7nsUSIgEbApApIwbTpxctgSAYmA9QhIwrQec9mjREAiYFMEJGHadOLksCUCEgHrEZCEaT3mskeJgETApghIwrTpxMlhSwQkAtYjIAnTesxljxIBiYBNEZCEadOJk8OWCEgErEdAEqb1mMseJQISAZsiIAnTphMnhy0RkAhYj4AkTOsxlz1KBCQCNkVAEqZNJ04OWyIgEbAeAUmY1mMue5QISARsioAkTJtOnBy2REAiYD0CkjCtx1z2KBGQCNgUAUmYNp04OWyJgETAegQkYVqPuexRIiARsCkCkjBtOnFy2BIBiYD1CEjCtB5z2aNEQCJgUwQkYdp04uSwJQISAesRkIRpPeayR4mARMCmCEjCtOnEyWFLBCQC1iMgCdN6zGWPEgGJgE0RkIRp04mTw5YISASsR+D/AE4hEd0HXSMQAAAAAElFTkSuQmCC;" parent="1" vertex="1">
          <mxGeometry x="1267" y="-269.5" width="154.88" height="97.03" as="geometry" />
        </mxCell>
        <mxCell id="-n0s7fdAZKVhsjs20yD8-60" value="" style="rounded=1;whiteSpace=wrap;html=1;fillColor=#f9f7ed;strokeColor=#000000;" parent="1" vertex="1">
          <mxGeometry x="756" y="156.5" width="427" height="163" as="geometry" />
        </mxCell>
        <mxCell id="-n0s7fdAZKVhsjs20yD8-61" value="" style="shape=image;verticalLabelPosition=bottom;labelBackgroundColor=default;verticalAlign=top;aspect=fixed;imageAspect=0;image=data:image/png,iVBORw0KGgoAAAANSUhEUgAAAVwAAACRCAYAAACPFwDyAAAgAElEQVR4Xu1dC7wO1fp+N9udQuSUUKhEpZukEiEiJNeii1uli1Ippcvpj4RUcr/TTbkmiqhEUcpxpCIpSh0kpAhh7/391zP22s3+9sysNfPNzHfZ7/f79atz9po1az3rXc+8613vJY34xwgwAowAIxAKAmmhvIVfwggwAowAI0BMuCwEjAAjwAiEhAATbkhA82sYAUaAEWDCZRlgBBgBRiAkBJhwQwKaX8MIMAKMABMuywAjwAgwAiEhwIQbEtD8GkaAEWAEmHBZBhgBRoARCAkBJtyQgObXMAKMACPAhMsywAgwAoxASAgw4YYENL+GEWAEGAEmXJYBRoARYARCQoAJNySg+TWMACPACDDhsgwwAowAIxASAky4IQHNr2EEGAFGgAmXZYARyEbg4J97IiVOLMd7giUiMARYuAKDljtOBgT2/7Q+8veKaZS5/nWijN0UKVGNCl1wExW9qhuVOqUa749kWMQkGiMLVBItFg/VXwT2rVkQ+fvV1kRZot/0E4gKFBH/fUQQ737jfxft8hqVqdOa94i/sOfr3liY8vXy59/J/7Hxk8jhsfX/IdpoKLKJt0jnWVT28o68T/KvqPg6cxYkX+HkzpIBgb9++zlyYMjFx7VZaLV2P/w9az+VeHA9nXB6bd4rybC4CT5GFqIEXyAenv8I/PZyn0jmmhFEhcurOz+6mwpUb0MV+sznvaJGi1soEGAhYhHJVwgY2u2gysKUoEG2EhlBumxayFdiEthkmXADg5Y7TkQEfv9oeuTvmV0prbgLwhWmhUix8nTCAx9RyZMr855JxIVNkjGx8CTJQvEw/UFg98gOkYwfZrvTcPFqmBYu7EUVeoznPePPUuTLXlh48uWy589JI7DhzyF1Ke3wbufLMjt4BOkWu/sTKl2zPu+b/ClCMc+aBSdmCLmDZEEAQQ4HX6jtXruVExSmhQIVLqIKjy3nfZMsi55g42TBSbAF4eEEh4AR6PCyCHTQ8U6wGUbk0G4q2mk6lb26K++d4JYqZXtmoUnZpeWJRSOwZ8HQyLGl/WIiXKNPEQJc6omf+QKNRcw1Aky4riHjB5IVAeWFmQzrVWnAwpZbsE4fOvm2Ebx/klUY4jRuFpg4Ac+vDR+BHU+cE0n7a7v1hRnss6c3ooJV65GWFiy03GK9wr1Agw9xJPMYpRUsxNp1+OLjyxuZcH2BkTtJdASUAQ9Ca02v/wSV7zQo7deBdSKRvd8pw37TTjqb/vXkmsD20IGdWyLHflxLGd9/Slk/r6KsQ78bMKcd2U8Fyteighd3pGJ1OxKnlEx06ftnfIEJS/JAwCPNDwjkJKuxMxeYosl0L9f8vkADwWb8bwNlbP2CMjcvociuNf8sDbKZRf0ifwvirViHSt45lzXeJBFiJtwkWSgeZmwI/P7prMjfr3S0jTADeZZ89J8kNbum9IpkrR/v7EKWHYFW6r6lnnLnwi/42PZvKeOHTylz62eU9dMyAommpYu5quzIEg6TZh4bQvx0GAgw4YaBMr8j7gjsnvlEJOOTQfZEJmyyJwzck3M8h7b517PV1D67LiLQQLCZ+7bT0a/eO06wW+cfz8WLn8zH6xapbNI/9dktvJfdYheH9rxIcQCdXxk+ArtGtIlAg7RMxyhIy8oeCzeyo4v6KfMuQDsufp/1BRqCLTJ+XEfHtq6mzB9XUNr+b3MnPPcDCvGxOGUk8V72A8uA++BFChhg7j7+CChDegVhFahtnSdh17MNI1m7/qu8QEMEWokerxC8CORFV8amhZR2YMtxAArgn+yqEn5CwtFvfqIZeF9MuIFDzC+INwKGeWDohfakKcwChVqPpXJN786zH3Qv0JDMPFKyIqUd2mMkugmMYKPBxNibDqVyrfvxXo63oGm8nxdJAyRuktwIKD0UhIZb9JYFtvXLjAu0deICTXWRpaog4TeMnDbSb0QD748JN3CI+QXxRgA5cI/M7ep4YeZURkf7Ai3sicKVrR3ndQgb9ljex4QbC3r8bFIg4OjipaklKkk7ViSy66dpV6Lg8OJYEY/L80y4cYGdXxomAo4XX5qXTrh4+2tse1JeoOlOTOZtQHthqihQ+QpKK3M6Za6bqs7Vm11nrWS3yRxlpot3grRjwk2QheBhBIMAiHL/k+Xs/WldBA7AFnxoZH2lm5jlTKQGC79b4bGQVr4OFTyrGaVXvZQKVbnAiBQziluqCDfbhY2jy4KRl6B7ZcINGmHuP64IwA/2ryG17UnSpR1U+wINszZpsZHS51DBMxpQoaqXUfoZF+Ypu75n6djI0Xl3O5M5+hO/kv3WeYpsi+tC8MsNBJhwWRBSGgGE9B6Z0dH2wswpaMEKGFygHRjZ1LpMj/B2MEeOGdnHajalwmddQQXLVLQ9/qvGaIwjW0MOO0NZSgtHHCbHhBsH0PmVwSIgs2wd+3YZZW2Ye5ysChSxfqnQcEs+vsWVxphT+beoCGTI2H+8X2GHTT+9IaXVuJrSTzuPClU8R8u+qnRZk6PmUu3BCk1IvTPhhgQ0vyZYBAyS3fQJZX79LmX8tPyf4IN053LokSInkJc8BLiIyzy4iwpf2pXSq19O6eWquM7YZWjLY1qSbY5eE9nK1JHBosi9B40AE27QCHP/gSCQKxHMhsWUtV2QLH4IoVWQbM6AhAkgvXoHKn/f7ND3gRFu/Jy4gLNLiG4iW64uEYgIxaXT0AUtLrPkl6YMArgEQ7atjPVzKLJb5IvFrb/XTFtxDIs1yv1snu0cvSY+CPBmCDLJecoIRpJMhAk3SRYqvw5T5ow99vUSyvh8AuGSy8gX65VkTUCir2I97EN6g8LccP9aM8KZbLNzM5xw3xLXpoqgxs39xo4AE27sGHIPPiMAkj26+VM6tnGZKC+zhNL+ECkN8fOBZHOGCkITyb7NScd9noZld3D/OrbgbiXZUtZ+cgo3DmOs/A7/EWDC9R9T7tEDAqg5dmzblyI59yLDs8BPTTZnONJtKzuyq1DtNlTkopZa3gQeppTnESPz2Kut1TZmRTIdP8bCfcQHASbc+ODObzUhYDj9f/Q80b4tlFYYmqyzZ4E2eNm+q5GjwuFcuHClV21GBc+7jgrVqO/KDUz7fQ4NYXs+OKL+8RZ2LmriT37XSfNj7NyHfwgw4fqHJffkEgGQ0KFXex4vluiXucAUQhspVY0KVr+GCp3TiIrUahSaJhsNg2OwhLmxizBjl1Bz8wRBgAk3QRYivw3D0PhGNhGBAyI6K1aNNjuENpIhUCxTjdJrtKJCNRuJCK/L40aycj1hjz4wsjkpy667qI2W32QllebLhJtKq5kkc8khIbh1eSVbmacgOxFMeu32RgCCboRXWFBp5V7Idv8qdd/iuH8gwsIlv76HCTe/rnwc561dtiZ6jCaSLXBKQypYqzkVPv/aPIlg4ji1XK9WVgpG62z3r1L3vBO6XTlRcMpP42DCzU+rnSBzNfxQ1wo/VDfaLfLWimQw8CywyraVIFPLGYZWwvJsezO7fyXa6gU3Hibc4LDlnm0QMKKsti5RJ9o2Py/IqVCLIVT0gpYJHwgADf7wlNbqVIvCW6HoTVNsa6mxAKUeAky4qbemCT8jraO21SxQDRc+tLXaUZF6Xah0zfoJKb97FgyNHFvaTxnckHbS2Ry2m/DS6u8AE1Jg/Z0i95ZoCGinJLQbeHYAA5J6F76qNxU5r1lC2T+NxDRD6lrnzDXPiVMuJppoBj4eJtzAIeYXWCFg1Bnbufy4HddreXF5iSZ8eAuc1zmhtN6cnLnFHYI4si/MTh30Le/DfLJNeKHzyUIn2jR1I6+0xy20XkSUwQ+3cL07qEid9nHVenXTLyKyrHDbsVSu6d28F7UXO3kb8iIn79ol/cgN08L47HBXNx4LqpnD1iu0XoTypte7JW6XUlqlc8RckAT9xEc/Zx9c1bqmwN8TinB3794d2bLlB9q0cSNt2bqVDh06ROv+s4YyMzPotEqVqWr1M+m0ihWpxjnnUM1a51L58uUTavwpIA+hTyFXeK+4EPP1l631Ij9DkRumU9mru4YuL44l2uVk45iX11e8uTMlAqELoNWI1q//MjJn9mxa9fEK+m3XTqNJwYLplJ6eTgUKFsx55OiRIwb54ndyhVOoZevr6cabOtOpFSsmxDyUaHMDSwRw/D68Ygod+0Dc7MeSUDy69+wUjOn1+lDx5g/GxZ1MO8hDfBxKPfFzXMbIYhkeAnElKhDtsGcH09o1n1ORIkWpcJEigmj/IVgnGDIzM+nwoYPGc737PEhdu/eI61zCW7LUfZNBvJ/PEonGp8We0EZojWkV6lDRdi/kch9bvfqzyJSJE2jY8y9SmTJlQpGZXSPaRLJ+Wubsd8yJa1JXsE0zC0XgrJB8YfhzkamTxhuEWagwcvJ5+4F4D+z/k5q1aElPDxgU2ibyNlp+SgcBmYD86KqplLlpvruUjXAZE79CTYZSsQY9cuyi+/bti4wdM5qmjB9NjZs2p0lTp4cm+9pucGLsJR9zV0FYB09ukzgIhCZ0cso/bt0aeeiB++nbDd/QiaVL+4bEXwf201k1atKEyVPZtusbqvHvCGR15LPXKevrGcdLktulccx2EStQsSEVu+mlXPkVPnh/aWTg00/R3j27DVNV67btaeCgZ0KVfUPL3TrfOZxZaLlcMDL+MhfkCEIVOpgQ7uzRjY4dPRqTVmsHyGFxyVbtzLNo3tsLQ51XkAvEfR9HADllj6yZQ8eWPZOXeKVW2zK3e9WO7dsj48aNpdlvvEalTjjRMFfhw9y3X//QTVCGG9zw2s7RZ2KecBMr9W/WclNV7kMjJtjOet91p4Gjrp3WC+jYUDd0uDF0DcbLWPkZ9wigFM/RDcvo6MoxOVV708/qQEU7DMnld/vWvLmRoYMHCTv/ISpWvHjOi/784w8aPGw43dC2XWiyL1+um6qxQO1eVKHH+NDH5341+Am3CISyqDAjdGzXJnCylZP/Y9/v9OjjT4WuxbgFn9t7RwB23iOCePEre3nHHDnetm1b5IXhw2jJIpHuMFurNb8FsjFz3ttUu/YFoci++d05wR4OJXaM9kJjL9brk4TNFeF91fjJUISu7fWtItt+3BqIGcFuCbGx5i54l2rVOjeUObIoxR+B2bNmRp4fNiSPVmseGTTe+e8spjOqVnUtF+i/UuXKdNll9YxnQfolTiznqh+txD2CcNOrd6Dy98121Xf8V4BHoEIg8AUdM2pkZNSI56l0mbKqsRh/h9cB/G2PCjtvwYIFPHkxwEa87/c99PzIsXE5OmpNlBv5igDkbNjgAXTyv061NVlBtooL88KKVatdyz1MYp1uaEXDXxpDHTp2Mp5Hmsmsg+KiSyRC1602AVv0X89WU+cCFhdoxe5mLddXIUmAzlwLnpsxw5TQpmXzXDY0u+exGf46cIDOrlmT6lx6GdUU/4a9bd26/9KnKz8xSNhsi7PrBxrMGdWr0/8NfCYux0Y3+HBb/xB46MEHIss/WOp4ioKMlSp1Ai37eKUrucdlb8+utxp+391v70UP9n3YeB5pGI8u6nfcbU0EbKBoZaFTLjIqAzslSdfScpFwvcJFVOGx5a7G6h+i3FMQCAS6mM8MGhh549XpVFIIudMPGumJpctQ/yefoibXNM0zJtjlJk+aSG/NftOxL1yYNbuuNT0h+gnLqT2IReE+3SPQ5caOkc3fbXK8kIWcNWzSlJ5/4UVtud+w4ZvI3Xf0NJQB/C66pE6OD2+eXAlwTcMP7mvih8CLgmeJfA5VL6VCVS7IiSLTTWxDQsstetuCuOWCcL8K/IQKAW3BU3UU/Xc4mkO7RT4EJ68Eecx7ZcZMqlKliuN4JowbG3lx+NA85glspIMH/6KBzw7LOe65HS+3T14EdGUNp5+OnW+mx594Ukvukdvj9h5d6ZeffjI0Z8hqxUqVaP6Cd43ncQn215Da9pUdTCXbjcTpla+ggjWbimrCV9CRz2dTxqpBzqYF8TwnKU9eubQauZbgeZkynM3hBqYKboBWOmL0OEvN1uq9MkJNas1sQvCyOqn1DPxtWzVvqryUhYlqwOAhWh9lkHgPYUbY8v3mXKYsXMYu+/hTI38HNNX9T5ZT22Ml3KZy7mlFxalP5a0gnoNfbtFbZ+XyxEit1ctfswmMcEGML0+d7Gh3ldrtG7PmukpA06b1dRFoHdBqr7u+LZsQ8pfM5pktbKxdOrZTmq5AlqPHT9L6uN/evWvki9Wf5ZFf9DH99TdzPBV+HVgnEtn7nRZ5elqm7OKZFfrMD2yvehoXP+QJgcAWEQL7X5Fa0SlPglfCxY3xnd270tODBofihYCj5W+/7aKdO3bQAWHL+23XLtqzdy8VK1qU4CaErGZVq1Wj8uXKu/pweFoxjw/BDr5z5w5jDhkZGbR582ajp4qnnmqcQsqWLUuVK1cR5poySWf/1j1N4TQ0Y/Zcpavgk088HkF0mpVnDU5k/x44OEdLNoIZ1o/X13K9rB/nWPCCWkI+Exjh6lxiABFsgglTp+doDLoowQPCiy+lbv84pq5atZJWfvIxfb1+vRGHj9SQmZlZhrsaYvLxg/safoWFje8kQbjVhIdEi5at6Mr6V8U9pwM+TJ+uXElrxYdvyw/fG2GtINu0tALGePEzzwmJhKqcUdUY++VXXul6TXSxtWonPwjIhez0w8chOkps+tQpkeFDBys1XPQ7c+58x7sCnMwmjhtt68YIeTXnYtAqGBkLMIaQsYtYrBAmyvOBES6O/dt/+UUZxosLL/PNb7yBwfF06uRJtHTxIopEsqhEiZJGTl6dcGRo7FniH5g6oPUixLh79x6enOy94gBt/N2FC+iV6dPop63fi2ir0q7TXsIF78D+P+iCiy+lu+/trXUE9zJe2EmXf7SM5syaaaToxA+42f0OCVxb3dCeXho1Jpfcwhtm1ozXlOYrXHhNe/k1Ww1ex2cc8lqjZi16/c1Zxhi08916AUg+w94KsaCXUM8GRrjQcDdt3KC8yAAasIs90Lcf3XlX/Oo6wf1n4vhxtPCtOVSmbDmtcatWEtoQcvze0/v+UMKM4cUx47VXaNevOy3DWlXjjf679P64uE5dw2XPz6i9Fcs/irz4wnDaJLLG4aOmk6ITGnrvPg/lkZP7e98TWbliuWMfqg87ci/0f6Sv8pIXsop7A+laluOpgO9EAXwxfK5aka3hlui7PlcGNLdrye0TA4HACBeO6B+8t0grWAFQ/PbrjrhEhkEjHPnSCHp9+mTfiNa8tDJfL0hrkLghD8IMAvJ66vHHDLNHseIltLRxN+Inidev/BSwkQLvk8pXcDVWu8QzOuYrzKFF6zaWSY1gA76j2y1GlJrTD4TfuOm1eTRsI5PZ10so85evKGvDXMMEcFxd1/NEcHwpV/Z1I6oJ3zYwwnVjV5MoRd8AB40ebJxDREapH4TDvCo4I9axQNuFjXfUuPG+aorS5miVqCXWMUc/j4/ivX365kRaeekf2igSy+iGepvfYZV4Brb2m4SHgsrf2047hgz0vO1m5YcKz9e7or4ycTmymR3b9iUd27iMMjYtpLQDW45rvgW8ka/hFtYpPvXYvKwvP+OMQGCEiyN65w7ttDVcDFPaQMdMnBz4hQ0SkQwSSalhM9Q5zvohSNCyYA+e/tqMmEkXRPPwQw8QPEFUvs5+jN38UbylW0/t4AHzu6HZznlzhufxgnAXv/9RrlMCLk/bt2mlXEMrH1wZRaYia3wsGzZu4rqiCPx0j23/lo4J7Tdr60rK2rncXc02oSkXuJBTNfopv/HuKzDCxcR0XMOiAZCuYtNfnRHI8Rvvg/Y94Kn+ro+0fiyWDGN+7Y2Znl3IcKPf7ZYu2SaEf3K9+jE+nT6g6T41YLAruzQ+cP0evE95bHd6P7TMb77bkktmpYaqOqFEa8dSM0bIrtMHVwbWjB030fN6yTnB3nt08yrKXDuLsrYL8sVPar/miWftp4hwfil09RNUvtOgQPeoznpzG/8QCHQxsRk6t2/jepNJUpoy/RXfSdcuPNg/SNU9SY0p+rZd/SQRNDpEQP35xz6lVqfTn9c2IL/XRcCKTl5ZfCBu7dxJeex3Gotd4hlcdj352CNKkxDGizy4uPiD3b5TuxuUGEIOK51+OvlBttFzg9332KZP6NjW1RTZsZayDv1uNCl4QiUqUPVKKnReM86H61U4E/i5QAkX83Z7eSaxkqQ77dXXlTkWdPGFZjvkmQGu7IcyXeSRI3+LjGV/57hZIXMU3JSKixt2L4UwoXE9+9wLrgI3dIkiGg9gifHDBxdzwGWVdF9DW5hV3F62STKSeQWc1iA6HFt3vczt7LwM8AFF+k+Vhot1XLPuqzS4oj0iTDFWUWTR7wuKbK3mD/MD/n+3+XW9YMnPxA+BwAkX2k0nUe0BAq/jyxqU0OMm/547eyo3pny/LMN+coVTxM10M6pbty5Vq1ZdkGsRQ7M0cu4KLXPjhg00f95c+uar9a7swVJjm/v2Qu3ILlw4Lf/wA227ODRp/M49vzZdI+ZQQ6S8rFypco5mDNslos/Wr1tHS95bTJs3bXRFvLofjdo1z47opNaUmFttB3zcunTtmcfLQOeDbk46g/ZL3l3gKAdBnrDit9WPvxl26+gxnHpqRW0ZjH4WphnsA/PPqj986Hbs2J7TzA8XQ/NcrPoz/91qTDgtHjp8fI+UEdkKkR8j6PUJ/AWYAI59jz38oCvNUk5cFoYcPXa8Z0B0b7LlO3H8rH52Depy863U8OpGWhFj5oAJ3UssN8lUdJzy5fhBGCDT9jd2pvYdOmgd+/Es3KNGj3qJfvzhBy1Sl0TmFEyAD92dPboq117aSoE5wqWtfqVKlcpz2ahzTwA8rmzQUJyUTienKDK8M5XJFvPDx++PfXtzlJ/9+3bRM8PHevaBh0veyhXLcvrb+r9dJPZCHpmDeVFUyqCqp1UgtBFkGNPFMfZ0vUtEUU7xO7h/D634Ind/OA02aXCl8PHfS9t27rEckxw7/i5OSp4xcEPSoRAuBoRj5aTxYz3dUEvS9VoCXUcLwhilz+wdd91L3Xr09PTVd2O2iI5asls4kHmnttcrSQvPS+J6tP8Tnjw9IKh9et9jaOw6WqkqIQw+FONGv6TUKHF8nzRlutbHzYzTZZdcGNE5PeFkovJGQD/4+eFF4mYThtm20VVXRg4IhUKeNnVl0GqM0BBbNG2ca0/jQnXhkg/zkCkIt2uXGw0ZtmvjBgeZIQ5eP4iMjM6RATmG9wrWfO/uXfTWu0vyfATkxxrmtrAqOYdGuADT7ZHYvACSSJy0KasF03Vql2Q7QWz6Bg2vjgkX3Mj/35P9tcwXOsKnG7Uno6D8SMCuW4dOldRbRwPVTSpjtb41qlWJePHpje4rTJdEN8Tid9towkX/Xuv/QblAZWTziS6RCPfqKy8TIep/2mq4KU+40Qmd3QqT29t92I26Cad2VU4HqSFNmDJN+/itGrtutQuYL5y+rvhg3NvrdqV263d5eNi/br2pk9ITQmK3+P1llicCVRSYF1u2xB5jbNf6OiU2qrWSH1tz2kXVM8n6dzPhyrWzCwpRzVEqAuZcI4lCuBg77o/kHKyKG6Q84WLyOArcLDayV7cm2D1hmxw46BmlFqprO4bATRZJTWQ1VpWg6f69wRWXRVTHWFWMv5VGEv1+tx8i3fHrJIWRGpJV6XHzsc7uwlQ1f6exmo+punOyazdi9Fjf1z/WMQXxvJQn9H35lfWNeoH4ua31JgOb4OEC+7jMZZFIhKvCL18QLkCA7QfhmNhsXqK8cATSievXORaDbO+6936RYOY+JYGrFjD67zrhzU6FDXHh1O3mGx39mKWWMu/tdzxfKtrNS1eDtPNWgIbRtlULZVIZt3XG5HjdmG6c1g4YThY+3zo+xW5lINHaS8KF3fOBvo8YWeVg08XRe+6Cd7UvsqRsY34obSV9oZlwnVfcd5LRFTCQbtdbOisvMuz6Uzne61w0YaNVEkm35729MBAcpEucarND+7M6kutkwXJbokh3fWQ7fLR++Xmbo0ufnVkEGmi3mzs7XpSqTCpO49WpKqIzX6/VfHX6TrQ2knDhR47SVp9//jkhtSXyIrtRPKQyg8vOF0eMosZX1TMUg0QiXK8mBZzM1n+5joRJ0nD1PEUk6T9beC35UZg2EKLRFTJJil4Sr6iOojq343bZp3THr9NO58ILJoH57yzOFVWn478cXdRQZzxu2+iYFTD+Jte2yFMNV8f+7MY1LnrsOqXRdecL4r/plq6eckToviMR2knCRUjz4GHDDTKB9wD2oK7yAWUJBItcy7d170m33NaVLjn/HDqlYqWEIVyQ5rWNG9K+3/cYbmhWrmpWJgUE0kyeON7Q+JGoHz/kxa7wr1Oos3BZjDWFbFwJF5OBFoRik/i5DYxwcklSaWZhaTU6hGWlreuUjdENPIhlo+vYwe1SH+qYVKwygOmOV+djhr503MbQLgw8decWVLtowkX1jDoXnm9cLkHr1QnXltF9iFyE7R5BBYlIuG7dwrZs3UoorYSPDyIxMT+Z3EperNaoda4n90W5nnEnXEm68ivrhnTttFxoh61FFVcnP1JoZfg6P9j34UAx0Dn2WhGuDlFjDjBFBBkhAztyr57dHc0CdhousoMtmDfHcR2sMoDpkI0Mczb7lFo9J08BKk8VMzGryvDojC9R21gRrpQ1XbOCNCecKKKzln28Mk0GISSahqtLuPCyQDUQFKYFyaJowFVXNzbq/W3b9hMhulMSL2T9UhHAMWnqdE+84emhIITJq6aLDbtk2ce58i3oHGVVDvt+zVGHcEEKbwuTgpk4VRp6LA7rbuamk/7Q7uOl44Mrcxy4GRPa6nxU0U4Wffzqq69IRf7HtbzYNpTbeYTd3opwzTmBixcvTitWrbblBVyktr++lVHXr/vtvQyFJdkJFxf3MqwcZbHuu79PrgAcyNoLw4cZxJY5MZMAAA8XSURBVAslDtyBi8IOHTu55k/XDwQpIDq38tHvt7LD6txeYyO+u3SZb4lx7HBRaapYaAg5bLhmo/zF59eKqNIGdux8c+A2Rx3Cja5kK7FQ1bWLxQatcykqCRcuf8iDAUd4nSQ9kKk+Dz0cs70uyL3itW8rwoW/ejtBojgtICrLKlJMvk+aE2DjXPTBcsOrIRUIN7o4qBW+UrOHRuzWjS6hTArmyYEs4WKiGz1kpV3pHGWhIS5cvDTQ4zjmpbIzWnlK4IvarNFVjhh4dVZ3u1F1CNfqtIAjfyth1nGyn8ocB17SVOqcYqTGKsM+dezREp+wq4+4XRev7a0IF32ZzQpSc7V6Bz6iOHrDO0Fmikt2wgWBWik90fPHR76LcGdFZjp4Y8yYM9+173ZCabhygjqEKdtabVqdo2wYhAtBbHt9S0fSsfqy6vi/hkW4Ogm+rUJDdeYQix1d50JOkj0+rOXLlzdkXTe8XF6qzpz7luv8Dl7JMIzn7AhX5q5G6k47bwV5qoA90+xCluyEC7ut7mlRRk7igtFL/oWEJFwd7ciJcHUjvILWcHWSY1vdjAdNVm42to63BIhzgSA1c/ikTvL5WHxwdT7KVp4o0vaLixHVBa3f4dJucA+qrR3h4n1y39gFQci8xmgrk7njv5OdcA+K1J+jx0+iJtc0VfKhlDt8dLwE7ChfENTCq/rVuWxCH1Yark5CE68JO1TjNv9dZU5AW4xj2cef5jJt6BCuKmmMm3E6tYWJ56n+j9p6Kdi516mek3P3mixI9xRz0SV18twouzFb4eg4cdqrWpvRL8yD7MeJcOWes/NWwLMIyTebE1KFcHXzaEgbNooOWMmWau0CI1xod/DxUw3A7u9ubHRm9y7plK1T8trLkUB3Pjoanp1bG+bQ/JqrHW24sSR90Z0D2ulc+lkdQXWO/NCMJ0yd7toOhnHp5pho3ba9Zd4NHcLGe2TKxjnzFwZ+wepmXby2dSJccyBS9KWQNC3hvb37PJTrQjEVNFyrXCBWGEu5BuHWqFmLXn9zliuOc9VYZ5FBlIMHDqCv1q6kdz78zNNmwnug5bVq1lhZDy36hlw3oUmQblW49UXdMVVIrFOkm8pLARh5NdzrrKNso4rmsrvdVYUlS++MN0RdNLd+xMAXyaVVeTicTBY6F5MSg1RyFXMiXMxXepZE55CV5gTYO6NzLqQC4epquDKCNe4aLohu1IgXRbmWtYbrDSI1kEXIyw00Fl73Rjk6UgnP9X+kr1aicxDeNFGy3O8sYTqpGe3cweQmV/nhop0qvNkNsdq1Vbl22SX/UZlTYrmU0jG5YD6q0G03yeJTxVVMRbh2ZgU8t3fPbqNcU7RWlwqE69aGC/myOz057buYNVwQ7ZSJE+iTFR9RCVFQ0ax1QDN4RZQD95KFSaUhyeMeLj5W/2ddzjzwBZo4boxWtYIgtFzdTYwN3E9UZejavYflGujasFWk4pZ0sXmwhrjVhybZpmVzxwRDVpd+Zr/OeKZl1Em7qWtaAI6xhCG7XYeg2qsIFx+zFk0aGidLRF/B9UuaGpBbwEpmk51wUfFBN3GPVECQi2LA4CGugx88Ey7sjKNHjyIU5LOrWuuV0HTCSSGQVsdZ3CIuWjBfedyUAu3nTbSO3VJ+KGAjcyogqeMdYP7oTHn5Ve3UenabGcfs/v0ephGjxhiEizVu1fwax8oVVv6q0h3OiTRi8cHVPf1YJQWKHpOutixPFNEXRkERY1D9qggX75XeCnB9gm1zyeLFNHXSeOHVkZ4nyRLaJzvhytBeVQVqP8oEuSZcgDtOFFxDkgcQraruFTSwm7t2146IwqT6iTLWqsTdWGgrDcaNxiKF2u0YozcD3NgGDXiaFr41R2lzlpqS6gijmytAki5MOFNFSXkvpwn0AYIH7uaLAJ1oLhAnTjHmqql4DtUinGQjFpcwnUxw0mSDyy7pg2tHYrqnEilzza5rnSczWlAE6Xe/OoQr8QXB3nHXPfT++0uMwqJ2OQSSnXBxolOZjMynNuw1LxdmWEvXhCuPHEhUofvTTX0Hd51BTz9lJI9Q+Uha2S91S+pYjRtjrH3hxdT/yadcaYoY8zih6cO+pfr4yA2LeG2dihU6tmA5F3mb/shjj7s65phPKthg5jSLKk3SjtR0PEyCTsuIsZ0lcpjq3iK7+VCHlYdDd3+5aadDuOaIKhTfPCKSlTutlxfC/WjVFzF5ffhZRBKECz6BaSHaAwPYgvPgCCALq+Kyetprb3qqfeiacDEA1YWIHaGdXOEUurVrN6pTty4VL1bcaLZfEN26tWtp/vx5tEmUTtYN6YXQR/tw6iT8dhJOgA4n6GYtWlLbdu3pzDPPynODDs1zx47t9OH779M7C94Wx6lfjHRuqg8E3ov+cSTVLYSp4x5mno9MIXeq+BhKnJE6LzpxMvrdsuUHmvnGDMP2Lk8qOIJDo5HVL1QmEpkLIXo+qucwZgitVSVVHfLQIUe3JgvdZDjyRIH1hofFGVWretpDOvMMoo0O4VrtcSt/cTk+t4TrZV6Qlw8//iwHbz8JFyaFCy68iL5Y/ZmRiB2hu9eI/M5lSpemtf9ZQ2vXfJ5zPwUcUNXba5ZBT8LixnE8mhBgF4ImhUgN/PBVwU8nqYjsyy4doKyzpKNpqogXJg1UIz214mlUrFgxo/nhw4cNTfa3XbuosPgq6mji8j1SA3VbgtuNlmt+l8T5pHLljSTT8ndQ4I9YeMwP8ePmS85oFztVNJedl4TOhZ/XtIy6pxgvYcNWVWjt5CQMDxEvxKR6RpdwpYM/yEc1V13C7dy+TY7JTe4H1Xjl30G4y4VWLD9wfhIu9gK8leTlPxQolCDCz5wPF65yPXrdq20etZqbJ8LFZFGTTMfOqguobjssPvJwvibshtH+mzpHWd33RBOl+TkdbdbqQzNmwmTXxxCdG3+nOVkJtt34QbjmMao0Sa8+uBgvxrVo6YdK+2r03HRPMV5txKo5m8eDj8YDffslVVaxyy65MIJx44M8/KUxtuYnaToE+SDUd8SYCWQXyAQ+EHuRzj27Gv36vy204otv8pjlcDfTsnE9+tdp1dxuQaP9N99tQS3EXITb6KrLjb8dFUpbdIYznERbNG1sjH3Pr9vow0+/zHO/gZM6tFfz32WgDxRBWfEBqSirC/PUvb3vjzni0BPhYpL4Ar44fKi2CcATylEPYZPiy2PnaqaTltGPcbjpA2OGC8mocRM8LxZsajdc10zrQs7N2KLbRrvx6fjgWkXrqZ6LpdqGzoUc5uU125fbU5KO61ksa+L3szAnyT5Llirl+MEzt1WZTlRtoTj8IWqExfKLHoPqnea/ly5TxtK0hvEcOnzIqFohTW/4qH+/+bucmmZVq1XzfBkdPV/PhCs1L6/lzt0CLxMEo/CdXZIJVRiq23fG2h4EhoUeOXZ8zAvm1YyjO4foCzCdTGd2PrjNr2mkTMvoJQ4dc8Epps+9dzm6qqGdqsioEy5uvBbCCrHWXUdul9gIeCZcTEtWZcWX0u0x2w0sMCMgpPD5l0Y5aok6wRJu3htLW5DRxXXq0iDhHK3SDnTfI4lA95JOt1+0iyYOaAcIenCyh1tVaNXx3cWHSDcdXvQcdE4xVmkZ3WCBtm4uhv305XY7Tm6fXAjERLiYqsp1KFY4IMzwbhg87DllCK5OQhO4ueBo4+bCy80cQCb4BVUvDRreYyJ0Gb6AqlwCbsYdfTGC4JN77uypDHqILm+kk8silly+OqcYP7ROt6aFZHYVcyMn3DY2BGImXLxeHnf91LxAAChxjFvBO+7spbxcgYmjaaMGjpo2NjpqEUFbhr8vfrF6NEj4zS5ld/S6y5Uvr9sllH6BMPj7hXm054cql6/UIlHE0ux2pqOBxkJOOqcYrxGO0evg5p4CeOAjOG/hopj8S93KArdPLgR8IVxMGZpN/0cepp3CRzUWE4Mkrprnnk/3P/Cg9q2+zlHWfJEiI+ZQWBC+d27c0swkK93aGje9lm7qcrNSC/dTPKDtjh71kuG/jDwW8Cd0Y9qRl5CYA3x3/z1gYA7ecO2aOG600a/VDx+tM6pXzymzIttIkrJ7Du3wIfVSngTPIuwUJxTpVmg1NszHr2gwmBaQkAm+yqof3lvvivqeK7qq+ue/Jz8CvhGusZGElvn2W/No2pRJtOvXnYaQ4uiOnxURSJcleB5AWLFJkWGsVevrXd/o64ShQouT9a3k0oGoly55j5a8t5g2b9poaL8YNzY0CEz+ZJ16kDPaYKwI77tKjLdps2t9s9N6ESkQ72IR777q4+XG7TzGLn2dreYgPxIg2SuuakANGjSgi0WibrOmivDOL9f913E4cBaXQRKyoc5zaDt46HPKU4vVy+G2pYNRi5atbN2YdJ6XbXCaGPH8cO1H4CrZvmMnX96t/VJumDQI+Eq4ctbwgdsotK6VK1eKKI0vjGABuEaBqEBYkgzgT4tb/IvrXEp1RfTZmWed7fk4prIl68TWywisr9avp30iB8SGr78ygh4Q8IB/1zz3PCp94ol07nnnUeXKVeJKslYSBq39519+Fiky19GevXvpp61baK/4t/ydISrXli1blmrWrGkEQ6CSrSrPQNJIMg+UEUgCBAIh3Oh5m33w4PMmw3r9ur3H+1ThpHZhqEmwRjxERoARSBEEQiHcMLDSCUONJSF6GHPgdzACjEBqI5AyhKsKybQLQ03t5eXZMQKMQCIhkDKEqypJ4zW2PpEWi8fCCDACyY1AShCubhiqKul3ci8lj54RYAQSHYGUIFyvYaiJvjg8PkaAEUgtBFKCcHUSmjglUE6tJeXZMAKMQKIikBKEqyqNLn1wV6xanRLzTVRh4nExAoyAMwIpQUCqhCYg3EoiUGHe2wtTYr4s1IwAI5CcCKQEAT304AOR5R8stc2ehfwMDZs0TdpKq8kpWjxqRoARiEYgJQgXaRmRCN2cN8A8UeRqCCpdIosUI8AIMAK6CKQE4daueXbEKc0i++DqigO3YwQYgSARSAnCDRIg7psRYAQYAb8QYML1C0nuhxFgBBgBBQJMuCwijAAjwAiEhAATbkhA82sYAUaAEWDCZRlgBBgBRiAkBJhwQwKaX8MIMAKMABMuywAjwAgwAiEhwIQbEtD8GkaAEWAEmHBZBhgBRoARCAmB/wc1iKdjoRcM5wAAAABJRU5ErkJggg==;" parent="1" vertex="1">
          <mxGeometry x="867.8" y="190.5" width="211.2" height="88" as="geometry" />
        </mxCell>
        <mxCell id="-n0s7fdAZKVhsjs20yD8-62" value="" style="shape=image;verticalLabelPosition=bottom;labelBackgroundColor=default;verticalAlign=top;aspect=fixed;imageAspect=0;image=https://upload.wikimedia.org/wikipedia/commons/thumb/3/39/Scala-full-color.svg/1200px-Scala-full-color.svg.png;" parent="1" vertex="1">
          <mxGeometry x="1085" y="278.5" width="85" height="38.9" as="geometry" />
        </mxCell>
        <mxCell id="-n0s7fdAZKVhsjs20yD8-65" value="" style="shape=image;verticalLabelPosition=bottom;labelBackgroundColor=default;verticalAlign=top;aspect=fixed;imageAspect=0;image=https://intellipaat.com/mediaFiles/2015/07/hadoop-hdfs.png;" parent="1" vertex="1">
          <mxGeometry x="469.99999999999994" y="136" width="253.48" height="119.6" as="geometry" />
        </mxCell>
        <mxCell id="-n0s7fdAZKVhsjs20yD8-68" value="" style="shape=image;verticalLabelPosition=bottom;labelBackgroundColor=default;verticalAlign=top;aspect=fixed;imageAspect=0;image=https://upload.wikimedia.org/wikipedia/commons/thumb/b/bb/Apache_Hive_logo.svg/1200px-Apache_Hive_logo.svg.png;" parent="1" vertex="1">
          <mxGeometry x="513" y="731" width="228.89" height="206" as="geometry" />
        </mxCell>
        <mxCell id="-n0s7fdAZKVhsjs20yD8-70" value="" style="rounded=1;whiteSpace=wrap;html=1;fillColor=#f9f7ed;strokeColor=#000000;" parent="1" vertex="1">
          <mxGeometry x="920" y="687" width="390" height="164" as="geometry" />
        </mxCell>
        <mxCell id="-n0s7fdAZKVhsjs20yD8-71" value="" style="shape=image;verticalLabelPosition=bottom;labelBackgroundColor=default;verticalAlign=top;aspect=fixed;imageAspect=0;image=https://upload.wikimedia.org/wikipedia/commons/thumb/5/5e/Cassandra_logo.svg/1200px-Cassandra_logo.svg.png;" parent="1" vertex="1">
          <mxGeometry x="1100" y="711" width="149" height="99.71" as="geometry" />
        </mxCell>
        <mxCell id="-n0s7fdAZKVhsjs20yD8-73" value="" style="shape=image;verticalLabelPosition=bottom;labelBackgroundColor=default;verticalAlign=top;aspect=fixed;imageAspect=0;image=data:image/png,iVBORw0KGgoAAAANSUhEUgAAAOEAAADhCAYAAAA+s9J6AAAeEklEQVR4Xu1dCagcRROeSDTeERXxSPBEBS9CVCQRIR6googXJB6gIGqUEIN4iyIqalBUREVFxNuQmBhUxBtFggfeZ6KiUYjG+8RExbW/YecxO9tdVT07+3pf3rcQ5P/fTFfP1/V1V1dVV4/J+CMCRCApAmOSSqdwIkAEMpKQSkAEEiNAEiYeAIonAiQhdYAIJEaAJEw8ABRPBEhC6gARSIwASZh4ACieCJCE1AEikBgBkjDxAFA8ESAJqQNEIDECJGHiAaB4IkASUgeIQGIESMLEA0DxRIAkpA4QgcQIkISJB4DiiQBJSB0gAokRIAkTDwDFEwGSkDpABBIjQBImHgCKJwIkIXWACCRGgCRMPAAUTwRIQuoAEUiMAEmYeAAongiQhNQBIpAYAZIw8QBQPBEgCakDRCAxAiRh4gGgeCJAElIHiEBiBEjCxANA8USAJKQOEIHECJCEiQeA4okASUgdIAKJESAJEw8AxRMBkpA6QAQSI0ASJh4AiicCJCF1gAgkRoAkTDwAFE8ESELqABFIjABJmHgAKJ4IkITUASKQGAGSMPEAUDwRIAmpA0QgMQIkYeIBoHgiQBJSB4hAYgRIwsQDQPFEgCSkDhCBxAiQhIkHgOKJAElIHSACiREgCRMPAMUTAZKQOkAEEiNAEiYeAIonAiQhdYAIJEaAJEw8ABRPBEhC6gARSIwASZh4ACieCJCE1AEikBgBkjDxAFA8ESAJqQNEIDECjZDwhx9+aH322WeZ+2+2evXqbNy4cdnmm2+e7bTTTvhvIzIS40TxRKBvCPREkNtvv711zz33ZK+//nqwg/vuu282e/bs7MQTT+xJVt8QYMNEIDECtYgB8s2cOTO66+69zL1XS2a0ML5ABEYIAtGE2H///VuvvPJK7c9z72fu/Wi5tQXyRSIw4AiYyYB9H/Z5Tf2wf+R+sSk02c5IRsBMwo022qj1+++/N/atILQjoll+Y4LZEBEYMARMJDjrrLNat912W+NdP/vss7Nbb73V1IfGhbNBIjAgCKgEeOONN1r77LOP2N1DDjkk94AiJDF27Ng8VLFo0aLsuuuuUz/zgw8+yHbffXe1H2pDfIAIjFAEVOU/7LDDWk899VTw855//vnsoIMO8raDfeTxxx+fvfjii8H3XfuZa1/txyDi++CDD7Z8/Rot4Rg39i2Ep3755Zcchj333DMbP358Nnny5GyrrbbyjunDDz/c+u+//7pgO+CAA7KJEyeOSD3oVTfFj3YB+BZWt9APAXr3dxW44447rrVgwYKe2+n1Y/vwvpeEX3/99RqtULfccktr1qxZQTjdeGduvEN64cVMmsz7MG4D1aRIILcPbLn9oLfDbhWIDcB7wUfjIzh+OOpIqFlGGM9TTz01c0kcXt3adtttW8uXL+/SKZIwMC84U7I1f/780KyhroDlF6XZ8+STT87uv//+qPYGZCobVSS89NJLW1dddZUKPUmoQtTxgKb4XiWr49X85JNPWrvuuqu3dy78kbnwh9aXuC8bnqdHDQlj4sQkYZzyaYrvVbIapmjRq6BJ6h7Q+hL3ZcPz9KghocVL3o79ZpJlQ3O0WzE1xfcqmTMtM7cx197tkPbNN9+0nMdMokZUe8PDMVXKqCHhyy+/3IIH0/e75pprsosuuigfP4wznHAh/SAJGyKhZG6E1NYwk5KEKufTPYBwjAu9dHWgTEBL70jCSBI26Zi54IILWqHgfZOOGexdvv322/xLkTjg9qH9JPeoWQlvuOGG1rnnntulQbE5wCRhJAklj6YblMwNiknBXdys5QKxwYmyjnlbbuyJJ55oPfroo3CLe2Vgr3LmmWdm06dPbzo7Z9SQUJhETTpQDAxJGElCyaOJppzyZ0cccYQ6CFtvvXVrxYoVQRJag/7VBhzxWscee6zFChp6Ztq0adncuXMzl4qn9tvQ8Kgh4ZFHHtl6/PHHfZBE4UgSRpIQj2vnB6UVEftApKXBZAn96p4vdGRqSelwGoHqhFk8bY4aEgp6QBJqyqb8XQVQ8oqV23bmylDu4NKlS7N58+aJZS+Kd137mfO6qf0onjd4Wc2Q1J0ASgJGDQn32muv1rvvvsuV0Kxd9gdNyq/lftrFdT6J5G6XkWPqg6b4dfvQIxFHDQl33nnn1rJly0jCuoomvBdDACnQXrdrMfIzYTauKz9/D6u489xG9aUtcNSQMLSXczhE4cY9YY09YT/MQLTpzMrgcRcfo0Iu8p7YV3o51iwebSR0HuZWYG9PEvaohFEAIgY3ZcqULGCWmLrizJpsyZIlUfVlrHmLCHXggHERG4R399lnn0X2hto39Mt9VxQertFRsxIK5U2iMONK2MNKWH617qpUNx6onV+zHAy2HMF59dVXs/322y9GqUhCmqPqBK89EKNwXW3hvOFNN90kroxYYebMmdNTvVHBFEIIxVxCUQu34Oyk+6YYTEhCklDjmPr3GIULNhYiSRMV1bRsm5i9pTG8EYPJqCEh94Qql2o/EKNwSUiIlDSXleOVXSeR3L2Tl+4P/WJIPSh7QkwuH3/8cfbzzz9nq1atytZaa61sjz32aDRFb03yjgKvTz/9NPv+++/7hlcMIweehKHsfXwk8kVd2lrUN2ipbi7LJyalrdZKqJ0osSS0l44MiePt0s2yc845p6MYFwo0LVy4MNtwww073v3jjz86SlBiAlxvvfWytddeOz8j6CtLgdTFjTfeuKsPeM+XGljXMaM553DniSs6FdQFvH/vvfci37kxvFCHN3L74pUdpcCh3vfTHJVIWMORkrl3Ws75EhyIyDajSaiZ1yCNy9EUx8UdH2q583sxk20GJV28eHEeFpLuEqmciqgdGw4lYtQloZR/rHm2+4mXG4SeOdRzA9CEfpIQJfJmzJjhVbg6xYGwCrgSjUEFHoaVMKjYmpPJuKcVyenCNtnbb7+dhTBtioShrUIdEkoONcnvoK2ellkMeL355psoahZ6vGcO9dQAZnUEuUMdRO0YDLilLGLoCyXzsU7IQwt3RJ7oiFoJ3WqU1+n0/TQnllZ+0qJQxTNtgnhfGTQSant46TxjU1c3SHglWwmxOl177bVZIKHXO7iuUld2xhlnRNfjlJTPzarYp0RNJIKDoeh3THtmEgpHgTJjoavapmEMQZsiYaj2aMxKqFV3k+q7uqSNPFFjGH4x+tL7nvCFF15oHXXUUaiMVvvbsFe48sorTSfesdJefPHFKIcYlBdTdEraX0KAZT9W6YiJhFJVAbSneWQtiQYurzY/uDxp0qQhh8uXX36J6uZwtpjHS1hZQpPAGJjJVQFw5vhu3bKSUBsr6foE7V30FRMfdGvq1KkZnEj4t3LlyrxavKWsY+l7h4+EmllgHuX2g9I5RNjyl19+uVl5LM4UzSGDbrkVHnulGFBVEmoXqmLPIZXgkEI0BeaWvFelVMnQ8NUhYczYW0ioHZ8zfK9oNVi86trEOewklDJWYgag+qxv5dFMkJA8idQRaXYxBERXRBJqBLI4gSTskSfrTC5zny1ewtQk1Pa+GoGkVdB5WLPXXnvNvCXSwlltXTTjH9JdsYEmvEsaSQtFkkrua22U/4480qI0H2ZM6TKb8nsxNXNK73lJCEXGv1CxY7xv8exq8UTXTLQCaCtiKhKWVrfgKma5LkFyfkU63fJhNkxc0WNQ1WexgTrepbaTIYY3yZ+t4+Bpd9qrMG3zOPhdVrNXUgALiX0dcHuplruKLti3VCRE0P+SSy4JOvsiSis2VitXm2z7vhJa94Bw36LYEgLg5Y14Eb7A7NXLHffDwdAeblGK9ljGrLiSR7XOKlhgKZm4qUgojbO1HpBkOcSWZiz3R6ks0Z+VUNsYo4Mw++68806TfQ2nCPI/pYJPGtlgtiIuqAROtWa6/t7jJaVRJLQqk0aWHioB5E1LSjVoJIzxWIf2cFpKm6Y0ik+hPyTUShQi5ufcuNHCLa72KiBISbrvvvs6zvkZN8watlmdPUKl0SgSagF5T4e97ceEZXwgSGbuoJEQ/beuYiGnTK+TlqJv0TxQ94SaRy/CNveSwBpEhScLK22orinM3dNPP93seCl3ptdB0fYK7fQz7/dbkrO19jUPoTb7SB7oVCRsr3jerltXsqZK9Vc7MewklPYhMaaBogjiCmJ1XEAGHA3YZ0nHk4q+1M3aEb7F+x1YYRE0DyU1WEkUcozVSdcrf4M7vNxy3mjvZ6UiIbYF5513XnBStUz+IbLUOfJWBkeJ9Ta/EjrhQYI0YL7l36aZk1oGSYgUIOT777+fIVME96hPmDAhw4q62267mTJ0tBXEai5CkXEfhuSFtHxjaELsVakkN34qEpZipkH90/bvIcdMD97vfMiVwH2zJERa2oEHHujVxZo1QiW9DoJtXSlqkKbpV7zfUBBM2tAjzczl3ooDqCQu9DL4QexTk1DbDrkB1L47aJ3UPUighOq6+oM0voceeih755138kuJMBmfcMIJweqCHQ1IStM0MaTZpcE9W9Okq7YnkhAPS6uOZmJJx64sgWvfx2tpdKlJiD5L5rK2pw6FX+paD4ZIQQeHCisP8oqKEIiBYrsUcqh1NOBc6K1Qsq/FfIrReGnGa3DvGdOlOs+qJNSyjgypa41tD7QDxQBgEEiIfkixTGlBkDy/1guMKoqgecCHOFSYw75c5iJ32fe3DhL2Kzjs024psNqrDV+HTTXfUUmIdnsxsbSkCS0BvPgumEioO6PFageFhNqNYKFFQcs9jck0kqyYkr4McQghuO23374oeVHVjTEYS+BbrZzQQUIlfKDZ4lF6LKVPGc/XRcnr08MmEkK2ZGVIJpamVGhby8KxHO0p8BkUEqI/kukshS0cni3p+Bu2O/DE+o5aQa5WfaGiS2Ve5Ifc2xccteDIRPEtV2snP66G4lLtvOYOLnX8j36n55Q7Lx0t0so89IlQdZo1kxCNS0kQkollPVkCMqNC+iabbJJ7h3GK3xK6KX/4IJEQ/ZISPEKTj7YFKL4XzkaQYtNNN81+++233Kt+9913q9aCRMKSB7eFRBMUz8KYLFiwYExp4QmTUBpszT0cq8HS7FyjCG8uHiYMZp/Vq1dn48aNw0yH0hpRJfcjvyOKhNqqJu27tcLFkf0OPj5oJGx3NLgvC+2ptTBYU3i5djpWQhdhyFyEAf9fC/u/zz//PJs9ezaIPaYUfQiTUFr+ew0QVz9aMn1jPH/YW2K2DwWfIRfmLYCoU15DGawoEvZiYuFdQ2kOk261S094nx1EEkqhs/ZHeLdKhmNIJrza4bnQsx17wi233BLWxxjcIAbOwDTFtXLwjEJH1T2htE9r0lmiVQ2zrLpYVWbOnIlDrSYgi4fqrrIBIdEkRDuSA0wLW1jT/kKgYILbYost8pMvvt8gkhD9lEJaUvhBC8loyoOke+iZkHjR5R0trYZDzRf7TJ9u+2aQvgfRJScFeq0dLYpxNIRANpRI0MYHf69FwnbDQZy1ch11FauIU0XUHS1jEOpvlMMutJobQjW199SwllAbacWKFZYxHXqmiFcrh6s7vr8o0YnVE4kvKIy8aNEi7AmDB7m7ADQ4AaJAr3614bR4/gqcDJiFqrckRZSqUAHv9TRCQUKYu9jcwyHy119/ma5+g2MK5jHeK//++eefvOK1Kzik4ozyjShWpBXegjKhCjcK/0JWShIW2SfADP9QBRx7+CeffFIt2w/rByu4DzNggPBDyOOJ77ZWCYTu4YBxUftHqU8UzJjBqocfPLkgZahvXQ1ozgNLulVI+7W2fe/BuXLzzTejtukYqRCwyrjAAzUDuHXF9eU9OKRwzhL5qt99911ubiJnFl7miRMnqmS2dgpeRzyLieLff//NyVM3Fcwqsx/PIWkBnmN4Qwu8sJebPHlyv3KMxc/wDpAWZ8H+ECZTMbNagLJUO7O0049nms4G6kcf2eaai4CXhNY4ixYkBmyYdS677LLoeFUdyLHswwu644475q/DPWwprzGC0uTqwMJ3BhyBoKkSY/rB5Y37HWAGbbPNNtkXX3yRb4KxIR2u+jI+j1SBvSEJF+cS1T3JgI8luzdCERD3CxEFUHv6fOlUtaVhS/kDLSwSW//F0i8+QwQsCKibdi2B2CJEeqas/MhywJVfy5YtMzdrcW1HrIgqHlLH4PlFxg4mBaQrwfOHhF5s+GP2z+aP54NrBAImpevXihgqGAVlnjt3bjZ//nwR5NgK1Ghs2rRpLdw34PvVqRwAj++NN96oluyHlxd3cLjArwnzNUK7+BEmBMwKYTiOYxJYWpWKbPPgezAhzz///OCFMHXifFKgPzZcYYipdn0byAjP8kh07UcNMB82I2AmYdFiHcUr90ZLy6r2XHIQ1cl6kfIQYwpM9Zo+pmUFmUeQDyZHAClpuMmpuH581apV2aGHHoqruU38Mj3k+0qsKBb3P95FgP+0007LZs2aFS2vaRJKnlIrCbU4qkUrRtCZScvnjOpnfCc2Ykq0RJOiijZiinA++FKnahS77RpM6UiKlTTlRiVz1FJHRzsig5UeJ9hx3x1S2ObNm9eoOT2qtX1APz45CYFLqB5IEycvpJMddRwzkhlpjBV6E5mlanShbKEmJqkB1ctR1a01noTt0Yw+1OnTAkPqnGgZhFZRSyUAJFs7c7yrW0biD70HbyxKJsCcHT9+fF9CH7BusIo3mXeKD0D2FCwEKcnayl447X799dfGMEB7P/74Y/bTTz/lCeKbbbaZGVuf0zLmqoiezdF+r4RoXym7YbqrQEvFC92xXlYKHNR0tUK79MRabMm92DWZWA5LS/tvrKbOAZCdcsopqtLg9AQSr4vf33//PeQ8ALmvuOKKLtMZqYAwsV1GlFdX8N7ixYuzddZZZ6hdFFtuny7PTy5ceOGF2fLlyztwQ3wY8qyExPjdddddefqjL46Mkw/Yh7lzf1E6jYO/SL8MFcAKpWbCQnv66aez9ddf31tGBFbaMccckye641fGuqpAUR0OzVL9NEch01J4RwraG1ZA9dLOEIktq2CBW/UcZXFvuktQ8I6DdpdgdTxwctsdWg6OaeAs3xjL+czQzO5zdBUecCkmW/TdEpsNWRE+fbSuQBadKLdftVg034Cvb6GDAj2TUPI2QsmQ0+mqTfUsByUCtEwaXNd20kknwYzKMUAY4IEHHlAvjUFBHte22MfQd8Y4h0CqlStXZpCnmXqGkg7eOVGqHOBbydv9N1mBvpBQiIRLlixBaT+1Xc1vIBUCDjWuVU+w5BL72i6nR9YhYSi9sjY5Yq+3jqkb4wPAehhYHXXPA5bUt9BhYstMHtsnLc9Vay80MYTMaa294u++Vb+uQpdlhpIkpBUafcEkH7oOXakvGvQxtCcFLyTlMhp1SNjYStgLGXDQ9Jlnnom22wtEmircU0bYmjwglOSoPZGFlF+KQ2KPsssuu2RwSiC1z7dHbbfb1S+JhFg9pk+fnjsl0KY7RB3qXke7GgmR1YSVH46eRx55xFuQS6i72kUW33j59CJk3YRW1upEIIxB/v3FnhCOJpwYQrC+/OvbntCyd7DMqpZ4XKgdrT6NRX7xTMzJCV8iez8C7qFVMBSOCa3QvtUwRELfeIQm26rVECJhiATCgYAOcvu+S5owfeSq9jW0rxfSFbsmAd+zvmrh1r0pdNE8izdFwIIAvRCxiRXRugIW/fXFF/sR5xNwDo6Vr1y7L27pI6EyEXUpYbUIVYiEIY+xYEl1fF/ABxDEwOfEqnqefaEEaQwdhq3iEAEmlYMPPjg7/PDDuy6u9cluPGNGMzliVp/ys5a9WKhteLdw6412t0L1fYCO2axaQEr7hvKAFM/CvHamiHki02Tg7z452o1Cwv6ko28+EkqV3Xx9sayEkqNLqDM01FffimVMzOiYNKpmru80kLRiwSpB0S0tjDIsJHS6od1MY9Ev0x4jtiFrBS3kryJeNWPGjFqkEbx0tdoLfaePKJrVEDJhq0nivrYlx5KvPqqFhFK5EOGilyEcfaslJs8ddtghLy4V+lX3x9WiZL6QSa8Ow2J/WK1L2uhKaDH9YNodffTRQ5WqMJN99NFHeZA35L0qgGwCBLQFRUTFsaVLl+aBUfwQQIYTo4lDtaEzlZZT/TETiy/majwt0jVRVgk2UkhoiQtbMK1eGuPDVoutWuQMx0oYXAUxO+F6aunUuHEv2ehqYgEu9pnQaQ4jQWLEdeFtNNu73qvuy0YKCY06o2LqKc9ZK2NJE9RXEmoHea2rgFYxWqs4rYEwHH8PmVExHlbhhqHyJKQ6QwLfu8ashL49LkxcpObhrJ71t+6666Lc/xC2PmfPwK+EUlmL2FPoUgpTjDvXOgB9eq6nUvDC3edDiuJbrTSsQzfwVifJkbIS+lLKtCwYy3j7cpAtZTu1tvu6EiqpYlEm5JpwPXYoxmUJd4Q8zNVQgs8jqa22PlPZF8McKSQUrvWO0rkqeXz+Dbc4BK8c8OHqC/34SBizsGgf5Z35NZe5b+bQTjG4d7S+aBNS3/8uZQtpHszQKlgNqlvDDeWP9ZHL550bKSTEt/kWAMki8O0jq5NjyOET8hD7smZ85PLphXT7clVRNcX3ktAy81v3LaXntL70nWQWAdLNsRig6h2ImCWRAhaTXub60YV7aDUMWRi+c4ojiYShTCBf/mVogg84zbqw9d2vEiKsLyc1FPu01hHSFN9LQs08EpRZijdqfbFwpO/PWJOr2+ag2J/Q6hlSQCjL1Vdfnd8+jOuw77jjDu/1AqE43UgiYRs4r75gsnPJFnkJEVzsglq1gV+XTkmFyqDXEyZMyN566y2p3GZIT719RaI5+okbu1z2jfddUfFD5wSr8ReL5ktn4yS73NL2cD/TRAaRZtL3eOLBO64jjYR1TioUuqBsD2oln0htWo5c1TpFISVLxx7hkTytMZvY4SZcSF4vp0ks2RQwsaZMmRJVjRx9lcZlpJEQ31PnPkoNX8HxE1Qvzfoz+Dzsl4SWeyF5NI25fHlzQqpS/nfpMpdBIV2oHzF1WGFBXH/99WrR47Is66kROAJQCVzKc/RZNhJpfUnr1Ziu7/CxVG3AkrZWxTomg8Z6yBqkmTNnTrASXrkP1iLTmJhxsDyUzxzypVj2YcGlW5tx8CHGPZSlHwPNR0xYSNHD6X/8+/PPP7NJkyZluHwSKxpM7uLm19gPwcz92GOPZS+99FL23nvvAdNs7733zvcvaBsToqWiN9qpytZO+BcXgxbv+UhebXfs2LFiFlW1TbStJUnjGZBx4cKF2VdffZWhQgF+G2ywQbbddtvhZENHYN6KMfoOB85zzz2XkwftIt0RZTxRwBeX01rbKp7DxPThhx/m6ZO4hBT7QSS1YxL24a0K0O6hAPNxZMSnBBabvgdPayw2fJ4IDCQCKgnbvVY3svDcTZ06NT+ZjSRq7TKXEhrWPgwkgOwUEegVARMBLCtanY5o6Vh12uQ7RGCkIWAiIT7K6iCwAjASPaLWb+NzRCAGATMJ0ai2P7QK5j7QihSfGw0IRJEQgPRqmtIEHQ1qxW+MQSCahEXjsauiJZwR03E+SwTWFARqk7AAACsjkloRx0L9xeKHIqqI3SCE4f7bs5w1BXB+BxGoIkByUCeIQGIESMLEA0DxRIAkpA4QgcQIkISJB4DiiQBJSB0gAokRIAkTDwDFEwGSkDpABBIjQBImHgCKJwIkIXWACCRGgCRMPAAUTwRIQuoAEUiMAEmYeAAongiQhNQBIpAYAZIw8QBQPBEgCakDRCAxAiRh4gGgeCJAElIHiEBiBEjCxANA8USAJKQOEIHECJCEiQeA4okASUgdIAKJESAJEw8AxRMBkpA6QAQSI0ASJh4AiicCJCF1gAgkRoAkTDwAFE8ESELqABFIjABJmHgAKJ4IkITUASKQGAGSMPEAUDwRIAmpA0QgMQIkYeIBoHgiQBJSB4hAYgRIwsQDQPFEgCSkDhCBxAiQhIkHgOKJAElIHSACiREgCRMPAMUTAZKQOkAEEiNAEiYeAIonAiQhdYAIJEaAJEw8ABRPBEhC6gARSIwASZh4ACieCJCE1AEikBgBkjDxAFA8ESAJqQNEIDECJGHiAaB4IkASUgeIQGIESMLEA0DxRIAkpA4QgcQIkISJB4DiiQBJSB0gAokRIAkTDwDFEwGSkDpABBIjQBImHgCKJwIkIXWACCRGgCRMPAAUTwRIQuoAEUiMAEmYeAAongiQhNQBIpAYAZIw8QBQPBEgCakDRCAxAiRh4gGgeCJAElIHiEBiBEjCxANA8USAJKQOEIHECJCEiQeA4onA/3tN4/8NZANVAAAAAElFTkSuQmCC;" parent="1" vertex="1">
          <mxGeometry x="184" y="-277" width="149" height="149" as="geometry" />
        </mxCell>
        <mxCell id="-n0s7fdAZKVhsjs20yD8-75" value="&lt;font style=&quot;font-size: 17px;&quot;&gt;&lt;b&gt;Web Scraping&lt;br&gt;&lt;/b&gt;&lt;/font&gt;" style="text;html=1;strokeColor=none;fillColor=none;align=center;verticalAlign=middle;whiteSpace=wrap;rounded=0;" parent="1" vertex="1">
          <mxGeometry x="-701.5" y="318.5" width="176" height="30" as="geometry" />
        </mxCell>
        <mxCell id="-n0s7fdAZKVhsjs20yD8-76" value="" style="shape=image;verticalLabelPosition=bottom;labelBackgroundColor=default;verticalAlign=top;aspect=fixed;imageAspect=0;image=https://upload.wikimedia.org/wikipedia/commons/thumb/c/c3/Python-logo-notext.svg/1869px-Python-logo-notext.svg.png;" parent="1" vertex="1">
          <mxGeometry x="-451.5" y="381" width="40" height="43.79" as="geometry" />
        </mxCell>
        <mxCell id="-n0s7fdAZKVhsjs20yD8-78" value="" style="shape=image;verticalLabelPosition=bottom;labelBackgroundColor=default;verticalAlign=top;aspect=fixed;imageAspect=0;image=https://cdn-icons-png.flaticon.com/512/1570/1570889.png;" parent="1" vertex="1">
          <mxGeometry x="566" y="1020.0000000000001" width="172" height="172" as="geometry" />
        </mxCell>
        <mxCell id="-n0s7fdAZKVhsjs20yD8-84" value="" style="shape=image;verticalLabelPosition=bottom;labelBackgroundColor=default;verticalAlign=top;aspect=fixed;imageAspect=0;image=https://www.freeiconspng.com/thumbs/analysis-icon/seo-analysis-icon-16.png;" parent="1" vertex="1">
          <mxGeometry x="1273" y="907.1399999999999" width="106" height="106" as="geometry" />
        </mxCell>
        <mxCell id="-n0s7fdAZKVhsjs20yD8-85" value="" style="rounded=0;whiteSpace=wrap;html=1;" parent="1" vertex="1">
          <mxGeometry x="943" y="1035.1399999999999" width="177" height="220.5" as="geometry" />
        </mxCell>
        <mxCell id="-n0s7fdAZKVhsjs20yD8-86" value="" style="rounded=0;whiteSpace=wrap;html=1;" parent="1" vertex="1">
          <mxGeometry x="1152" y="1063.1399999999999" width="218" height="172" as="geometry" />
        </mxCell>
        <mxCell id="-n0s7fdAZKVhsjs20yD8-88" value="&lt;font style=&quot;font-size: 14px;&quot;&gt;Back End&lt;/font&gt;" style="text;html=1;strokeColor=none;fillColor=none;align=center;verticalAlign=middle;whiteSpace=wrap;rounded=0;" parent="1" vertex="1">
          <mxGeometry x="984.5" y="1222.1399999999999" width="94" height="30" as="geometry" />
        </mxCell>
        <mxCell id="-n0s7fdAZKVhsjs20yD8-89" value="&lt;font style=&quot;font-size: 14px;&quot;&gt;Frontend End&lt;/font&gt;" style="text;html=1;strokeColor=none;fillColor=none;align=center;verticalAlign=middle;whiteSpace=wrap;rounded=0;" parent="1" vertex="1">
          <mxGeometry x="1214" y="1200.6399999999999" width="94" height="30" as="geometry" />
        </mxCell>
        <mxCell id="-n0s7fdAZKVhsjs20yD8-90" value="" style="shape=image;verticalLabelPosition=bottom;labelBackgroundColor=default;verticalAlign=top;aspect=fixed;imageAspect=0;image=https://upload.wikimedia.org/wikipedia/commons/thumb/d/d9/Node.js_logo.svg/1280px-Node.js_logo.svg.png;" parent="1" vertex="1">
          <mxGeometry x="957.5" y="1094.13" width="148" height="90.51" as="geometry" />
        </mxCell>
        <mxCell id="-n0s7fdAZKVhsjs20yD8-91" value="" style="shape=image;verticalLabelPosition=bottom;labelBackgroundColor=default;verticalAlign=top;aspect=fixed;imageAspect=0;image=https://www.idealconception.com/images/angular-logo.png;" parent="1" vertex="1">
          <mxGeometry x="1159" y="1082.6399999999999" width="204" height="102" as="geometry" />
        </mxCell>
        <mxCell id="-n0s7fdAZKVhsjs20yD8-94" value="&lt;font size=&quot;1&quot;&gt;&lt;b&gt;&lt;font style=&quot;font-size: 19px;&quot;&gt;Source Databases&lt;/font&gt;&lt;/b&gt;&lt;/font&gt;" style="text;html=1;strokeColor=none;fillColor=none;align=center;verticalAlign=middle;whiteSpace=wrap;rounded=0;" parent="1" vertex="1">
          <mxGeometry x="-229.78" y="486.5" width="172.25" height="37" as="geometry" />
        </mxCell>
        <mxCell id="-n0s7fdAZKVhsjs20yD8-96" value="&lt;font style=&quot;font-size: 18px;&quot;&gt;&lt;b&gt;Simulation API Feed&lt;br&gt;&lt;/b&gt;&lt;/font&gt;" style="text;html=1;strokeColor=none;fillColor=none;align=center;verticalAlign=middle;whiteSpace=wrap;rounded=0;" parent="1" vertex="1">
          <mxGeometry x="-235.91" y="70" width="194.03" height="37" as="geometry" />
        </mxCell>
        <mxCell id="-n0s7fdAZKVhsjs20yD8-104" value="&lt;font style=&quot;font-size: 22px;&quot;&gt;&lt;b&gt;Data Lake&lt;/b&gt;&lt;font style=&quot;font-size: 22px;&quot;&gt;&lt;b&gt;&lt;br&gt;&lt;/b&gt;&lt;/font&gt;&lt;/font&gt;" style="text;html=1;strokeColor=none;fillColor=none;align=center;verticalAlign=middle;whiteSpace=wrap;rounded=0;" parent="1" vertex="1">
          <mxGeometry x="490" y="259.5" width="194.03" height="37" as="geometry" />
        </mxCell>
        <mxCell id="-n0s7fdAZKVhsjs20yD8-106" value="&lt;font style=&quot;font-size: 18px;&quot;&gt;&lt;b&gt;Speed Layer&lt;br&gt;&lt;/b&gt;&lt;/font&gt;" style="text;html=1;strokeColor=none;fillColor=none;align=center;verticalAlign=middle;whiteSpace=wrap;rounded=0;" parent="1" vertex="1">
          <mxGeometry x="742.9499999999999" y="13" width="194.03" height="37" as="geometry" />
        </mxCell>
        <mxCell id="-n0s7fdAZKVhsjs20yD8-107" value="&lt;font style=&quot;font-size: 18px;&quot;&gt;&lt;b&gt;Batch Layer (ML)&lt;br&gt;&lt;/b&gt;&lt;/font&gt;" style="text;html=1;strokeColor=none;fillColor=none;align=center;verticalAlign=middle;whiteSpace=wrap;rounded=0;" parent="1" vertex="1">
          <mxGeometry x="751" y="286" width="194.03" height="37" as="geometry" />
        </mxCell>
        <mxCell id="-n0s7fdAZKVhsjs20yD8-108" value="&lt;font style=&quot;font-size: 18px;&quot;&gt;&lt;b&gt;Batch Layer&lt;br&gt;&lt;/b&gt;&lt;/font&gt;" style="text;html=1;strokeColor=none;fillColor=none;align=center;verticalAlign=middle;whiteSpace=wrap;rounded=0;" parent="1" vertex="1">
          <mxGeometry x="731" y="500.45" width="194.03" height="37" as="geometry" />
        </mxCell>
        <mxCell id="-n0s7fdAZKVhsjs20yD8-110" value="&lt;font style=&quot;font-size: 18px;&quot;&gt;&lt;b&gt;Serving Layer&lt;br&gt;&lt;/b&gt;&lt;/font&gt;" style="text;html=1;strokeColor=none;fillColor=none;align=center;verticalAlign=middle;whiteSpace=wrap;rounded=0;" parent="1" vertex="1">
          <mxGeometry x="899" y="814" width="194.03" height="37" as="geometry" />
        </mxCell>
        <mxCell id="-n0s7fdAZKVhsjs20yD8-111" value="&lt;font style=&quot;font-size: 26px;&quot;&gt;&lt;b&gt;Analytics + ML &lt;br&gt;&lt;/b&gt;&lt;/font&gt;" style="text;html=1;strokeColor=none;fillColor=none;align=center;verticalAlign=middle;whiteSpace=wrap;rounded=0;" parent="1" vertex="1">
          <mxGeometry x="972" y="937" width="233.03" height="49" as="geometry" />
        </mxCell>
        <mxCell id="-n0s7fdAZKVhsjs20yD8-125" value="" style="endArrow=none;html=1;rounded=0;edgeStyle=elbowEdgeStyle;strokeWidth=5;strokeColor=#4D4D4D;" parent="1" target="-n0s7fdAZKVhsjs20yD8-26" edge="1">
          <mxGeometry width="50" height="50" relative="1" as="geometry">
            <mxPoint x="-382.5" y="358.5" as="sourcePoint" />
            <mxPoint x="-321" y="511" as="targetPoint" />
            <Array as="points">
              <mxPoint x="-341" y="344" />
            </Array>
          </mxGeometry>
        </mxCell>
        <mxCell id="-n0s7fdAZKVhsjs20yD8-126" value="" style="endArrow=none;html=1;rounded=0;edgeStyle=elbowEdgeStyle;strokeWidth=5;strokeColor=#4D4D4D;entryX=0;entryY=0.25;entryDx=0;entryDy=0;" parent="1" target="-n0s7fdAZKVhsjs20yD8-26" edge="1">
          <mxGeometry width="50" height="50" relative="1" as="geometry">
            <mxPoint x="-410" y="137" as="sourcePoint" />
            <mxPoint x="-312.5" y="116.5" as="targetPoint" />
            <Array as="points">
              <mxPoint x="-345" y="188" />
            </Array>
          </mxGeometry>
        </mxCell>
        <mxCell id="-n0s7fdAZKVhsjs20yD8-127" value="" style="endArrow=none;html=1;rounded=0;edgeStyle=elbowEdgeStyle;strokeWidth=5;strokeColor=#4D4D4D;exitX=1;exitY=0.25;exitDx=0;exitDy=0;" parent="1" source="-n0s7fdAZKVhsjs20yD8-30" target="-n0s7fdAZKVhsjs20yD8-14" edge="1">
          <mxGeometry width="50" height="50" relative="1" as="geometry">
            <mxPoint x="-403" y="107" as="sourcePoint" />
            <mxPoint x="-295" y="220" as="targetPoint" />
            <Array as="points">
              <mxPoint x="-346" y="159" />
            </Array>
          </mxGeometry>
        </mxCell>
        <mxCell id="-n0s7fdAZKVhsjs20yD8-128" value="" style="endArrow=none;html=1;rounded=0;edgeStyle=elbowEdgeStyle;strokeWidth=5;strokeColor=#4D4D4D;exitX=0.999;exitY=0.58;exitDx=0;exitDy=0;exitPerimeter=0;" parent="1" source="-n0s7fdAZKVhsjs20yD8-14" target="-n0s7fdAZKVhsjs20yD8-103" edge="1">
          <mxGeometry width="50" height="50" relative="1" as="geometry">
            <mxPoint x="-63" y="156.5" as="sourcePoint" />
            <mxPoint x="38" y="25.5" as="targetPoint" />
            <Array as="points">
              <mxPoint x="56" y="30" />
            </Array>
          </mxGeometry>
        </mxCell>
        <mxCell id="-n0s7fdAZKVhsjs20yD8-129" value="" style="endArrow=none;html=1;rounded=0;edgeStyle=elbowEdgeStyle;strokeWidth=5;strokeColor=#4D4D4D;exitX=1;exitY=0.5;exitDx=0;exitDy=0;entryX=0.003;entryY=0.56;entryDx=0;entryDy=0;entryPerimeter=0;" parent="1" source="-n0s7fdAZKVhsjs20yD8-26" target="-n0s7fdAZKVhsjs20yD8-103" edge="1">
          <mxGeometry width="50" height="50" relative="1" as="geometry">
            <mxPoint x="18" y="306" as="sourcePoint" />
            <mxPoint x="78" y="407" as="targetPoint" />
            <Array as="points">
              <mxPoint x="54" y="293" />
            </Array>
          </mxGeometry>
        </mxCell>
        <mxCell id="-n0s7fdAZKVhsjs20yD8-132" value="" style="endArrow=none;html=1;rounded=0;edgeStyle=elbowEdgeStyle;strokeWidth=5;strokeColor=#4D4D4D;exitX=0.5;exitY=0;exitDx=0;exitDy=0;entryX=0.75;entryY=1;entryDx=0;entryDy=0;elbow=vertical;" parent="1" source="-n0s7fdAZKVhsjs20yD8-30" target="-n0s7fdAZKVhsjs20yD8-35" edge="1">
          <mxGeometry width="50" height="50" relative="1" as="geometry">
            <mxPoint x="-481.5" y="45" as="sourcePoint" />
            <mxPoint x="-380.5" y="-86" as="targetPoint" />
            <Array as="points">
              <mxPoint x="-533" y="44" />
            </Array>
          </mxGeometry>
        </mxCell>
        <mxCell id="-n0s7fdAZKVhsjs20yD8-133" value="" style="endArrow=none;dashed=1;html=1;dashPattern=1 3;strokeWidth=2;rounded=0;" parent="1" edge="1">
          <mxGeometry width="50" height="50" relative="1" as="geometry">
            <mxPoint x="110" y="34" as="sourcePoint" />
            <mxPoint x="161" y="-3" as="targetPoint" />
          </mxGeometry>
        </mxCell>
        <mxCell id="-n0s7fdAZKVhsjs20yD8-134" value="" style="endArrow=none;dashed=1;html=1;dashPattern=1 3;strokeWidth=2;rounded=0;" parent="1" edge="1">
          <mxGeometry width="50" height="50" relative="1" as="geometry">
            <mxPoint x="664.89" y="481" as="sourcePoint" />
            <mxPoint x="741.89" y="454" as="targetPoint" />
          </mxGeometry>
        </mxCell>
        <mxCell id="-n0s7fdAZKVhsjs20yD8-135" value="" style="endArrow=none;html=1;rounded=0;edgeStyle=elbowEdgeStyle;strokeWidth=5;strokeColor=#4D4D4D;exitX=1;exitY=0.25;exitDx=0;exitDy=0;entryX=0;entryY=0.5;entryDx=0;entryDy=0;" parent="1" source="-n0s7fdAZKVhsjs20yD8-103" target="-n0s7fdAZKVhsjs20yD8-43" edge="1">
          <mxGeometry width="50" height="50" relative="1" as="geometry">
            <mxPoint x="520" y="3.5" as="sourcePoint" />
            <mxPoint x="580" y="40.5" as="targetPoint" />
            <Array as="points">
              <mxPoint x="597" y="52" />
            </Array>
          </mxGeometry>
        </mxCell>
        <mxCell id="-n0s7fdAZKVhsjs20yD8-136" value="" style="endArrow=none;html=1;rounded=0;edgeStyle=elbowEdgeStyle;strokeWidth=5;strokeColor=#4D4D4D;exitX=1.012;exitY=0.354;exitDx=0;exitDy=0;entryX=0.5;entryY=0;entryDx=0;entryDy=0;exitPerimeter=0;elbow=vertical;" parent="1" source="-n0s7fdAZKVhsjs20yD8-103" target="-n0s7fdAZKVhsjs20yD8-65" edge="1">
          <mxGeometry width="50" height="50" relative="1" as="geometry">
            <mxPoint x="448" y="79" as="sourcePoint" />
            <mxPoint x="768" y="132" as="targetPoint" />
            <Array as="points">
              <mxPoint x="514" y="66" />
            </Array>
          </mxGeometry>
        </mxCell>
        <mxCell id="-n0s7fdAZKVhsjs20yD8-137" value="" style="endArrow=none;html=1;rounded=0;edgeStyle=elbowEdgeStyle;strokeWidth=5;strokeColor=#4D4D4D;elbow=vertical;" parent="1" source="-n0s7fdAZKVhsjs20yD8-103" target="-n0s7fdAZKVhsjs20yD8-104" edge="1">
          <mxGeometry width="50" height="50" relative="1" as="geometry">
            <mxPoint x="466" y="324" as="sourcePoint" />
            <mxPoint x="583" y="401" as="targetPoint" />
            <Array as="points">
              <mxPoint x="587" y="354" />
            </Array>
          </mxGeometry>
        </mxCell>
        <mxCell id="-n0s7fdAZKVhsjs20yD8-138" value="" style="endArrow=none;html=1;rounded=0;edgeStyle=elbowEdgeStyle;strokeWidth=5;strokeColor=#4D4D4D;elbow=vertical;" parent="1" source="-n0s7fdAZKVhsjs20yD8-60" target="-n0s7fdAZKVhsjs20yD8-109" edge="1">
          <mxGeometry width="50" height="50" relative="1" as="geometry">
            <mxPoint x="1205.03" y="357.5" as="sourcePoint" />
            <mxPoint x="1326" y="610" as="targetPoint" />
            <Array as="points">
              <mxPoint x="1256" y="264" />
            </Array>
          </mxGeometry>
        </mxCell>
        <mxCell id="-n0s7fdAZKVhsjs20yD8-139" value="" style="endArrow=none;html=1;rounded=0;strokeWidth=5;strokeColor=#4D4D4D;exitX=0.5;exitY=1;exitDx=0;exitDy=0;" parent="1" source="-n0s7fdAZKVhsjs20yD8-44" edge="1">
          <mxGeometry width="50" height="50" relative="1" as="geometry">
            <mxPoint x="1073" y="659.14" as="sourcePoint" />
            <mxPoint x="970" y="639" as="targetPoint" />
          </mxGeometry>
        </mxCell>
        <mxCell id="-n0s7fdAZKVhsjs20yD8-140" value="" style="endArrow=none;html=1;rounded=0;edgeStyle=elbowEdgeStyle;strokeWidth=5;strokeColor=#4D4D4D;exitX=1;exitY=0.5;exitDx=0;exitDy=0;" parent="1" source="-n0s7fdAZKVhsjs20yD8-43" target="-n0s7fdAZKVhsjs20yD8-109" edge="1">
          <mxGeometry width="50" height="50" relative="1" as="geometry">
            <mxPoint x="1245" y="-12" as="sourcePoint" />
            <mxPoint x="1318" y="364" as="targetPoint" />
            <Array as="points">
              <mxPoint x="1318" y="126" />
            </Array>
          </mxGeometry>
        </mxCell>
        <mxCell id="-n0s7fdAZKVhsjs20yD8-142" value="" style="endArrow=none;html=1;rounded=0;strokeWidth=5;strokeColor=#4D4D4D;exitX=0.5;exitY=1;exitDx=0;exitDy=0;" parent="1" edge="1">
          <mxGeometry width="50" height="50" relative="1" as="geometry">
            <mxPoint x="969.9699999999999" y="635" as="sourcePoint" />
            <mxPoint x="970" y="689" as="targetPoint" />
          </mxGeometry>
        </mxCell>
        <mxCell id="-n0s7fdAZKVhsjs20yD8-144" value="" style="endArrow=none;html=1;rounded=0;edgeStyle=elbowEdgeStyle;strokeWidth=5;strokeColor=#4D4D4D;" parent="1" source="-n0s7fdAZKVhsjs20yD8-68" edge="1">
          <mxGeometry width="50" height="50" relative="1" as="geometry">
            <mxPoint x="787" y="752" as="sourcePoint" />
            <mxPoint x="973" y="666" as="targetPoint" />
            <Array as="points">
              <mxPoint x="816" y="718" />
            </Array>
          </mxGeometry>
        </mxCell>
        <mxCell id="-n0s7fdAZKVhsjs20yD8-145" value="&lt;font style=&quot;font-size: 24px;&quot;&gt;&lt;b&gt;Data Analysis &lt;br&gt;&lt;/b&gt;&lt;/font&gt;" style="text;html=1;strokeColor=none;fillColor=none;align=center;verticalAlign=middle;whiteSpace=wrap;rounded=0;" parent="1" vertex="1">
          <mxGeometry x="542" y="1205" width="226.97" height="44" as="geometry" />
        </mxCell>
        <mxCell id="-n0s7fdAZKVhsjs20yD8-146" value="" style="endArrow=none;html=1;rounded=0;strokeWidth=5;strokeColor=#4D4D4D;exitX=0.5;exitY=1;exitDx=0;exitDy=0;entryX=0.862;entryY=0.011;entryDx=0;entryDy=0;entryPerimeter=0;" parent="1" target="-n0s7fdAZKVhsjs20yD8-70" edge="1">
          <mxGeometry width="50" height="50" relative="1" as="geometry">
            <mxPoint x="1256" y="637" as="sourcePoint" />
            <mxPoint x="1257" y="684" as="targetPoint" />
          </mxGeometry>
        </mxCell>
        <mxCell id="-n0s7fdAZKVhsjs20yD8-148" value="" style="endArrow=none;html=1;rounded=0;strokeWidth=5;strokeColor=#4D4D4D;exitX=0.5;exitY=1;exitDx=0;exitDy=0;" parent="1" edge="1">
          <mxGeometry width="50" height="50" relative="1" as="geometry">
            <mxPoint x="1318" y="635" as="sourcePoint" />
            <mxPoint x="1318" y="666" as="targetPoint" />
          </mxGeometry>
        </mxCell>
        <mxCell id="-n0s7fdAZKVhsjs20yD8-149" value="" style="endArrow=none;html=1;rounded=0;edgeStyle=elbowEdgeStyle;strokeWidth=5;strokeColor=#4D4D4D;exitX=0.927;exitY=0.002;exitDx=0;exitDy=0;exitPerimeter=0;elbow=vertical;" parent="1" source="-n0s7fdAZKVhsjs20yD8-70" edge="1">
          <mxGeometry width="50" height="50" relative="1" as="geometry">
            <mxPoint x="1089" y="844.85" as="sourcePoint" />
            <mxPoint x="1318" y="659" as="targetPoint" />
          </mxGeometry>
        </mxCell>
        <mxCell id="-n0s7fdAZKVhsjs20yD8-150" value="" style="endArrow=none;dashed=1;html=1;dashPattern=1 3;strokeWidth=2;rounded=0;" parent="1" source="-n0s7fdAZKVhsjs20yD8-78" target="-n0s7fdAZKVhsjs20yD8-68" edge="1">
          <mxGeometry width="50" height="50" relative="1" as="geometry">
            <mxPoint x="580" y="1098" as="sourcePoint" />
            <mxPoint x="693" y="974" as="targetPoint" />
          </mxGeometry>
        </mxCell>
        <mxCell id="-n0s7fdAZKVhsjs20yD8-152" value="" style="endArrow=none;dashed=1;html=1;dashPattern=1 3;strokeWidth=2;rounded=0;entryX=0.5;entryY=1;entryDx=0;entryDy=0;exitX=0.456;exitY=0.001;exitDx=0;exitDy=0;exitPerimeter=0;" parent="1" source="-n0s7fdAZKVhsjs20yD8-82" target="-n0s7fdAZKVhsjs20yD8-70" edge="1">
          <mxGeometry width="50" height="50" relative="1" as="geometry">
            <mxPoint x="1115" y="970" as="sourcePoint" />
            <mxPoint x="1108" y="887" as="targetPoint" />
          </mxGeometry>
        </mxCell>
        <mxCell id="4zc7sX9hzwuj8n7njz3P-1" value="" style="endArrow=none;dashed=1;html=1;dashPattern=1 3;strokeWidth=2;rounded=0;" parent="1" edge="1">
          <mxGeometry width="50" height="50" relative="1" as="geometry">
            <mxPoint x="115" y="88" as="sourcePoint" />
            <mxPoint x="164" y="81" as="targetPoint" />
          </mxGeometry>
        </mxCell>
        <mxCell id="4zc7sX9hzwuj8n7njz3P-2" value="" style="endArrow=none;dashed=1;html=1;dashPattern=1 3;strokeWidth=2;rounded=0;" parent="1" edge="1">
          <mxGeometry width="50" height="50" relative="1" as="geometry">
            <mxPoint x="112" y="172.5" as="sourcePoint" />
            <mxPoint x="161" y="180" as="targetPoint" />
          </mxGeometry>
        </mxCell>
        <mxCell id="4zc7sX9hzwuj8n7njz3P-3" value="" style="endArrow=none;dashed=1;html=1;dashPattern=1 3;strokeWidth=2;rounded=0;" parent="1" edge="1">
          <mxGeometry width="50" height="50" relative="1" as="geometry">
            <mxPoint x="113" y="269" as="sourcePoint" />
            <mxPoint x="170" y="272" as="targetPoint" />
          </mxGeometry>
        </mxCell>
        <mxCell id="4zc7sX9hzwuj8n7njz3P-4" value="" style="endArrow=none;dashed=1;html=1;dashPattern=1 3;strokeWidth=2;rounded=0;" parent="1" edge="1">
          <mxGeometry width="50" height="50" relative="1" as="geometry">
            <mxPoint x="365" y="-45.15" as="sourcePoint" />
            <mxPoint x="414" y="-37.65" as="targetPoint" />
          </mxGeometry>
        </mxCell>
        <mxCell id="4zc7sX9hzwuj8n7njz3P-5" value="" style="endArrow=none;dashed=1;html=1;dashPattern=1 3;strokeWidth=2;rounded=0;" parent="1" edge="1">
          <mxGeometry width="50" height="50" relative="1" as="geometry">
            <mxPoint x="365" y="70" as="sourcePoint" />
            <mxPoint x="414" y="77.5" as="targetPoint" />
          </mxGeometry>
        </mxCell>
        <mxCell id="4zc7sX9hzwuj8n7njz3P-6" value="" style="endArrow=none;dashed=1;html=1;dashPattern=1 3;strokeWidth=2;rounded=0;" parent="1" edge="1">
          <mxGeometry width="50" height="50" relative="1" as="geometry">
            <mxPoint x="363" y="163" as="sourcePoint" />
            <mxPoint x="414" y="165" as="targetPoint" />
          </mxGeometry>
        </mxCell>
        <mxCell id="4zc7sX9hzwuj8n7njz3P-7" value="" style="endArrow=none;dashed=1;html=1;dashPattern=1 3;strokeWidth=2;rounded=0;" parent="1" edge="1">
          <mxGeometry width="50" height="50" relative="1" as="geometry">
            <mxPoint x="363" y="255.6" as="sourcePoint" />
            <mxPoint x="412" y="248.6" as="targetPoint" />
          </mxGeometry>
        </mxCell>
        <mxCell id="4zc7sX9hzwuj8n7njz3P-8" value="" style="endArrow=none;dashed=1;html=1;dashPattern=1 3;strokeWidth=2;rounded=0;entryX=0;entryY=0.75;entryDx=0;entryDy=0;" parent="1" target="-n0s7fdAZKVhsjs20yD8-107" edge="1">
          <mxGeometry width="50" height="50" relative="1" as="geometry">
            <mxPoint x="629" y="429" as="sourcePoint" />
            <mxPoint x="706" y="402" as="targetPoint" />
          </mxGeometry>
        </mxCell>
        <mxCell id="qaJE4mdySSMSnhRAroh6-2" value="" style="ellipse;whiteSpace=wrap;html=1;fillColor=#dae8fc;strokeColor=#6c8ebf;" parent="1" vertex="1">
          <mxGeometry x="-674.4" y="868" width="911" height="261" as="geometry" />
        </mxCell>
        <mxCell id="qaJE4mdySSMSnhRAroh6-4" value="&lt;font style=&quot;font-size: 42px;&quot;&gt;SS-Analytics - Data Architecture&lt;/font&gt;" style="text;strokeColor=none;fillColor=none;html=1;fontSize=24;fontStyle=1;verticalAlign=middle;align=center;" parent="1" vertex="1">
          <mxGeometry x="-362.4" y="962" width="287" height="82" as="geometry" />
        </mxCell>
        <mxCell id="qaJE4mdySSMSnhRAroh6-7" value="&lt;font style=&quot;font-size: 22px;&quot;&gt;&lt;b&gt;Data Warehouse&lt;br&gt;&lt;/b&gt;&lt;/font&gt;" style="text;html=1;strokeColor=none;fillColor=none;align=center;verticalAlign=middle;whiteSpace=wrap;rounded=0;" parent="1" vertex="1">
          <mxGeometry x="653" y="966" width="194.03" height="37" as="geometry" />
        </mxCell>
        <mxCell id="qaJE4mdySSMSnhRAroh6-8" value="" style="endArrow=none;html=1;rounded=0;edgeStyle=elbowEdgeStyle;strokeWidth=5;strokeColor=#4D4D4D;exitX=1;exitY=0;exitDx=0;exitDy=0;entryX=0;entryY=0;entryDx=0;entryDy=0;elbow=vertical;" parent="1" source="-n0s7fdAZKVhsjs20yD8-104" target="-n0s7fdAZKVhsjs20yD8-107" edge="1">
          <mxGeometry width="50" height="50" relative="1" as="geometry">
            <mxPoint x="679" y="290" as="sourcePoint" />
            <mxPoint x="836" y="360" as="targetPoint" />
            <Array as="points">
              <mxPoint x="717" y="286" />
            </Array>
          </mxGeometry>
        </mxCell>
        <mxCell id="qaJE4mdySSMSnhRAroh6-9" value="" style="endArrow=none;html=1;rounded=0;edgeStyle=elbowEdgeStyle;strokeWidth=5;strokeColor=#4D4D4D;exitX=1;exitY=0;exitDx=0;exitDy=0;entryX=-0.006;entryY=0.314;entryDx=0;entryDy=0;elbow=vertical;entryPerimeter=0;" parent="1" target="-n0s7fdAZKVhsjs20yD8-44" edge="1">
          <mxGeometry width="50" height="50" relative="1" as="geometry">
            <mxPoint x="684.03" y="278.5" as="sourcePoint" />
            <mxPoint x="751.03" y="304.5" as="targetPoint" />
            <Array as="points">
              <mxPoint x="719" y="427" />
            </Array>
          </mxGeometry>
        </mxCell>
        <mxCell id="iKn3RdWohrzwRjHL51hc-1" value="" style="shape=image;verticalLabelPosition=bottom;labelBackgroundColor=default;verticalAlign=top;aspect=fixed;imageAspect=0;image=https://upload.wikimedia.org/wikipedia/commons/thumb/6/6f/Logo_of_Twitter.svg/2491px-Logo_of_Twitter.svg.png;" vertex="1" parent="1">
          <mxGeometry x="-689.51" y="505.3" width="116.01" height="95.42" as="geometry" />
        </mxCell>
        <mxCell id="iKn3RdWohrzwRjHL51hc-2" value="" style="shape=image;verticalLabelPosition=bottom;labelBackgroundColor=default;verticalAlign=top;aspect=fixed;imageAspect=0;image=https://upload.wikimedia.org/wikipedia/commons/thumb/4/4a/Amazon_icon.svg/2500px-Amazon_icon.svg.png;" vertex="1" parent="1">
          <mxGeometry x="-521.5" y="507.22" width="93.5" height="93.5" as="geometry" />
        </mxCell>
        <mxCell id="iKn3RdWohrzwRjHL51hc-5" value="" style="endArrow=none;html=1;rounded=0;edgeStyle=elbowEdgeStyle;strokeWidth=5;strokeColor=#4D4D4D;exitX=0.5;exitY=0;exitDx=0;exitDy=0;entryX=0.75;entryY=1;entryDx=0;entryDy=0;elbow=vertical;" edge="1" parent="1">
          <mxGeometry width="50" height="50" relative="1" as="geometry">
            <mxPoint x="-638.54" y="523.27" as="sourcePoint" />
            <mxPoint x="-608.54" y="438.27" as="targetPoint" />
            <Array as="points">
              <mxPoint x="-604.54" y="479.27" />
            </Array>
          </mxGeometry>
        </mxCell>
        <mxCell id="iKn3RdWohrzwRjHL51hc-7" value="" style="endArrow=none;html=1;rounded=0;edgeStyle=elbowEdgeStyle;strokeWidth=5;strokeColor=#4D4D4D;exitX=0.25;exitY=0;exitDx=0;exitDy=0;entryX=0.75;entryY=1;entryDx=0;entryDy=0;elbow=vertical;" edge="1" parent="1" source="iKn3RdWohrzwRjHL51hc-2" target="-n0s7fdAZKVhsjs20yD8-11">
          <mxGeometry width="50" height="50" relative="1" as="geometry">
            <mxPoint x="-628.54" y="533.27" as="sourcePoint" />
            <mxPoint x="-598.54" y="448.27" as="targetPoint" />
            <Array as="points">
              <mxPoint x="-594.54" y="489.27" />
            </Array>
          </mxGeometry>
        </mxCell>
      </root>
    </mxGraphModel>
  </diagram>
</mxfile>
